<?xml version="1.0" encoding="UTF-8"?>
<svg width="355px" height="260px" viewBox="0 0 355 260" version="1.1" xmlns="http://www.w3.org/2000/svg" xmlns:xlink="http://www.w3.org/1999/xlink">
    <title>__🥭Illustrations/ illustration_coming_soon</title>
    <defs>
        <linearGradient x1="19.4959033%" y1="70.8097699%" x2="77.4790349%" y2="18.2357903%" id="linearGradient-1">
            <stop stop-color="#00AB55" offset="0%"></stop>
            <stop stop-color="#00AB55" stop-opacity="0" offset="100%"></stop>
        </linearGradient>
        <linearGradient x1="32.1801117%" y1="34.4517814%" x2="65.8803112%" y2="76.4443131%" id="linearGradient-2">
            <stop stop-color="#007B55" offset="0%"></stop>
            <stop stop-color="#00AB55" offset="100%"></stop>
        </linearGradient>
        <linearGradient x1="50%" y1="29.8974437%" x2="44.0125929%" y2="74.2940005%" id="linearGradient-3">
            <stop stop-color="#000000" offset="0%"></stop>
            <stop stop-color="#000000" stop-opacity="0" offset="100%"></stop>
        </linearGradient>
        <polygon id="path-4" points="160.208145 142.941176 112.117647 142.941176 102.823529 102.941176 150.914027 102.941176"></polygon>
        <linearGradient x1="8.63677192e-05%" y1="49.9999321%" x2="100.000086%" y2="49.9999321%" id="linearGradient-5">
            <stop stop-color="#007B55" offset="0%"></stop>
            <stop stop-color="#00AB55" offset="100%"></stop>
        </linearGradient>
        <filter x="-12.7%" y="-20.0%" width="125.4%" height="140.0%" filterUnits="objectBoundingBox" id="filter-6">
            <feOffset dx="4" dy="4" in="SourceAlpha" result="shadowOffsetOuter1"></feOffset>
            <feGaussianBlur stdDeviation="4" in="shadowOffsetOuter1" result="shadowBlurOuter1"></feGaussianBlur>
            <feColorMatrix values="0 0 0 0 0   0 0 0 0 0.321568627   0 0 0 0 0.28627451  0 0 0 0.32 0" type="matrix" in="shadowBlurOuter1" result="shadowMatrixOuter1"></feColorMatrix>
            <feMerge>
                <feMergeNode in="shadowMatrixOuter1"></feMergeNode>
                <feMergeNode in="SourceGraphic"></feMergeNode>
            </feMerge>
        </filter>
        <filter x="-46.1%" y="-100.0%" width="192.1%" height="300.0%" filterUnits="objectBoundingBox" id="filter-7">
            <feOffset dx="6" dy="6" in="SourceAlpha" result="shadowOffsetOuter1"></feOffset>
            <feGaussianBlur stdDeviation="6" in="shadowOffsetOuter1" result="shadowBlurOuter1"></feGaussianBlur>
            <feColorMatrix values="0 0 0 0 0   0 0 0 0 0.321568627   0 0 0 0 0.28627451  0 0 0 0.48 0" type="matrix" in="shadowBlurOuter1" result="shadowMatrixOuter1"></feColorMatrix>
            <feMerge>
                <feMergeNode in="shadowMatrixOuter1"></feMergeNode>
                <feMergeNode in="SourceGraphic"></feMergeNode>
            </feMerge>
        </filter>
        <linearGradient x1="49.6828465%" y1="25.5463845%" x2="52.0915921%" y2="100.936456%" id="linearGradient-8">
            <stop stop-color="#00AB55" offset="0%"></stop>
            <stop stop-color="#007B55" offset="100%"></stop>
        </linearGradient>
        <filter x="-54.7%" y="-77.8%" width="209.4%" height="255.6%" filterUnits="objectBoundingBox" id="filter-9">
            <feOffset dx="6" dy="6" in="SourceAlpha" result="shadowOffsetOuter1"></feOffset>
            <feGaussianBlur stdDeviation="6" in="shadowOffsetOuter1" result="shadowBlurOuter1"></feGaussianBlur>
            <feColorMatrix values="0 0 0 0 0   0 0 0 0 0.321568627   0 0 0 0 0.28627451  0 0 0 0.48 0" type="matrix" in="shadowBlurOuter1" result="shadowMatrixOuter1"></feColorMatrix>
            <feMerge>
                <feMergeNode in="shadowMatrixOuter1"></feMergeNode>
                <feMergeNode in="SourceGraphic"></feMergeNode>
            </feMerge>
        </filter>
        <linearGradient x1="-10.5801707%" y1="-50.1399239%" x2="138.135291%" y2="202.025463%" id="linearGradient-10">
            <stop stop-color="#000000" offset="1%"></stop>
            <stop stop-color="#000000" stop-opacity="0.69" offset="8%"></stop>
            <stop stop-color="#000000" stop-opacity="0.32" offset="21%"></stop>
            <stop stop-color="#000000" stop-opacity="0" offset="100%"></stop>
        </linearGradient>
        <linearGradient x1="49.8639585%" y1="25.5463845%" x2="50.8971784%" y2="100.936456%" id="linearGradient-11">
            <stop stop-color="#00AB55" offset="0%"></stop>
            <stop stop-color="#007B55" offset="100%"></stop>
        </linearGradient>
        <linearGradient x1="49.7587953%" y1="25.5463845%" x2="51.5907179%" y2="100.936456%" id="linearGradient-12">
            <stop stop-color="#00AB55" offset="0%"></stop>
            <stop stop-color="#007B55" offset="100%"></stop>
        </linearGradient>
        <linearGradient x1="49.7537591%" y1="25.5463845%" x2="51.623931%" y2="100.936456%" id="linearGradient-13">
            <stop stop-color="#00AB55" offset="0%"></stop>
            <stop stop-color="#007B55" offset="100%"></stop>
        </linearGradient>
    </defs>
    <g id="__🥭Illustrations/-illustration_coming_soon" stroke="none" stroke-width="1" fill="none" fill-rule="evenodd">
        <g id="Group" fill="url(#linearGradient-1)" opacity="0.24">
            <g id="__🥭Illustrations/-X🩸Setup/-Shape_1">
                <path d="M0,143.563853 C0,173.505134 11.0533541,200.788998 29.2424179,221.409124 C50.1093161,245.072407 80.3684561,259.949979 114.09751,260 C128.838425,260.021266 142.933394,257.192761 155.880277,252.029215 C162.574474,249.358333 170.066969,249.664866 176.550515,252.829212 C184.15572,256.536129 192.671933,258.614538 201.664638,258.614538 C205.379404,258.614538 209.017217,258.257311 212.536101,257.579294 C222.580506,255.650588 231.7209,251.086644 239.227386,244.622508 C243.944883,240.558364 249.986917,238.515599 256.161871,238.522727 L256.266808,238.522727 C276.671206,238.522727 295.624366,232.216215 311.360238,221.409124 C325.428002,211.760049 336.915873,198.517323 344.570049,182.968863 C351.243259,169.419603 355,154.113519 355,137.913971 C355,82.3529783 310.792025,37.3052156 256.266808,37.3052156 C250.708261,37.3052156 245.262424,37.7836298 239.949508,38.6762999 C225.881744,15.4700447 200.68989,0 171.951947,0 C159.818909,0 148.316269,2.75721805 138.020015,7.69977496 C128.228236,12.384907 119.522359,19.0423094 112.400641,27.1555483 C88.218514,27.5484182 65.8584025,35.5982909 47.557406,49.0326992 C18.7495046,70.1676745 0,104.637257 0,143.563853 Z" id="background"></path>
            </g>
        </g>
        <g id="#gr" transform="translate(54.000000, 30.000000)">
            <polygon id="Path" fill="#005249" fill-rule="nonzero" points="163.230769 142.524887 112.117647 142.524887 102.823529 102.941176 153.936652 102.941176"></polygon>
            <g id="Path" fill-rule="nonzero">
                <use fill="url(#linearGradient-2)" xlink:href="#path-4"></use>
                <use fill="url(#linearGradient-3)" xlink:href="#path-4"></use>
            </g>
            <rect id="Rectangle" fill="url(#linearGradient-5)" fill-rule="nonzero" x="48.6606335" y="141.085973" width="182.280543" height="48.561086" rx="24.280543"></rect>
            <g id="Rectangle-4" filter="url(#filter-6)" transform="translate(36.190045, 0.398190)" fill="#FFFFFF" fill-rule="nonzero">
                <rect id="Rectangle" x="-4.26325641e-14" y="-2.13162821e-14" width="180.588235" height="115.004525" rx="15.9004525"></rect>
            </g>
            <path d="M216.778281,92.5882353 L216.778281,99.4932127 C216.768306,108.270655 209.655271,115.383691 200.877828,115.393665 L52.081448,115.393665 C43.2998705,115.393665 36.1809955,108.27479 36.1809955,99.4932127 L36.1809955,99.4932127 L36.1809955,92.5882353 L216.778281,92.5882353 Z" id="Path" fill="#00AB55" fill-rule="nonzero" opacity="0.16"></path>
            <path d="M95.3393665,116.41629 L124.217195,116.41629 C124.716426,116.41629 125.195209,116.614608 125.548219,116.967618 C125.901229,117.320628 126.099548,117.799411 126.099548,118.298643 L126.099548,118.298643 C126.099548,118.797874 125.901229,119.276657 125.548219,119.629667 C125.195209,119.982677 124.716426,120.180995 124.217195,120.180995 L95.3393665,120.180995 C94.8401355,120.180995 94.3613516,119.982677 94.008342,119.629667 C93.6553323,119.276657 93.4570136,118.797874 93.4570136,118.298643 L93.4570136,118.298643 C93.4570136,117.259048 94.2997717,116.41629 95.3393665,116.41629 L95.3393665,116.41629 Z" id="Path" fill="#005249" fill-rule="nonzero"></path>
            <polygon id="Path" fill="#FCBDBA" fill-rule="nonzero" points="100.00905 106.343891 99.1493213 112.0181 101.529412 112.289593 104.126697 106.289593"></polygon>
            <path d="M102.244344,111.457014 C102.128809,111.364234 102.028103,111.254373 101.945701,111.131222 C101.699586,111.285028 101.397847,111.321502 101.122172,111.230769 L99.9276018,111.031674 C99.7177325,111.006467 99.5131265,110.948444 99.321267,110.859729 L99.239819,110.859729 L98.9864253,111.348416 C98.5530653,112.221502 98.2977324,113.172078 98.2352941,114.144796 C100.495788,114.680489 102.819211,114.902782 105.140271,114.80543 C105.51845,114.857426 105.89534,114.701829 106.126697,114.39819 C106.216932,114.193516 106.216932,113.96033 106.126697,113.755656 C105.905477,113.29237 105.507806,112.937074 105.022624,112.769231 C104.40724,112.515837 103.782805,112.298643 103.21267,112.00905 C102.866366,111.869777 102.540606,111.684064 102.244344,111.457014 L102.244344,111.457014 Z" id="Path" fill="#7A4F01" fill-rule="nonzero"></path>
            <polygon id="Path" fill="#FCBDBA" fill-rule="nonzero" points="115.972851 108.072398 115.230769 113.764706 117.61991 113.9819 120.090498 107.936652"></polygon>
            <path d="M197.122172,28.7692308 L197.122172,46.3348416 C197.122172,51.1429677 193.224416,55.040724 188.41629,55.040724 L137.438914,55.040724 L116.778281,78.8054299 L116.778281,20.0633484 L188.41629,20.0633484 C190.725233,20.0633484 192.939608,20.9805727 194.572278,22.6132423 C196.204948,24.245912 197.122172,26.4602872 197.122172,28.7692308 L197.122172,28.7692308 Z" id="Path" fill="#005249" fill-rule="nonzero" opacity="0.1"></path>
            <g id="Rectangle-2" filter="url(#filter-7)" transform="translate(119.963801, 12.588235)" fill="#00AB55" fill-rule="nonzero">
                <rect id="Rectangle" x="-2.84217094e-14" y="9.9475983e-14" width="75.0588235" height="34.9773756" rx="8.70588235"></rect>
            </g>
            <path d="M130.081448,43.2307692 C129.788893,43.2568524 129.494314,43.2134408 129.221719,43.1040724 C128.780928,42.7970624 128.478614,42.3289629 128.38009,41.800905 C126.959276,37.4117647 124.0181,33.1402715 119.60181,31.8461538 C118.452489,36.5248869 118.533937,41.4117647 118.624434,46.2352941 C118.624434,47.520362 118.769231,48.9954751 119.800905,49.7556561 C120.473497,50.1706227 121.255845,50.3725191 122.045249,50.3348416 C127.053214,50.525056 132.029657,49.4644517 136.524887,47.2488688 C137.873303,46.5791855 140.651584,43.9638009 138.063348,43.1131222 C137.285068,42.8506787 135.565611,43.2488688 134.733032,43.2488688 L130.081448,43.2307692 Z" id="Path" fill="#020202" fill-rule="nonzero" opacity="0.1"></path>
            <polygon id="Path" fill="#212B36" fill-rule="nonzero" points="99.800905 66.8506787 103.348416 86.5701357 99.800905 107.782805 105.547511 108.226244 113.918552 84.3348416 111.085973 65.4027149"></polygon>
            <polygon id="Path" fill="#212B36" fill-rule="nonzero" points="119.638009 65.4027149 126.0181 91.6561086 120.859729 109.728507 115.746606 109.466063 116.461538 94.0452489 107.457014 69.1131222"></polygon>
            <path d="M137.20362,43.6289593 C137.971105,43.1807013 138.792063,42.8310339 139.647059,42.5882353 C139.919404,42.4665152 140.234241,42.4868272 140.488688,42.6425339 C140.621499,42.7668809 140.707729,42.9329538 140.733032,43.1131222 C140.865519,43.6926365 140.818165,44.2987711 140.597285,44.8506787 C141.561196,45.3848466 142.57319,45.8272151 143.61991,46.1719457 C144.061405,46.2472958 144.451599,46.5030529 144.696833,46.8778281 C144.829521,47.2741505 144.707684,47.7113313 144.38914,47.9819005 C144.072701,48.2442862 143.691225,48.4162632 143.285068,48.479638 C140.660633,49.0950226 136.38914,48.479638 135.764706,45.3393665 C135.628959,44.6515837 135.882353,44.5339367 136.425339,44.1447964 C136.714932,43.9547511 136.977376,43.7918552 137.20362,43.6289593 Z" id="Path" fill="#FCBDBA" fill-rule="nonzero"></path>
            <path d="M117.484163,19.4027149 C118.080626,20.6001786 118.463448,21.8925834 118.615385,23.2217195 C118.757878,24.5718943 118.176272,25.8968555 117.085973,26.7058824 C116.759316,26.8567767 116.454834,27.0516448 116.180995,27.2850679 C115.221719,28.2714932 116.316742,30.0542986 115.764706,31.3303167 C115.323605,32.2008126 114.292642,32.5928138 113.384615,32.2352941 C112.496937,31.8470337 111.831888,31.078902 111.574661,30.1447964 C111.330585,29.2180679 111.220868,28.2610894 111.248869,27.3031674 L111.149321,21.60181 C111.022344,20.3328944 111.221712,19.052579 111.728507,17.8823529 C112.432161,16.6673495 113.756082,15.9477509 115.158371,16.0180995 C116.597285,16.199095 117.004525,18.280543 117.484163,19.4027149 Z" id="Path" fill="#FCBDBA" fill-rule="nonzero"></path>
            <path d="M137.375566,47.8733032 C137.375566,47.8733032 126.443439,57.638009 125.656109,57.638009 C124.868778,57.638009 120.00905,51.5022624 120.00905,51.5022624 L119.638009,65.438914 C118.288337,66.2351757 116.881812,66.9308763 115.429864,67.520362 C112.930345,68.6614866 110.203824,69.218551 107.457014,69.1493213 C102.144796,68.6696833 99.800905,66.8868778 99.800905,66.8868778 L103.076923,34.1538462 C103.076923,34.1538462 109.266968,29.7013575 111.384615,30.3800905 C112.898944,30.6515207 114.449472,30.6515207 115.963801,30.3800905 C119.022624,29.9728507 122.144796,34.1538462 122.144796,34.1538462 L126.208145,47.5022624 L135.737557,44.1176471 C137.00769,44.9103313 137.65877,46.4031391 137.375566,47.8733032 Z" id="Path" fill="url(#linearGradient-8)" fill-rule="nonzero"></path>
            <path d="M118.687783,13.2579186 C118.758096,12.5390437 118.589521,11.8170342 118.208145,11.2036199 C117.475113,10.1809955 115.972851,10.0904977 114.742081,10.361991 C113.895843,10.5940581 113.07674,10.9156319 112.298643,11.321267 C111.726391,11.5570388 111.102201,11.6381835 110.488688,11.5565611 C108.86405,11.527719 107.288976,12.1163502 106.081448,13.2036199 C104.41629,14.7782805 104.027149,17.1040724 103.855204,19.2850679 C103.674208,21.7556561 104.760181,23.8099548 106.39819,25.6923077 C107.782805,27.3303167 110.307692,28.9411765 112.108597,26.8687783 C112.911698,25.8153555 113.27795,24.492959 113.131222,23.1764706 C112.246772,23.0860446 111.518539,22.4415582 111.321267,21.5746606 C111.194667,21.0329191 111.38363,20.4660307 111.809955,20.1085973 C112.06914,19.9524619 112.379755,19.9057439 112.6734,19.978731 C112.967046,20.0517182 113.219642,20.238425 113.375566,20.4977376 C113.427508,20.5789386 113.467153,20.667377 113.493213,20.760181 C113.754175,20.2351645 113.945825,19.6784695 114.063348,19.1040724 C114.271493,18.5520362 114.968326,18.0723982 115.420814,18.4434389 C115.683258,18.6515837 115.837104,19.1131222 116.171946,19.040724 C116.28312,18.9990068 116.38033,18.9268827 116.452489,18.8325792 C117.111361,18.1988732 117.667093,17.4660401 118.099548,16.6606335 C118.504569,15.7103475 118.71682,14.6890824 118.723982,13.6561086 C118.689631,13.5263549 118.677393,13.3917397 118.687783,13.2579186 L118.687783,13.2579186 Z" id="Path" fill="#7A0C2E" fill-rule="nonzero"></path>
            <path d="M97.2036199,12.0452489 C94.8469537,11.7655767 92.5640588,12.9773502 91.4751131,15.0859729 C90.2171946,17.6651584 91.1221719,20.7149321 91.3303167,23.5837104 C91.719619,25.6346265 90.6377322,27.681947 88.7239819,28.5158371 C86.6968326,29.7375566 84.361991,30.561086 82.7420814,32.2895928 C81.4665279,33.7104084 80.7132127,35.5234721 80.6063348,37.4298643 C80.5051522,38.2245389 80.6438176,39.031319 81.0045249,39.7466063 C81.358438,40.2756616 81.821246,40.7230427 82.361991,41.0588235 C85.3915432,43.2488477 89.1754986,44.1263339 92.8597285,43.4932127 C96.5728546,42.7890019 99.5451892,40.0035401 100.488688,36.3438914 C101.285068,32.5248869 99.3484163,28.7330317 98.6153846,24.8959276 C98.3444564,23.9877322 98.4521627,23.0085837 98.9140271,22.1809955 C99.520362,21.3665158 100.642534,21.1764706 101.520362,20.6606335 C106.271493,17.8642534 100.687783,12.5158371 97.2036199,12.0452489 Z" id="Path" fill="#7A0C2E" fill-rule="nonzero"></path>
            <rect id="Rectangle" fill="#00AB55" fill-rule="nonzero" x="102.090498" y="15.7375566" width="3.68325792" height="3.68325792" rx="1.80090498"></rect>
            <path d="M118.307692,113.140271 C118.194259,113.045272 118.093846,112.93573 118.00905,112.81448 C117.766724,112.976266 117.46527,113.022644 117.18552,112.941176 L115.99095,112.760181 C115.778836,112.736929 115.571404,112.682021 115.375566,112.597285 L115.294118,112.597285 L115.049774,113.095023 C114.641339,113.980114 114.407796,114.935794 114.361991,115.909502 C116.633049,116.3913 118.958254,116.56782 121.276018,116.434389 C121.656984,116.480885 122.03262,116.313935 122.253394,116 C122.343629,115.795326 122.343629,115.56214 122.253394,115.357466 C122.026415,114.897581 121.620818,114.550861 121.131222,114.39819 C120.506787,114.153846 119.873303,113.954751 119.266968,113.665158 C118.924496,113.535354 118.601666,113.358711 118.307692,113.140271 L118.307692,113.140271 Z" id="Path" fill="#7A4F01" fill-rule="nonzero"></path>
            <path d="M118.81448,120.180995 L115.149321,120.180995 L112.226244,128.090498 L97.1221719,128.090498 L100.045249,120.180995 L96.3800905,120.180995 L70.6696833,189.647059 L74.3348416,189.647059 L76.8778281,182.778281 L91.9547511,182.778281 L89.4117647,189.647059 L93.0769231,189.647059 L95.6199095,182.778281 L95.7285068,182.778281 L95.7285068,182.488688 L118.597285,120.714932 L118.597285,189.647059 L122.262443,189.647059 L122.262443,120.180995 L118.81448,120.180995 Z M111.230769,130.78733 L107.420814,141.085973 L92.3076923,141.085973 L96.1176471,130.78733 L111.230769,130.78733 Z M87.4932127,154.126697 L91.3031674,143.837104 L106.434389,143.837104 L102.606335,154.126697 L87.4932127,154.126697 Z M101.61086,156.841629 L97.800905,167.131222 L82.6877828,167.131222 L86.5248869,156.78733 L101.61086,156.841629 Z M77.8733032,180.135747 L81.6832579,169.837104 L96.7963801,169.837104 L92.9864253,180.135747 L77.8733032,180.135747 Z" id="Shape" fill="#005249" fill-rule="nonzero"></path>
            <g id="Rectangle-3" filter="url(#filter-9)" transform="translate(152.823529, 73.547511)" fill="#007B55" fill-rule="nonzero">
                <rect id="Rectangle" x="2.98427949e-13" y="-6.39488462e-14" width="63.1945701" height="44.7511312" rx="4.04524887"></rect>
            </g>
            <path d="M204.031072,89.559233 C204.027688,89.5589437 204.024306,89.5586448 204.020927,89.5583362 L204.180995,89.5656109 C204.100429,89.5656109 204.021144,89.5601275 203.943491,89.5495137 C203.917927,89.5460178 203.892644,89.541985 203.867549,89.5374131 C203.842425,89.5328385 203.817325,89.5276859 203.792428,89.5219985 C203.761748,89.514994 203.73118,89.5071205 203.700949,89.4984485 C203.682649,89.4931934 203.664957,89.4878017 203.647387,89.4821378 C203.615505,89.4718742 203.583404,89.4604731 203.551752,89.4481712 C203.533037,89.440893 203.514793,89.4334344 203.496707,89.4256776 C203.461635,89.4106364 203.427153,89.3944711 203.39331,89.3772294 C203.383452,89.3722129 203.372947,89.3667301 203.362505,89.3611438 C203.272486,89.3129201 203.18796,89.25759 203.108945,89.1955596 C203.086343,89.1778123 203.064338,89.1596429 203.042797,89.1409522 C203.024901,89.1254318 203.007031,89.1092735 202.989504,89.0927549 C202.972404,89.0766313 202.955897,89.0604377 202.939718,89.0439225 C202.919373,89.0231602 202.899387,89.0017122 202.879948,88.9797688 C202.87353,88.9725236 202.867222,88.9652831 202.860973,88.9579901 L191.647307,95.4305018 L191.657112,95.4646808 C191.663396,95.4874723 191.669227,95.5104515 191.674596,95.5336081 L191.647307,95.4305018 C191.665122,95.4902733 191.679807,95.5513939 191.691171,95.6136734 C191.696984,95.6455654 191.70188,95.6773931 191.7059,95.709493 C191.708236,95.7281468 191.710282,95.7469384 191.712025,95.7658175 C191.716936,95.8189314 191.719457,95.8729722 191.719457,95.9276018 C191.719457,96.8872278 190.941526,97.6651584 189.9819,97.6651584 L189.9819,97.6651584 C189.072781,97.6651584 188.326735,96.9669603 188.250722,96.0775248 L188.249688,96.0585566 L175.836365,94.1475902 L175.826413,94.1715367 C175.815329,94.1976495 175.803625,94.2234352 175.79132,94.2488753 L175.836365,94.1475902 C175.815386,94.1991573 175.792002,94.2494895 175.766352,94.2984476 C175.749789,94.3300457 175.732457,94.3607841 175.714234,94.3909242 C175.709424,94.3988838 175.70433,94.4071569 175.699168,94.4153837 C175.682488,94.4419545 175.665361,94.4676842 175.64758,94.4929192 C175.633903,94.5123236 175.619963,94.5312734 175.605654,94.5499247 C175.594679,94.5642362 175.583232,94.5786835 175.571562,94.592942 C175.553696,94.6147635 175.535529,94.6358992 175.516872,94.6565841 C175.501943,94.6731334 175.486782,94.6893096 175.47132,94.7051911 C175.452479,94.7245517 175.432927,94.7437207 175.412933,94.7624228 C175.405966,94.7689362 175.399319,94.775054 175.392624,94.7811203 C175.363568,94.8074746 175.333015,94.8333329 175.301585,94.8581289 C175.291624,94.8659847 175.281771,94.8735868 175.271834,94.8810846 C175.247192,94.8996865 175.22174,94.9178492 175.19579,94.93533 C175.173932,94.9500463 175.152099,94.964048 175.12994,94.9775675 C175.110697,94.9893099 175.091097,95.0007506 175.071257,95.0118138 C175.0447,95.0266271 175.017529,95.0408547 174.989948,95.0543728 C174.97545,95.0614734 174.961261,95.0681858 174.946968,95.0747101 C174.878878,95.105817 174.807883,95.1328244 174.734843,95.1551489 C174.671755,95.1744294 174.607197,95.1902062 174.54134,95.2022701 C174.439403,95.2209662 174.333968,95.2307692 174.226244,95.2307692 L174.226244,95.2307692 L174.076321,95.2243914 C174.074291,95.2242178 174.072261,95.2240408 174.070232,95.2238603 L174.226244,95.2307692 C174.160194,95.2307692 174.095005,95.2270838 174.03087,95.2199074 C173.992418,95.2156032 173.954412,95.2100562 173.916826,95.2033004 C173.901336,95.2005199 173.885545,95.1974564 173.869832,95.1941806 C173.833763,95.1866583 173.798232,95.1780531 173.763147,95.1683752 C173.752332,95.165392 173.741587,95.1623148 173.730884,95.1591373 C173.695882,95.1487417 173.661484,95.1373257 173.627582,95.1248832 C173.609575,95.1182822 173.591111,95.1111494 173.572802,95.1037134 C173.541742,95.0910906 173.511475,95.0777596 173.481675,95.0636054 C173.47062,95.0583551 173.459552,95.0529529 173.44855,95.0474373 C173.415962,95.0310987 173.383983,95.0137791 173.352628,94.9955059 C173.338533,94.9872925 173.324514,94.9788551 173.310626,94.9702272 C173.28659,94.9552955 173.262944,94.9397927 173.239709,94.9237384 C173.216989,94.9080415 173.194602,94.8917728 173.172628,94.8749918 C173.158897,94.8645079 173.145167,94.8536947 173.131606,94.8426811 C173.1068,94.8225276 173.08278,94.8019036 173.059344,94.7806485 C173.044759,94.7674325 173.029897,94.7534826 173.015283,94.7392779 C172.997392,94.7218896 172.979837,94.704079 172.96267,94.6858979 C172.94596,94.6681968 172.929764,94.6503129 172.913941,94.6320964 C172.897404,94.6130527 172.881401,94.5938055 172.865813,94.574214 C172.85336,94.5585706 172.840923,94.5423716 172.828767,94.5259507 C172.815156,94.5075536 172.802114,94.4891955 172.789426,94.4705779 L163.275688,100.312557 L163.276018,111.321267 L206.352941,111.321267 L206.352941,112.117647 L162.488688,112.117647 L162.488688,79.7375566 L163.276018,79.7375566 L163.275688,99.3775566 L172.501804,93.7077697 C172.499165,93.6863433 172.496917,93.6647962 172.495066,93.6431357 L172.488688,93.4932127 C172.488688,92.5335867 173.266618,91.7556561 174.226244,91.7556561 C175.18587,91.7556561 175.963801,92.5335867 175.963801,93.4932127 L175.957688,93.3595566 L188.37178,95.2732243 L188.381732,95.2492777 C188.395593,95.2166218 188.410424,95.1844773 188.426189,95.1528806 L188.37178,95.2732243 C188.393487,95.2198667 188.41777,95.1678312 188.444473,95.117272 C188.457447,95.0927117 188.470913,95.068635 188.484927,95.0449203 C188.497008,95.0244725 188.509565,95.004187 188.522522,94.9841848 C188.534741,94.9653148 188.547476,94.946471 188.560565,94.9278953 C188.573707,94.9092301 188.587594,94.8903304 188.601849,94.8717272 C188.616132,94.8531013 188.630367,94.8352745 188.64494,94.8177391 C188.660725,94.7987352 188.677189,94.7797632 188.69405,94.7611581 C188.707893,94.7458822 188.722064,94.730792 188.736498,94.7159588 C188.755305,94.6966334 188.774479,94.6778181 188.794079,94.6594519 C188.809793,94.6447164 188.826264,94.6298499 188.843017,94.6152989 C188.86161,94.5991596 188.880094,94.5837719 188.898897,94.5687662 C188.917722,94.5537337 188.93726,94.5387971 188.957117,94.5242718 C188.977434,94.5094193 188.997624,94.4953062 189.018121,94.4816173 C189.036719,94.4691914 189.055843,94.4569477 189.075218,94.4450732 C189.095993,94.4323452 189.116796,94.4201867 189.137868,94.4084539 C189.152133,94.4005101 189.166662,94.3926878 189.181313,94.3850681 C189.292557,94.3272237 189.410725,94.2810931 189.534305,94.2482407 C189.68339,94.2094396 189.830381,94.1900452 189.9819,94.1900452 C190.087538,94.1900452 190.190973,94.1994722 190.291411,94.2175307 C190.318358,94.2223685 190.345511,94.2279247 190.372426,94.234106 C190.393993,94.2390657 190.414937,94.2442995 190.435726,94.2499095 C190.460287,94.2565294 190.485105,94.263825 190.509686,94.2716526 C190.537465,94.2805029 190.564722,94.2899507 190.591662,94.3000482 C190.607507,94.3059872 190.623252,94.3121546 190.638882,94.3185432 C190.670096,94.3312963 190.701052,94.3450256 190.731517,94.3596167 C190.747349,94.3672034 190.762703,94.3748446 190.777926,94.3827042 C190.806358,94.3973745 190.834713,94.4130306 190.862571,94.4294415 C190.878789,94.4390018 190.894426,94.4485569 190.909898,94.4583498 C190.939452,94.4770407 190.968904,94.4969602 190.997695,94.5177399 C191.007701,94.5249655 191.017271,94.532027 191.026766,94.5391837 C191.093053,94.5891282 191.155882,94.6439425 191.214504,94.702942 C191.226074,94.7145874 191.237446,94.7263597 191.248652,94.7382904 L202.495269,88.2509719 L202.485213,88.2084845 C202.457866,88.0860478 202.443439,87.9587358 202.443439,87.8280543 L202.449353,87.9724461 C202.445436,87.9248337 202.443439,87.8766772 202.443439,87.8280543 C202.443439,86.8684283 203.221369,86.0904977 204.180995,86.0904977 L204.330919,86.0968756 C205.220354,86.1728885 205.918552,86.9189349 205.918552,87.8280543 C205.918552,88.7876803 205.140621,89.5656109 204.180995,89.5656109 L204.180995,89.5656109 Z" id="Combined-Shape" fill="#005249" fill-rule="nonzero"></path>
            <path d="M210.316742,129.520362 C210.316742,129.520362 197.746606,153.276018 195.393665,160.742081 C193.040724,168.208145 193.257919,190.208145 193.257919,190.208145 L200.099548,190.208145 C200.099548,190.208145 200.099548,168.00905 203.004525,164.271493 C205.909502,160.533937 222.099548,141.457014 222.099548,141.457014 L210.316742,129.520362 Z" id="Path" fill="#212B36" fill-rule="nonzero"></path>
            <path d="M208.923077,132.40724 C208.923077,132.40724 216.542986,163.176471 220.488688,170.063348 C224.434389,176.950226 235.221719,189.357466 235.221719,189.357466 L241.031674,186.244344 C241.031674,186.244344 226.090498,166.642534 226.923077,160.904977 C227.755656,155.167421 229.873303,133.21267 229.873303,133.21267 C229.873303,133.21267 219.348416,127.502262 208.923077,132.40724 Z" id="Path" fill="#212B36" fill-rule="nonzero"></path>
            <path d="M234.760181,88.1900452 C234.760181,88.1900452 240.832579,91.2941176 238.570136,98.760181 C236.307692,106.226244 229.149321,123.040724 229.927602,128.0181 C230.705882,132.995475 229.873303,133.158371 229.873303,133.158371 C229.873303,133.158371 213.900452,138.914027 208.923077,132.38009 C208.923077,132.38009 218.425339,98.760181 220.443439,94.561086 C222.461538,90.361991 228.226244,85.7104072 234.760181,88.1900452 Z" id="Path" fill="#FFC107" fill-rule="nonzero"></path>
            <path d="M231.61086,104.78733 C231.020782,106.624641 230.193271,108.377017 229.149321,110 C228.622779,110.970929 227.991571,111.881325 227.266968,112.714932 C225.21267,114.923077 222.135747,115.764706 219.384615,116.977376 C218.892262,117.170548 218.436304,117.44596 218.036199,117.791855 C217.626794,118.25659 217.302112,118.789558 217.076923,119.366516 C215.58371,122.633484 213.574661,125.945701 210.298643,127.420814 C211.647059,122.271493 213.013575,117.122172 214.552036,112.036199 C214.914413,110.127583 216.095249,108.47375 217.782805,107.511312 C221.221719,104.986425 224.633484,102.41629 228.108597,99.9366516 C229.294118,99.0859729 230.533937,98.1266968 231.538462,99.6651584 C232.41629,101.013575 232.0181,103.375566 231.61086,104.78733 Z" id="Path" fill="url(#linearGradient-10)" fill-rule="nonzero"></path>
            <path d="M223.466063,75.0678733 C223.122172,75.4208145 222.678733,75.7828054 222.678733,76.2714932 C222.736877,76.6391403 222.889698,76.9853271 223.122172,77.2760181 C224.171946,79.0859729 223.21267,81.6199095 224.479638,83.2579186 C224.951799,83.8183441 225.582932,84.2222697 226.289593,84.4162896 C227.00801,84.5134116 227.70353,84.7370812 228.343891,85.0769231 C228.829282,85.55497 229.105818,86.2056443 229.113122,86.8868778 C229.18552,87.7013575 229.040724,88.5158371 229.113122,89.3303167 C229.07612,89.8852543 229.329624,90.4196669 229.782805,90.7420814 C230.007737,90.8409651 230.252216,90.8873852 230.497738,90.8778281 C231.908496,90.941633 233.321755,90.8322193 234.705882,90.5520362 C234.904944,90.5260911 235.094545,90.4514939 235.257919,90.3348416 C235.418377,90.1475825 235.521991,89.9183756 235.556561,89.6742081 C236.153846,86.959276 236.769231,84.2443439 237.366516,81.5294118 C237.717304,80.5532504 238.156535,79.6111758 238.678733,78.7149321 C239.155015,77.3603169 239.315962,75.9148918 239.149321,74.4886878 C238.995024,73.4208668 238.632177,72.3938276 238.081448,71.4660633 C237.629904,70.5906461 236.971285,69.8388269 236.162896,69.2760181 C235.566745,68.9247677 234.923864,68.6596936 234.253394,68.4886878 C231.936652,67.7737557 228.316742,66.8144796 226.307692,68.8054299 C224.660633,70.4705882 225.20362,73.3393665 223.466063,75.0678733 Z" id="Path" fill="#FCBDBA" fill-rule="nonzero"></path>
            <path d="M223.221719,78.1085973 C223.719457,77.800905 225.330317,78.4434389 225.936652,78.4343891 C227.846154,78.3800905 229.402715,79.3393665 230.932127,78.1628959 C232.180995,77.2579186 232.678733,75.638009 233.113122,74.1538462 C233.122163,74.0726491 233.122163,73.9906994 233.113122,73.9095023 C233.095461,73.8055563 233.05531,73.7067222 232.995475,73.6199095 C232.289593,72.5882353 230.850679,72.479638 229.638009,72.1809955 C227.475087,71.5558422 225.531068,70.3361267 224.027149,68.6606335 C223.628498,68.3176551 223.360065,67.847898 223.266968,67.3303167 C223.312676,66.7236722 223.650127,66.1770022 224.171946,65.8642534 C225.71874,64.8867949 227.589588,64.5614299 229.375566,64.959276 C231.135902,65.3659225 232.872975,65.8674079 234.579186,66.4615385 C236.226244,66.9230769 237.927602,67.2036199 239.565611,67.7285068 C239.915289,67.8289106 240.247834,67.9814541 240.552036,68.1809955 C240.952142,68.4977415 241.263831,68.9122882 241.457014,69.3846154 C242.04525,70.589663 242.04525,71.9985723 241.457014,73.2036199 C241.338829,73.3779703 241.250161,73.5705925 241.19457,73.7737557 C241.185257,73.979111 241.212842,74.1844725 241.276018,74.3800905 C241.683258,76.1900452 240.78733,78 239.918552,79.5656109 L237.656109,83.7828054 C237.426613,84.2917434 237.086539,84.7431145 236.660633,85.1040724 C236.217707,85.4643071 235.589393,85.4864829 235.122172,85.158371 C234.651584,84.7511312 234.624434,83.9366516 234.072398,83.6651584 C233.693788,83.5410581 233.279677,83.5907514 232.941176,83.800905 C231.945701,84.280543 231.131222,85.040724 230.153846,85.6108597 C228.464091,86.5523353 226.473227,86.7959157 224.606335,86.2895928 C224.057736,86.1539798 223.545156,85.9007778 223.104072,85.5475113 C222.135747,84.7149321 222.199095,83.60181 222.39819,82.4705882 C222.597285,81.3393665 222.199095,78.7420814 223.221719,78.1085973 Z" id="Path" fill="#005249" fill-rule="nonzero"></path>
            <path d="M233.348416,99.9095023 C233.348416,99.9095023 226.81448,116.714932 200.877828,119.927602 L199.972851,116.307692 C199.972851,116.307692 217.294118,109.457014 221.031674,102.506787 C222.105656,100.55364 223.034263,98.5240122 223.809955,96.4343891 C224.986425,93.1764706 228.760181,91.4208145 231.782805,93.1131222 C233.574661,94.1176471 234.687783,96.1085973 233.348416,99.9095023 Z" id="Path" fill="#FFC107" fill-rule="nonzero"></path>
            <path d="M195.58371,115.556561 C195.613161,116.015538 195.805748,116.448859 196.126697,116.778281 C194.464363,117.398517 192.706342,117.723169 190.932127,117.737557 C190.608904,117.69999 190.283868,117.791 190.027149,117.99095 C189.683258,118.361991 189.954751,118.968326 190.271493,119.357466 C191.619419,120.878072 193.482961,121.845309 195.502262,122.072398 C196.817782,122.32797 198.181321,122.106596 199.348416,121.447964 C200.154081,120.843625 200.833544,120.087299 201.348416,119.221719 C201.453042,119.089367 201.532766,118.939117 201.58371,118.778281 C201.622634,118.46031 201.545513,118.138973 201.366516,117.873303 C201.158371,117.484163 200.868778,116.714932 200.461538,116.524887 C200.054299,116.334842 199.493213,116.524887 199.076923,116.452489 C197.882353,116.180995 196.81448,115.420814 195.58371,115.556561 Z" id="Path" fill="#FCBDBA" fill-rule="nonzero"></path>
            <path d="M245.846154,189.800905 C246.111498,189.991287 246.268854,190.297857 246.268854,190.624434 C246.268854,190.951012 246.111498,191.257582 245.846154,191.447964 C243.037388,194.473892 239.673195,196.93175 235.936652,198.687783 C234.904977,199.167421 233.484163,199.511312 232.778281,198.615385 C232.072398,197.719457 232.823529,196.361991 233.420814,195.330317 C234.227447,193.945562 234.721636,192.401222 234.868778,190.80543 C234.869712,190.258957 234.977304,189.717921 235.18552,189.21267 C235.918552,187.864253 239.520362,186.497612 241.013575,186.497612 C242.995475,186.479638 244.633484,188.425339 245.846154,189.800905 Z" id="Path" fill="#7A0C2E" fill-rule="nonzero"></path>
            <path d="M202.361991,195.076923 C202.506393,195.371377 202.496502,195.718063 202.335546,196.003805 C202.17459,196.289547 201.883223,196.47768 201.556561,196.506787 C197.61805,197.737709 193.479332,198.198591 189.366516,197.864253 C188.226244,197.764706 186.823529,197.357466 186.651584,196.226244 C186.479638,195.095023 187.809955,194.289593 188.841629,193.701357 C190.219772,192.896776 191.410625,191.807731 192.334842,190.506787 C192.602745,190.030267 192.966319,189.614313 193.402715,189.285068 C194.705882,188.470588 198.524887,189.040724 199.828054,189.791855 C201.547511,190.778281 202,193.276018 202.361991,195.076923 Z" id="Path" fill="#7A0C2E" fill-rule="nonzero"></path>
            <path d="M32.3891403,186.868778 C32.3504479,188.022973 32.563528,189.171753 33.0135747,190.235294 C33.5812173,191.226328 34.4364522,192.021602 35.4660633,192.515837 C37.6719579,193.665175 40.236538,193.918066 42.6244344,193.221719 C42.9484814,193.156644 43.2397029,192.980631 43.4479638,192.723982 C43.5713542,192.507255 43.6220976,192.256709 43.5927602,192.00905 C43.4115815,190.692003 42.7431492,189.490763 41.719457,188.642534 C40.6992764,187.81185 39.8272075,186.814325 39.1402715,185.692308 C38.0452489,183.466063 38.8597285,177.547511 34.6877828,178.524887 C31.2036199,179.312217 32.2895928,184.40724 32.3891403,186.868778 Z" id="Path" fill="#FBB9AD" fill-rule="nonzero"></path>
            <path d="M31.8099548,190.859729 C31.8099548,190.859729 31.2126697,192.325792 31.9457014,193.176471 C32.678733,194.027149 40.1809955,198.687783 45.2307692,194.932127 C50.280543,191.176471 38.3710407,190.696833 38.3710407,190.696833 L31.8099548,190.859729 Z" id="Path" fill="#B78103" fill-rule="nonzero"></path>
            <path d="M32.0995475,187.475113 C32.5718181,187.236818 33.1475,187.383636 33.4479638,187.819005 C34.4492737,188.959904 35.9681293,189.503819 37.4660633,189.257919 C39.1131222,188.868778 39.7647059,186.968326 40.5791855,186.95926 C41.3936652,186.950226 45.7556561,190.669683 46.0090498,192.262443 C46.2624434,193.855204 44.0271493,195.031674 41.5656109,195.18552 C39.1040724,195.339367 33.5113122,193.628959 32.4524887,192.334842 C31.5460581,190.870491 31.4142117,189.055067 32.0995475,187.475113 Z" id="Path" fill="#7A4F01" fill-rule="nonzero"></path>
            <path d="M18.081448,189.140271 C18.0330936,190.295172 18.2465635,191.446053 18.7058824,192.506787 C19.2736022,193.495543 20.129074,194.287881 21.158371,194.778281 C23.360907,195.927978 25.9228473,196.180929 28.3076923,195.484163 C28.6355796,195.422542 28.9307681,195.24607 29.1402715,194.986425 C29.2594898,194.771439 29.3100203,194.525103 29.2850679,194.280543 C29.1021949,192.964063 28.4340826,191.763397 27.4117647,190.914027 C26.3986422,190.079561 25.5276001,189.086267 24.8325792,187.972851 C23.7375566,185.755656 24.5520362,179.828054 20.3800905,180.80543 C16.8959276,181.60181 17.9819005,186.705882 18.081448,189.140271 Z" id="Path" fill="#FBB9AD" fill-rule="nonzero"></path>
            <path d="M17.5022624,193.149321 C17.5022624,193.149321 16.9049774,194.606335 17.638009,195.457014 C18.3710407,196.307692 25.8552036,200.968326 30.9049774,197.221719 C35.9547511,193.475113 24.0633484,192.986425 24.0633484,192.986425 L17.5022624,193.149321 Z" id="Path" fill="#B78103" fill-rule="nonzero"></path>
            <path d="M17.7918552,189.755656 C18.2667262,189.523307 18.8401293,189.673392 19.1402715,190.108597 C20.1364709,191.256989 21.6596296,191.802445 23.158371,191.547511 C24.7963801,191.149321 25.4570136,189.257919 26.2624434,189.248852 C27.0678733,189.239819 31.438914,192.950226 31.6923077,194.542986 C31.9457014,196.135747 29.7104072,197.312217 27.2488688,197.466063 C24.7873303,197.61991 19.2036199,195.918552 18.1447964,194.624434 C17.2337179,193.158276 17.1017564,191.337885 17.7918552,189.755656 Z" id="Path" fill="#7A4F01" fill-rule="nonzero"></path>
            <path d="M15.0859729,127.547511 C15.0859729,127.547511 14.3167421,170.41629 17.4841629,184.714932 L25.5475113,185.710407 L27.7466063,127.122172 L15.0859729,127.547511 Z" id="Path" fill="#212B36" fill-rule="nonzero"></path>
            <path d="M37.3574661,122.914027 C37.3574661,122.914027 43.7737557,145.99095 39.1674208,183.122172 L31.1040724,184.117647 L26.0271493,124.923077 L37.3574661,122.914027 Z" id="Path" fill="#212B36" fill-rule="nonzero"></path>
            <path d="M49.4208145,104.443439 C49.3303167,106 48.8325792,107.339367 47.4841629,107.791855 C47.3688488,107.830481 47.2508947,107.860726 47.1312217,107.882353 C44.6606335,108.38009 41.4117647,106.497738 39.158371,104.850679 C38.2137084,104.171277 37.3073467,103.440145 36.4434389,102.660633 L36.4434389,86.0723982 L48.5158371,98.39819 C49.1417084,100.351242 49.4473197,102.392726 49.4208145,104.443439 L49.4208145,104.443439 Z" id="Path" fill="#FFFFFF" fill-rule="nonzero"></path>
            <path d="M39.2488688,104.778281 C39.2488688,105.556561 39.3484163,106.334842 39.3484163,107.113122 C39.3484163,111.384615 38.361991,115.800905 39.6289593,120 C40.0457903,120.891909 40.1723953,121.892088 39.9909502,122.859729 C39.6200275,123.63626 38.9755162,124.248546 38.1809955,124.579186 C34.4072398,126.642534 30.0361991,127.294118 25.800905,127.873303 C22.5972851,128.325792 18.0542986,129.276018 15.0950226,127.547511 C13.8371041,126.81448 13.4117647,125.447964 13.0045249,124.081448 C11.8723551,119.665405 11.2050765,115.143076 11.0135747,110.588235 C11.0135747,109.99095 10.9230769,109.402715 10.8959276,108.778281 C10.6485671,104.687783 10.5641026,100.591252 10.6425339,96.4886878 C10.6968326,93.5113122 10.9321267,90.2986425 12.8778281,88.0542986 C15.4570136,85.0678733 20.4524887,83.0859729 24.2533937,82.3891403 C25.4820672,82.1350782 26.7416643,82.0649311 27.9909502,82.1809955 C29.7600914,82.4613972 31.4680798,83.0429703 33.040724,83.9004525 C34.9230769,84.8054299 36.5972851,85.6199095 37.5656109,87.4751131 C38.5820633,89.627957 39.29183,91.9126138 39.6742081,94.2624434 C40.0300217,96.4652971 40.0787509,98.7068415 39.8190045,100.923077 C39.7104072,102.00905 39.4298643,103.085973 39.321267,104.162896 C39.2788105,104.365451 39.2545809,104.571402 39.2488688,104.778281 L39.2488688,104.778281 Z" id="Path" fill="url(#linearGradient-11)" fill-rule="nonzero"></path>
            <path d="M21.7918552,129.004525 C20.5520362,129.366516 17.6923077,128.226244 16.7420814,128.099548 C16.1719457,128 15.6561086,127.710407 15.0859729,127.58371 C12.2533937,126.877828 11.918552,118.914027 11.6470588,116.769231 C10.9140271,111.113122 9.78280543,105.248869 9.70135747,99.5746606 C9.57408511,97.3845869 9.82824065,95.1890505 10.4524887,93.0859729 C11.0959315,90.9593668 12.6509851,89.2285821 14.6968326,88.361991 C18.3167421,87.0588235 19.3936652,98.5067873 19.8914027,100.877828 C20.3891403,103.248869 20.4524887,107.447964 22.0180995,109.348416 C23.5837104,111.248869 26.7149321,111.60181 28.760181,110.642534 C31.0078175,109.514208 32.3751344,107.163134 32.2443439,104.651584 C32.1207324,103.80013 32.0512115,102.941697 32.0361991,102.081448 C32.0380232,101.200096 32.5495113,100.399353 33.3484163,100.027149 C34.1012877,99.8388815 34.8959929,100.090947 35.4027149,100.678733 C35.8849102,101.272095 36.2309176,101.964109 36.4162896,102.705882 C36.884483,104.256376 37.1878204,105.85193 37.321267,107.466063 C37.6832579,111.294118 37.1040724,115.221719 38.0180995,118.959276 C38.4270529,120.121321 38.62325,121.347553 38.5972851,122.579186 C38.1685506,124.679626 36.3247294,126.190954 34.1809955,126.199095 C32.0635802,126.118528 30.1197786,125.006335 28.9773756,123.221719 C28.7966699,122.907164 28.553341,122.633034 28.2624434,122.41629 C27.9377748,122.253268 27.5749774,122.181334 27.2126697,122.208145 C25.4841629,122.208145 23.0045249,122.606335 22.4434389,124.542986 C22.0452489,125.927602 23.0045249,127.257919 22.2533937,128.687783 C22.1429448,128.845735 21.9789611,128.958273 21.7918552,129.004525 L21.7918552,129.004525 Z" id="Path" fill="#020202" fill-rule="nonzero" opacity="0.1"></path>
            <path d="M31.5837104,76.9411765 C31.2828478,77.5414717 30.7702031,78.0089778 30.1447964,78.2533937 C29.3819328,78.4257198 28.6557286,78.7321351 28,79.158371 L28,79.158371 C27.4683978,79.7344548 27.1298793,80.4621114 27.0316742,81.239819 L26.5158371,83.6470588 L26.2443439,84.8597285 C26.2089845,85.0789643 26.1354742,85.2903064 26.0271493,85.4841629 C25.717788,85.8295564 25.2684373,86.0159537 24.8054299,85.9909502 C23.8516549,86.0303589 22.907395,85.7879988 22.0904977,85.2941176 C21.9476165,85.231883 21.8297219,85.1235474 21.7556561,84.9864253 C21.6839843,84.8180311 21.665052,84.6318637 21.7013575,84.4524887 L22,80.9864253 C22.1659099,80.0387375 22.0164977,79.0627899 21.5746606,78.2081448 C20.5773693,76.3948782 19.8372407,74.4516601 19.3755656,72.4343891 C19.0487512,71.3004637 19.2357386,70.0802528 19.8871117,69.0962266 C20.5384848,68.1122003 21.5886884,67.4633928 22.760181,67.321267 C24.4531417,66.8014208 26.260361,66.7825628 27.9638009,67.2669683 C28.5972851,67.4841629 28.7873303,67.918552 29.0859729,68.4886878 C29.5294118,69.3936652 29.9909502,70.2986425 30.3257919,71.2036199 C30.6606335,72.1085973 31.1131222,73.3031674 31.4479638,74.3891403 C31.7947723,75.1967221 31.8428914,76.1013612 31.5837104,76.9411765 L31.5837104,76.9411765 Z" id="Path" fill="#FBB9AD" fill-rule="nonzero"></path>
            <path d="M57.2036199,94.39819 C57.3122172,94.2171946 57.520362,94.0361991 57.6923077,94.1447964 C57.7624305,94.2147422 57.8124439,94.3022655 57.8371041,94.39819 C58.0392216,94.7520335 58.4160317,94.9698228 58.8235294,94.9683258 C59.2126697,94.9683258 59.6199095,94.9049774 60.0180995,94.9049774 C61.0729579,94.9381919 62.0511914,95.4641599 62.6606335,96.3257919 C63.2588097,97.1856527 63.592273,98.2017719 63.6199095,99.2488688 C63.7264296,100.189967 63.467239,101.136012 62.8959276,101.891403 C61.9909502,102.950226 60.3529412,102.977376 58.9502262,102.932127 L57.6651584,102.932127 C57.0346704,103.014878 56.449869,102.589206 56.3348416,101.963801 C55.8099548,100.687783 54.8597285,99.4117647 55.5113122,98.1266968 C56.1628959,96.841629 56.4253394,95.3031674 57.2036199,94.39819 Z" id="Path" fill="#FBB9AD" fill-rule="nonzero"></path>
            <path d="M31.9457014,107.882353 L31.9457014,98.2895928 C31.9451866,97.5214851 32.4158301,96.8316869 33.1312217,96.5520362 L56.8868778,87.0950226 C58.1176471,86.6063348 60.6244344,88.0723982 60.6244344,89.3936652 L59.4570136,111.59276 C59.458257,112.350862 59.0003001,113.034219 58.2986425,113.321267 L35.6742081,123.746606 C34.4343891,124.253394 31.9095023,122.78733 31.9095023,121.457014 L31.9457014,107.882353 Z" id="Path" fill="#00AB55" fill-rule="nonzero"></path>
            <path d="M31.9457014,107.882353 L31.9457014,98.2895928 C31.9278567,97.5189805 32.4000305,96.8216162 33.1221719,96.5520362 L56.8868778,87.0950226 C58.1176471,86.6063348 60.6244344,88.0723982 60.6244344,89.3936652 L59.4570136,111.59276 C59.4557978,112.350114 58.9986736,113.032229 58.2986425,113.321267 L35.6742081,123.746606 C34.4434389,124.253394 31.918552,122.78733 31.918552,121.457014 L31.9457014,107.882353 Z" id="Path" fill="#005249" fill-rule="nonzero"></path>
            <path d="M33.1312132,108.443439 L33.1312132,98.8506787 C33.129523,98.0800506 33.5999307,97.3870071 34.3167421,97.1040724 L58.0723982,87.6561086 C58.6493775,87.4248912 59.3034728,87.494927 59.8184195,87.84306 C60.3333661,88.1911929 60.6420963,88.7720814 60.6425339,89.3936652 L60.6425339,112.180995 C60.6413182,112.938349 60.184194,113.620464 59.4841629,113.909502 L35.7285068,123.773756 C35.267824,123.964919 34.7499278,123.964473 34.2895747,123.772518 C33.8292216,123.580562 33.4644252,123.212948 33.2760181,122.751131 C33.1797332,122.525117 33.1304674,122.281867 33.1312132,122.036199 L33.1312132,108.443439 Z" id="Path" fill="#007B55"></path>
            <path d="M33.1312217,98.8506787 L49.4208145,107.230769 L60.1900452,88.2262443 C60.1900452,88.2262443 60.6063348,87.9819005 60.6063348,89.3936652 L60.6063348,112.180995 L33.1312217,120.723982 L33.1312217,98.8506787 Z" id="Path" fill="url(#linearGradient-12)" fill-rule="nonzero"></path>
            <path d="M27.4841629,68.3438914 C27.1489874,68.8516673 26.6241165,69.2037546 26.0271493,69.321267 C24.4162896,69.6651584 23.438914,68.8868778 22.6244344,70.760181 C22.3617734,71.4015818 22.2803799,72.1028181 22.3891403,72.7873303 C22.3891403,72.9321267 22.8959276,74.5339367 23.0226244,74.4524887 C22.6063348,74.7511312 22.280543,73.9366516 21.8280543,73.7013575 C21.3755656,73.4660633 20.7058824,74.1538462 20.8144796,74.7420814 C21.0033197,75.3196778 21.340319,75.8376583 21.7918552,76.2443439 C22.5153257,77.142375 22.9139779,78.2586009 22.9230769,79.4117647 C22.9230769,79.6742081 22.8235294,80.0271493 22.5520362,80.0363579 C22.280543,80.0452489 21.9819005,79.6651584 21.7737557,79.520362 C21.4422749,79.2981623 21.0943619,79.1015158 20.7330317,78.9321267 C19.6289593,78.4072398 17.9638009,78.2443439 17.040724,77.5022624 C16.564952,77.1063577 16.244417,76.5550373 16.1357466,75.9457014 C16.1357466,75.800905 16.1357466,74.2443439 16.4072398,74.3257919 C15.8534379,74.1609868 15.389076,73.7805805 15.1184942,73.2700488 C14.8479124,72.759517 14.7938035,72.1616766 14.9683258,71.6108597 L14.9683258,71.6108597 C15.0898711,71.2276602 15.311718,70.8839537 15.6108597,70.6153846 C14.479638,69.040724 15.0045249,66.7058824 16.361991,65.321267 C17.8190138,64.0191449 19.6628415,63.2307496 21.6108597,63.0769231 C23.7271734,62.7432402 25.8912541,62.8854512 27.9457014,63.4932127 C28.6584758,63.6903694 29.317442,64.0461492 29.8733032,64.5339367 C30.424626,65.0327492 30.6981861,65.7689972 30.6063348,66.5067873 C30.3620843,66.6062603 30.0821946,66.5531167 29.8914027,66.3710407 C30.1407653,67.0507539 29.7924907,67.8039988 29.1131222,68.0542986 C28.6134633,68.2359666 28.0535893,68.1004557 27.6923077,67.7104072 C27.6741601,67.9350902 27.6028138,68.152231 27.4841629,68.3438914 Z" id="Path" fill="#005249" fill-rule="nonzero"></path>
            <path d="M28.5158371,78.760181 L28.2443439,78.841629 C28.1629502,78.849957 28.0865916,78.8849547 28.0271493,78.9411765 C28.0092976,79.0032672 28.0092976,79.069131 28.0271493,79.1312217 C27.4955471,79.7073055 27.1570286,80.434962 27.0588235,81.2126697 L26.5429864,83.6199095 C25.6719579,82.08114 25.0143428,80.4310133 24.5882353,78.7149321 C25.8923589,78.8656308 27.2085877,78.8807947 28.5158371,78.760181 Z" id="Path" fill="#DC9F95" fill-rule="nonzero"></path>
            <path d="M29.8914027,107.972851 C30.2007715,107.592794 30.6795758,107.392443 31.1674208,107.438914 C31.4401924,107.576053 31.7005899,107.736531 31.9457014,107.918552 C32.176625,108.021531 32.4259286,108.076932 32.678733,108.081448 C33.7020482,108.154793 34.7292666,108.009811 35.6923077,107.656109 C36.1783137,107.419175 36.7085417,107.286618 37.2488688,107.266968 C37.9024774,107.394287 38.4677909,107.800916 38.7963801,108.38009 C39.7803111,109.791476 39.840606,111.649978 38.9502262,113.122172 C38.5459383,113.707782 38.0136339,114.193664 37.3936652,114.542986 C36.019484,115.262659 34.4923918,115.641328 32.9411765,115.647059 C31.4027149,115.719457 29.8371041,115.647059 28.3076923,115.719457 C27.9453846,115.785585 27.5714356,115.73488 27.239819,115.574661 C26.8683851,115.229291 26.6778932,114.731338 26.7239819,114.226244 C26.6696833,113.058824 26.4705882,112.072398 27.1493213,111.085973 C28.0023898,109.996122 28.9179545,108.956669 29.8914027,107.972851 Z" id="Path" fill="#FBB9AD" fill-rule="nonzero"></path>
            <path d="M12.8959276,88.0633484 C12.8959276,88.0633484 -4.10859729,110.298643 1.26696833,118.153846 C6.64253394,126.00905 29.321267,116.859729 29.321267,116.859729 L27.1131222,110.352941 C27.1131222,110.352941 11.1855204,112.371041 11.0678733,110.588235 C10.9502262,108.80543 21.1674208,98.5972851 21.1674208,98.5972851 C21.1674208,98.5972851 22.9954751,83.6561086 12.8959276,88.0633484 Z" id="Path" fill="url(#linearGradient-13)" fill-rule="nonzero"></path>
        </g>
    </g>
</svg>