<?xml version="1.0" encoding="UTF-8"?>
<svg width="355px" height="260px" viewBox="0 0 355 260" version="1.1" xmlns="http://www.w3.org/2000/svg" xmlns:xlink="http://www.w3.org/1999/xlink">
    <title>__🥭Illustrations/ illustration_maintenance</title>
    <defs>
        <linearGradient x1="19.4959033%" y1="70.8097699%" x2="77.4790349%" y2="18.2357903%" id="linearGradient-1">
            <stop stop-color="#00AB55" offset="0%"></stop>
            <stop stop-color="#00AB55" stop-opacity="0" offset="100%"></stop>
        </linearGradient>
        <filter x="-24.6%" y="-29.2%" width="149.3%" height="158.5%" filterUnits="objectBoundingBox" id="filter-2">
            <feOffset dx="12" dy="12" in="SourceAlpha" result="shadowOffsetOuter1"></feOffset>
            <feGaussianBlur stdDeviation="12" in="shadowOffsetOuter1" result="shadowBlurOuter1"></feGaussianBlur>
            <feColorMatrix values="0 0 0 0 0   0 0 0 0 0.321568627   0 0 0 0 0.28627451  0 0 0 0.32 0" type="matrix" in="shadowBlurOuter1" result="shadowMatrixOuter1"></feColorMatrix>
            <feMerge>
                <feMergeNode in="shadowMatrixOuter1"></feMergeNode>
                <feMergeNode in="SourceGraphic"></feMergeNode>
            </feMerge>
        </filter>
        <linearGradient x1="41.4799154%" y1="46.9513116%" x2="58.4778013%" y2="56.472831%" id="linearGradient-3">
            <stop stop-color="#000000" stop-opacity="0" offset="0%"></stop>
            <stop stop-color="#000000" offset="97%"></stop>
        </linearGradient>
        <linearGradient x1="49.107497%" y1="33.1130673%" x2="52.3205077%" y2="105.804328%" id="linearGradient-4">
            <stop stop-color="#000000" stop-opacity="0" offset="0%"></stop>
            <stop stop-color="#000000" offset="97%"></stop>
        </linearGradient>
        <linearGradient x1="49.3186243%" y1="35.4599863%" x2="52.3036989%" y2="98.4793835%" id="linearGradient-5">
            <stop stop-color="#000000" stop-opacity="0" offset="0%"></stop>
            <stop stop-color="#000000" offset="97%"></stop>
        </linearGradient>
        <linearGradient x1="50.3861438%" y1="49.6801538%" x2="48.157255%" y2="51.5364389%" id="linearGradient-6">
            <stop stop-color="#000000" stop-opacity="0" offset="0%"></stop>
            <stop stop-color="#000000" offset="97%"></stop>
        </linearGradient>
        <linearGradient x1="52.266946%" y1="25.141723%" x2="44.1418525%" y2="113.309891%" id="linearGradient-7">
            <stop stop-color="#000000" stop-opacity="0" offset="0%"></stop>
            <stop stop-color="#000000" offset="97%"></stop>
        </linearGradient>
        <linearGradient x1="87.6982939%" y1="23.9351655%" x2="-39.4343011%" y2="111.791043%" id="linearGradient-8">
            <stop stop-color="#000000" stop-opacity="0" offset="0%"></stop>
            <stop stop-color="#000000" offset="97%"></stop>
        </linearGradient>
        <linearGradient x1="50.1940192%" y1="49.8971742%" x2="48.9710168%" y2="50.5636377%" id="linearGradient-9">
            <stop stop-color="#000000" stop-opacity="0" offset="0%"></stop>
            <stop stop-color="#000000" offset="97%"></stop>
        </linearGradient>
        <linearGradient x1="0%" y1="50%" x2="100%" y2="50%" id="linearGradient-10">
            <stop stop-color="#000000" stop-opacity="0" offset="0%"></stop>
            <stop stop-color="#000000" offset="97%"></stop>
        </linearGradient>
        <linearGradient x1="50.1967537%" y1="49.8943243%" x2="48.9554903%" y2="50.5668063%" id="linearGradient-11">
            <stop stop-color="#000000" stop-opacity="0" offset="0%"></stop>
            <stop stop-color="#000000" offset="97%"></stop>
        </linearGradient>
        <linearGradient x1="54.5563072%" y1="50.8385285%" x2="31.8174066%" y2="46.6539231%" id="linearGradient-12">
            <stop stop-color="#000000" stop-opacity="0" offset="0%"></stop>
            <stop stop-color="#000000" offset="97%"></stop>
        </linearGradient>
        <linearGradient x1="50.3742739%" y1="49.9365457%" x2="49.6257261%" y2="50.0633729%" id="linearGradient-13">
            <stop stop-color="#000000" stop-opacity="0" offset="0%"></stop>
            <stop stop-color="#000000" offset="97%"></stop>
        </linearGradient>
        <linearGradient x1="49.9971576%" y1="-67.0687575%" x2="49.9971576%" y2="248.914355%" id="linearGradient-14">
            <stop stop-color="#000000" stop-opacity="0" offset="0%"></stop>
            <stop stop-color="#000000" offset="97%"></stop>
        </linearGradient>
        <linearGradient x1="49.9971576%" y1="-67.1080508%" x2="49.9971576%" y2="248.993644%" id="linearGradient-15">
            <stop stop-color="#000000" stop-opacity="0" offset="0%"></stop>
            <stop stop-color="#000000" offset="97%"></stop>
        </linearGradient>
        <linearGradient x1="52.3236124%" y1="43.7125001%" x2="42.2201317%" y2="71.0038328%" id="linearGradient-16">
            <stop stop-color="#000000" stop-opacity="0" offset="0%"></stop>
            <stop stop-color="#000000" offset="97%"></stop>
        </linearGradient>
        <linearGradient x1="49.8884198%" y1="50.0326634%" x2="50.3363134%" y2="49.9096953%" id="linearGradient-17">
            <stop stop-color="#000000" stop-opacity="0" offset="0%"></stop>
            <stop stop-color="#000000" offset="97%"></stop>
        </linearGradient>
        <linearGradient x1="49.8948326%" y1="49.248259%" x2="50.2984481%" y2="52.1620053%" id="linearGradient-18">
            <stop stop-color="#000000" stop-opacity="0" offset="0%"></stop>
            <stop stop-color="#000000" offset="97%"></stop>
        </linearGradient>
        <linearGradient x1="49.756554%" y1="25.5463845%" x2="51.6054991%" y2="100.936456%" id="linearGradient-19">
            <stop stop-color="#00AB55" offset="0%"></stop>
            <stop stop-color="#007B55" offset="100%"></stop>
        </linearGradient>
        <linearGradient x1="60.8787059%" y1="45.0008634%" x2="-12.8506212%" y2="70.9549301%" id="linearGradient-20">
            <stop stop-color="#000000" stop-opacity="0" offset="0%"></stop>
            <stop stop-color="#000000" offset="97%"></stop>
        </linearGradient>
        <linearGradient x1="49.887871%" y1="25.5463845%" x2="50.7394785%" y2="100.936456%" id="linearGradient-21">
            <stop stop-color="#00AB55" offset="0%"></stop>
            <stop stop-color="#007B55" offset="100%"></stop>
        </linearGradient>
        <linearGradient x1="46.6505636%" y1="48.4370711%" x2="65.6199678%" y2="63.0420911%" id="linearGradient-22">
            <stop stop-color="#000000" stop-opacity="0" offset="0%"></stop>
            <stop stop-color="#000000" offset="97%"></stop>
        </linearGradient>
        <linearGradient x1="49.6622116%" y1="49.6348204%" x2="52.2276766%" y2="50.7606627%" id="linearGradient-23">
            <stop stop-color="#00AB55" offset="0%"></stop>
            <stop stop-color="#007B55" offset="100%"></stop>
        </linearGradient>
        <linearGradient x1="52.3711605%" y1="33.3838316%" x2="45.6368076%" y2="80.5201563%" id="linearGradient-24">
            <stop stop-color="#000000" stop-opacity="0" offset="0%"></stop>
            <stop stop-color="#000000" offset="97%"></stop>
        </linearGradient>
        <linearGradient x1="52.2236504%" y1="35.2884993%" x2="45.9125964%" y2="77.0188936%" id="linearGradient-25">
            <stop stop-color="#000000" stop-opacity="0" offset="0%"></stop>
            <stop stop-color="#000000" offset="97%"></stop>
        </linearGradient>
        <linearGradient x1="50.3155022%" y1="49.1326908%" x2="49.0648627%" y2="52.5917448%" id="linearGradient-26">
            <stop stop-color="#000000" stop-opacity="0" offset="0%"></stop>
            <stop stop-color="#000000" offset="97%"></stop>
        </linearGradient>
        <linearGradient x1="50.3496106%" y1="48.8717622%" x2="48.9511682%" y2="53.3692792%" id="linearGradient-27">
            <stop stop-color="#000000" stop-opacity="0" offset="0%"></stop>
            <stop stop-color="#000000" offset="97%"></stop>
        </linearGradient>
        <linearGradient x1="51.3166144%" y1="44.9583178%" x2="47.8369906%" y2="58.3032387%" id="linearGradient-28">
            <stop stop-color="#000000" stop-opacity="0" offset="0%"></stop>
            <stop stop-color="#000000" offset="97%"></stop>
        </linearGradient>
        <linearGradient x1="50.193762%" y1="49.8933658%" x2="48.9707597%" y2="50.5598294%" id="linearGradient-29">
            <stop stop-color="#000000" stop-opacity="0" offset="0%"></stop>
            <stop stop-color="#000000" offset="97%"></stop>
        </linearGradient>
        <linearGradient x1="54.1109299%" y1="30.5646554%" x2="40.5872757%" y2="94.4407069%" id="linearGradient-30">
            <stop stop-color="#000000" stop-opacity="0" offset="0%"></stop>
            <stop stop-color="#000000" offset="97%"></stop>
        </linearGradient>
        <linearGradient x1="52.266946%" y1="25.1402716%" x2="44.1418525%" y2="113.329232%" id="linearGradient-31">
            <stop stop-color="#000000" stop-opacity="0" offset="0%"></stop>
            <stop stop-color="#000000" offset="97%"></stop>
        </linearGradient>
        <linearGradient x1="87.6982939%" y1="23.915058%" x2="-39.4343011%" y2="111.801544%" id="linearGradient-32">
            <stop stop-color="#000000" stop-opacity="0" offset="0%"></stop>
            <stop stop-color="#000000" offset="97%"></stop>
        </linearGradient>
        <linearGradient x1="49.9971576%" y1="-67.1080508%" x2="49.9971576%" y2="248.940678%" id="linearGradient-33">
            <stop stop-color="#000000" stop-opacity="0" offset="0%"></stop>
            <stop stop-color="#000000" offset="97%"></stop>
        </linearGradient>
        <linearGradient x1="50.3155022%" y1="49.1322481%" x2="49.0648627%" y2="52.5917448%" id="linearGradient-34">
            <stop stop-color="#000000" stop-opacity="0" offset="0%"></stop>
            <stop stop-color="#000000" offset="97%"></stop>
        </linearGradient>
    </defs>
    <g id="__🥭Illustrations/-illustration_maintenance" stroke="none" stroke-width="1" fill="none" fill-rule="evenodd">
        <g id="Group" fill="url(#linearGradient-1)" opacity="0.24">
            <g id="__🥭Illustrations/-X🩸Setup/-Shape_1">
                <path d="M0,143.563853 C0,173.505134 11.0533541,200.788998 29.2424179,221.409124 C50.1093161,245.072407 80.3684561,259.949979 114.09751,260 C128.838425,260.021266 142.933394,257.192761 155.880277,252.029215 C162.574474,249.358333 170.066969,249.664866 176.550515,252.829212 C184.15572,256.536129 192.671933,258.614538 201.664638,258.614538 C205.379404,258.614538 209.017217,258.257311 212.536101,257.579294 C222.580506,255.650588 231.7209,251.086644 239.227386,244.622508 C243.944883,240.558364 249.986917,238.515599 256.161871,238.522727 L256.266808,238.522727 C276.671206,238.522727 295.624366,232.216215 311.360238,221.409124 C325.428002,211.760049 336.915873,198.517323 344.570049,182.968863 C351.243259,169.419603 355,154.113519 355,137.913971 C355,82.3529783 310.792025,37.3052156 256.266808,37.3052156 C250.708261,37.3052156 245.262424,37.7836298 239.949508,38.6762999 C225.881744,15.4700447 200.68989,0 171.951947,0 C159.818909,0 148.316269,2.75721805 138.020015,7.69977496 C128.228236,12.384907 119.522359,19.0423094 112.400641,27.1555483 C88.218514,27.5484182 65.8584025,35.5982909 47.557406,49.0326992 C18.7495046,70.1676745 0,104.637257 0,143.563853 Z" id="background"></path>
            </g>
        </g>
        <g id="#gr" filter="url(#filter-2)" transform="translate(32.000000, 10.000000)">
            <g opacity="0.24" transform="translate(45.689278, 194.310722)" fill="#005249" fill-rule="nonzero" id="Path">
                <path d="M5.71378556,39.8179431 C13.4179431,40.521663 21.1536105,40.8210066 28.8840263,40.8682713 C35.5746171,40.8997812 42.4805252,40.6949672 48.5671772,37.916849 C51.9019694,36.3938731 54.9111597,34.1251641 58.4140044,33.043326 C61.712035,32.0245077 65.2411379,32.1137856 68.649453,31.6568928 C72.0577681,31.2 75.6603939,30.0026258 77.6612691,27.1929978 L64.595186,22.8498906 C62.9410757,22.2443663 61.2363057,21.7874176 59.5010941,21.4844639 C57.2848434,21.2420352 55.0475806,21.2649544 52.8367615,21.5527352 C44.4537862,22.3607546 36.1306561,23.700875 27.9177243,25.5649891 C23.3172867,26.6153173 20.9277899,29.3461707 16.9365427,31.1002188 C13.7225383,32.5129103 11.795186,31.3995624 8.53391685,31.3102845 C0.945295405,31.1054705 -4.46914661,38.8884026 5.71378556,39.8179431 Z"></path>
                <path d="M77.487965,5.64551422 C75.5658643,5.67702407 72.9820569,6.27571116 73.0081166,8.19781182 C79.9404814,10.345733 87.4030635,7.97199125 94.6608315,8.22932166 C104.418381,8.57592998 113.304158,13.6437637 121.738293,18.5750547 C118.415104,18.4939785 115.306872,20.2127425 113.608753,23.0704595 C132.614442,25.0765864 151.651641,20.2293217 170.757112,19.9194748 C190.755361,19.6148796 210.790372,24.3098468 230.625821,21.8468271 C230.279212,20.2345733 228.336105,19.6201313 226.708096,19.3733042 C218.363239,18.1129103 209.860832,18.6853392 201.442451,18.1444201 C193.02407,17.6035011 184.306346,15.77593 177.741794,10.4770241 C184.556615,8.85558336 191.141078,6.3855276 197.340919,3.12472648 C193.402188,1.27089716 188.807002,1.8380744 184.484902,2.35798687 C155.8024,5.82353644 126.785109,5.4349672 98.2056893,1.20262582 C97.2183807,3.17199125 100.227571,4.63719912 102.407002,4.81050328 L150.301969,8.61269147 C155.789934,9.04857768 161.724289,9.66301969 165.757549,13.4179431 C144.577681,17.4827133 115.473085,13.2814004 95.5221007,5.04682713 C92.2450766,3.69190372 97.5702407,-0.126039387 94.0358862,0.246827133 C89.9343545,0.677461707 82.419256,5.55623632 77.487965,5.64551422 Z"></path>
            </g>
            <path d="M73.8275711,99.3242888 C74.5078259,100.188004 74.8277279,101.281316 74.7203501,102.375492 C74.6678337,102.853392 74.5417943,103.326039 74.5155361,103.803939 C74.4660333,104.288347 74.6201208,104.771535 74.940919,105.137856 C75.2245077,105.410941 75.6708972,105.584245 75.7391685,105.967615 C75.8389497,106.492779 75.1877462,106.802626 74.8043764,107.180744 C74.4634684,107.601908 74.2292642,108.099142 74.121663,108.630197 C73.8837389,109.40619 73.5596163,110.153081 73.1553611,110.856893 C72.8038829,111.597526 72.200902,112.18934 71.4538293,112.526915 C70.9286652,112.715974 70.287965,112.668709 69.7890591,112.957549 C68.6126915,113.635011 68.8910284,115.58337 67.7986871,116.418381 C67.4852335,116.629338 67.12435,116.759257 66.7483589,116.796499 C65.8858703,116.926536 65.0041843,116.808128 64.2065646,116.455142 C63.8471661,116.317089 63.5365707,116.075921 63.3137856,115.761926 C63.1052279,115.337265 63.0301611,114.8594 63.0984683,114.391247 C63.1877462,112.815755 63.4030635,111.208753 63.350547,109.617505 C63.3242888,108.76674 63.2245077,107.915974 63.2350109,107.065208 C63.25835,104.510249 64.4121657,102.096851 66.3859956,100.474398 C68.4047642,98.8784062 71.108856,98.4486167 73.5229759,99.3400438 L73.0555799,98.8148796" id="Path" fill="#BA8B72"></path>
            <path d="M65.414442,103.656893 C64.6777643,103.848185 64.2174606,104.580068 64.3641138,105.326915 C64.5542983,106.049853 65.192795,106.564907 65.9396061,106.597812 L64.2643326,109.817068 C64.1225383,110.090153 63.8862144,110.415755 63.5868709,110.342232 C63.2875274,110.268709 63.2140044,109.859081 63.1562363,109.538731 C62.9776805,108.525164 62.1794311,107.747921 61.7277899,106.823632 C61.0660832,105.473961 61.2026258,103.887965 61.3181619,102.391247 C61.4389497,101.05733 61.5754923,99.6603939 62.3002188,98.531291 C62.725968,97.9240809 63.2494836,97.3916923 63.849453,96.9557987 C64.8492618,96.106773 66.0592267,95.5426065 67.3522976,95.3225383 C68.4428394,95.2454682 69.5379671,95.3810214 70.5768053,95.721663 C71.6193746,95.946233 72.5988686,96.4001012 73.4442013,97.0503282 C74.2918645,97.7285526 74.6688816,98.8370649 74.4105033,99.8914661 C72.8350109,100.101532 69.7733042,99.8914661 68.5391685,101.041575 C67.4888403,102.034136 68.2030635,104.19256 66.8428884,104.870022 C66.790372,103.961488 66.1706783,103.772429 65.414442,103.656893 Z" id="Path" fill="#25233A" fill-rule="nonzero"></path>
            <path d="M78.863895,98.0218818 C78.380744,97.7330416 76.2380744,96.8350109 75.7496718,96.5461707 C75.6551422,94.8446389 73.8223195,92.6231947 71.3067834,91.683151 C69.4266958,91.0056893 65.561488,91.0056893 62.4945295,93.3059081 C59.0126915,95.9317287 59.5010941,100.332604 59.4643326,101.482713 C59.4516542,101.982864 59.6950551,102.454912 60.109861,102.73464 C60.5246669,103.014368 61.0535311,103.063104 61.5124726,102.863895 C62.4423458,102.443641 63.3963171,102.078888 64.3693654,101.771554 L68.5706783,100.721225 C71.5378556,99.9334792 75.8862144,98.7886214 78.863895,98.0218818 Z" id="Path" fill="#00AB55" fill-rule="nonzero"></path>
            <polygon id="Path" fill="url(#linearGradient-3)" fill-rule="nonzero" points="78.2231947 97.7435449 65.8030635 100.957549 69.8993435 98.7781182 71.0231947 98.1846827 72.9242888 97.5229759 75.0617068 96.7877462 75.7496718 96.5461707"></polygon>
            <polygon id="Path" fill="#65657F" fill-rule="nonzero" points="65.8030635 101.372429 62.0901532 108.199562 61.2393873 106.119912 62.4105033 104.066521 61.0555799 103.089716 62.4945295 102.438512 63.4293217 103.184245 63.8126915 101.950109"></polygon>
            <path d="M59.9842451,102.632823 C59.9842451,102.632823 60.5724289,102.78512 62.0849015,102.107659 C63.2977273,101.618602 64.548215,101.228703 65.82407,100.941794 L71.0442013,98.1689278 C71.0442013,98.1689278 64.4061269,94.828884 60.4884026,98.6153173 C60.4673961,98.6258206 58.9444201,100.721225 59.9842451,102.632823 Z" id="Path" fill="#00AB55" fill-rule="nonzero"></path>
            <path d="M59.9054705,97.1291028 C59.9054705,97.1291028 62.7466083,92.2503282 67.2997812,92.2660451 C69.4474609,92.2830613 71.5191652,93.0629752 73.1448578,94.4665208 C73.1448578,94.4665208 65.3199125,89.545733 59.9054705,97.1291028 Z" id="Path" fill="url(#linearGradient-4)" fill-rule="nonzero"></path>
            <path d="M59.8004376,102.217943 C59.8004376,102.217943 59.852954,102.968928 61.1080963,102.480525 C62.3632385,101.992123 66.1444201,100.905033 66.1444201,100.905033 L67.8932166,99.8547046 C67.8932166,99.8547046 60.4936543,102.695842 59.8004376,102.217943 Z" id="Path" fill="url(#linearGradient-5)" fill-rule="nonzero"></path>
            <path d="M61.8170678,219.849453 C70.3888402,203.432034 75.5328728,185.443107 76.9365427,166.97593 C77.0625821,165.295405 77.1308534,163.48884 76.243326,162.055142 C74.547046,159.303282 70.5557987,159.466083 67.3628009,159.954486 C65.9133479,160.185558 64.2748359,160.547921 63.5501094,161.818818 C63.0249453,162.758862 57.4949672,166.161926 57.9991247,167.117724 C61.6752735,174.055142 63.1667396,182.951422 61.3286652,192.199562 C59.5221007,201.300656 56.2765864,208.028009 54.9741794,217.113348 C55.7146608,217.176368 61.5334792,220.38512 61.8170678,219.849453 Z" id="Path" fill="#212B36" fill-rule="nonzero"></path>
            <rect id="Rectangle" fill="#00AB55" fill-rule="nonzero" x="231.613129" y="62.883151" width="9.31115974" height="133.817068"></rect>
            <rect id="Rectangle" fill="url(#linearGradient-6)" fill-rule="nonzero" x="235.567615" y="62.883151" width="5.35667396" height="133.817068"></rect>
            <path d="M240.924289,91.3680525 C240.924289,91.0739606 274.387746,102.800875 274.387746,102.800875 L275.185996,114.296718 L240.183807,101.629759 L240.09453,91.3626121 L240.924289,91.3680525 Z" id="Path" fill="#00AB55" fill-rule="nonzero"></path>
            <path d="M240.089278,92.3553611 C240.089278,92.0612691 274.387746,104.407877 274.387746,104.407877 L275.185996,113.813567 L240.183807,101.146608 L240.089278,92.3553611 Z" id="Path" fill="url(#linearGradient-7)" fill-rule="nonzero"></path>
            <path d="M238.30372,93.6577681 C238.30372,93.3636761 271.761926,105.090591 271.761926,105.090591 L272.560175,115.851204 L237.557987,103.184245 L237.452954,93.6315098 L238.30372,93.6577681 Z" id="Path" fill="#00AB55" fill-rule="nonzero"></path>
            <path d="M237.468709,94.3929978 C237.468709,94.0989059 271.761926,106.445514 271.761926,106.445514 L272.560175,115.851204 L237.557987,103.184245 L237.468709,94.3929978 Z" id="Path" fill="url(#linearGradient-8)" fill-rule="nonzero"></path>
            <rect id="Rectangle" fill="#00AB55" fill-rule="nonzero" x="268.663457" y="74.2634573" width="9.31115974" height="137.897593"></rect>
            <rect id="Rectangle" fill="url(#linearGradient-9)" fill-rule="nonzero" x="269.72954" y="74.2634573" width="9.31115974" height="137.897593"></rect>
            <rect id="Rectangle" fill="#00AB55" fill-rule="nonzero" x="272.381619" y="74.2634573" width="1.31291028" height="137.897593"></rect>
            <polygon id="Path" fill="#00AB55" fill-rule="nonzero" points="272.455142 147.014442 272.455142 148.742232 272.292341 156.41488 237.705033 144.819256 237.647265 144.798249 238.093654 135.754923"></polygon>
            <polygon id="Path" fill="url(#linearGradient-10)" fill-rule="nonzero" points="272.292341 148.348359 272.292341 157.234136 237.705033 144.819256 238.093654 137.067834"></polygon>
            <rect id="Rectangle" fill="#00AB55" fill-rule="nonzero" x="134.694092" y="60.0367615" width="9.31115974" height="136.663457"></rect>
            <rect id="Rectangle" fill="url(#linearGradient-11)" fill-rule="nonzero" x="135.760175" y="60.0367615" width="9.31115974" height="136.663457"></rect>
            <rect id="Rectangle" fill="#00AB55" fill-rule="nonzero" x="140.418381" y="135.618381" width="92.3816193" height="8.70722101"></rect>
            <rect id="Rectangle" fill="url(#linearGradient-12)" fill-rule="nonzero" x="140.418381" y="135.618381" width="92.3816193" height="8.70722101"></rect>
            <rect id="Rectangle" fill="url(#linearGradient-13)" fill-rule="nonzero" x="143.915974" y="135.618381" width="87.6971554" height="1.19212254"></rect>
            <rect id="Rectangle" fill="#00AB55" fill-rule="nonzero" x="140.418381" y="90.9006565" width="92.3816193" height="8.70722101"></rect>
            <rect id="Rectangle" fill="url(#linearGradient-14)" fill-rule="nonzero" x="140.418381" y="90.9006565" width="92.3816193" height="8.70722101"></rect>
            <rect id="Rectangle" fill="#00AB55" fill-rule="nonzero" x="141.626258" y="93.1956236" width="92.3816193" height="8.70722101"></rect>
            <rect id="Rectangle" fill="url(#linearGradient-15)" fill-rule="nonzero" x="140.418381" y="91.9877462" width="92.3816193" height="9.91509847"></rect>
            <polygon id="Path" fill="#00AB55" fill-rule="nonzero" points="171.917724 103.588621 144.005252 93.1956236 144.005252 95.4643326 171.917724 105.852079"></polygon>
            <polygon id="Path" fill="url(#linearGradient-16)" fill-rule="nonzero" points="171.917724 103.588621 144.005252 93.1956236 144.005252 95.4643326 171.917724 105.852079"></polygon>
            <rect id="Rectangle" fill="#00AB55" fill-rule="nonzero" x="144.005252" y="93.1956236" width="87.6078775" height="1"></rect>
            <rect id="Rectangle" fill="#00AB55" fill-rule="nonzero" x="144.005252" y="90.2914661" width="87.6078775" height="1"></rect>
            <rect id="Rectangle" fill="#00AB55" fill-rule="nonzero" x="138.412254" y="60.0367615" width="5.59299781" height="136.663457"></rect>
            <rect id="Rectangle" fill="url(#linearGradient-17)" fill-rule="nonzero" x="138.412254" y="60.0367615" width="5.59299781" height="136.663457"></rect>
            <rect id="Rectangle" fill="#00AB55" fill-rule="nonzero" x="179.910722" y="149.330416" width="92.3816193" height="8.70722101"></rect>
            <rect id="Rectangle" fill="url(#linearGradient-18)" fill-rule="nonzero" x="179.910722" y="150.533042" width="92.3816193" height="7.49934354"></rect>
            <path d="M97.7435449,126.517287 C97.2183807,130.077899 95.7531729,133.607002 93.059081,135.970241 C90.3649891,138.333479 86.3422319,139.383807 83.0231947,137.981619 C79.55186,136.516411 77.5719912,132.908534 75.8599562,129.578993 C75.8231947,138.018381 79.2105033,146.384245 78.0341357,154.7186 C77.9468107,155.937755 77.5111588,157.106178 76.7789934,158.084902 C75.8757112,159.13523 74.4787746,159.571116 73.1501094,159.938731 C68.5093785,161.202011 63.7633417,162.040478 58.9706783,162.443764 C58.5085339,162.480525 58.0516411,162.522538 57.5894967,162.548796 C57.0328228,159.796937 56.8017505,156.210066 56.7597374,151.8407 C56.7597374,151.410066 56.7597374,150.963676 56.7597374,150.517287 C56.7597374,147.00919 56.8437637,143.03895 56.9750547,138.638074 C56.9750547,138.317724 56.9750547,137.997374 56.9750547,137.677024 C56.9750547,137.640263 56.9750547,137.608753 56.9750547,137.571991 C56.9750547,137.53523 56.9750547,137.456455 56.9750547,137.361926 C56.9750547,137.115098 56.9750547,136.731729 57.0065646,136.311597 C57.0065646,136.206565 57.0065646,136.09628 57.0065646,135.985996 C57.0065646,135.875711 57.0065646,135.765427 57.0065646,135.649891 C57.0065646,135.439825 57.0065646,135.229759 57.0065646,135.030197 C57.0065646,134.914661 57.0065646,134.793873 57.0065646,134.683589 C57.0065646,134.158425 57.0065646,133.7593 57.0065646,133.7593 C57.097593,131.028446 57.1851204,128.154048 57.2691466,125.136105 C57.2691466,124.747484 57.2691466,124.364114 57.2954048,123.970241 C57.3099018,122.899112 57.4366336,121.832452 57.673523,120.787746 C58.0480169,119.050185 59.0814595,117.525434 60.556674,116.533917 L60.556674,116.533917 C61.6597047,115.809776 62.8533491,115.234143 64.1067834,114.821882 C69.1273523,113.062582 75.0984683,114.11291 78.6905908,117.894092 C79.3088139,118.552265 79.8627521,119.267988 80.3448578,120.03151 C81.1431072,121.249891 81.804814,122.552298 82.4980306,123.844201 C83.1904,125.219226 84.0004219,126.531777 84.9190372,127.767177 C85.7487965,128.817505 86.956674,129.820569 88.2643326,129.589497 C90.1444201,129.253392 90.659081,126.837637 90.6800875,124.941794 C90.7180242,121.798294 90.5425664,118.655843 90.1549234,115.536105 C92.5562997,115.31619 94.9759456,115.404434 97.3549234,115.798687 C97.6521471,117.723342 97.8502203,119.662006 97.9483589,121.607002 C98.0283492,123.246591 97.9597983,124.890055 97.7435449,126.517287 L97.7435449,126.517287 Z" id="Path" fill="url(#linearGradient-19)" fill-rule="nonzero"></path>
            <path d="M67.6516411,141.773304 C66.2442013,144.068271 64.3273523,146.006127 62.4,147.865208 C61.4914661,148.731729 62.0218818,159.182495 61.0818381,160.022757 C60.7404814,160.327352 59.9054705,161.356674 58.9811816,162.438512 C58.5190372,162.475274 58.0621444,162.517287 57.6,162.543545 C57.043326,159.791685 56.8122538,156.204814 56.7702407,151.835449 C56.7702407,151.404814 56.7702407,150.958425 56.7702407,150.512035 C56.7702407,147.003939 56.854267,143.033698 56.985558,138.632823 C56.985558,138.312473 56.985558,137.992123 56.985558,137.671772 C56.985558,137.635011 56.985558,137.603501 56.985558,137.56674 C56.985558,137.529978 56.985558,137.451204 56.985558,137.356674 C56.985558,137.109847 56.985558,136.726477 57.0170678,136.306346 C57.0170678,136.201313 57.0170678,136.091028 57.0170678,135.980744 C57.0170678,135.87046 57.0170678,135.760175 57.0170678,135.644639 C57.0170678,135.434573 57.0170678,135.224508 57.0170678,135.024945 C57.0170678,134.909409 57.0170678,134.788621 57.0170678,134.678337 C57.0170678,134.153173 57.0170678,133.754048 57.0170678,133.754048 C57.673523,133.181619 58.1514223,135.581619 58.2722101,135.896718 C58.3121574,136.001046 58.3708968,136.097165 58.4455142,136.180306 C58.552473,136.26473 58.6880584,136.304276 58.8236324,136.290591 C59.4485296,136.19059 60.0118793,135.856336 60.3991247,135.355799 C61.4284464,134.326477 62.4070022,133.251641 63.3347921,132.131291 L69.5422319,134.105908 C69.9466083,136.773742 69.0643326,139.478337 67.6516411,141.773304 Z" id="Path" fill="url(#linearGradient-20)" fill-rule="nonzero"></path>
            <path d="M68.7964989,133.937856 C66.9741794,141.416193 61.5492341,148.642451 56.7649891,150.512035 C54.8061269,151.273523 52.9575492,151.142232 51.5133479,149.76105 C48.8875274,147.413567 48.3623632,138.732604 49.1658643,129.006565 C49.2562756,127.805862 49.4998255,126.621644 49.8905908,125.482713 C50.4490234,123.927694 51.2952774,122.491734 52.3851204,121.249891 C54.6273138,118.833386 57.5194821,117.115591 60.7142232,116.302845 L60.6669584,116.51291 L59.8161926,120.651204 L58.9181619,124.999562 L57.116849,133.743545 L56.0665208,138.779869 C56.0665208,139.352298 56.4183807,139.2 56.9540481,138.632823 C58.4507659,137.05733 61.433698,132.241575 62.6940919,131.238512 C62.7317938,131.210127 62.7669389,131.178496 62.7991247,131.143982 L68.7964989,133.937856 Z" id="Path" fill="url(#linearGradient-21)" fill-rule="nonzero"></path>
            <path d="M82.4980306,123.844201 C82.3247265,123.880963 82.140919,123.901969 81.9728665,123.928228 C78.1181619,124.38512 74.2266958,124.232823 70.3509847,124.316849 C66.4752735,124.400875 62.7256018,124.715974 58.9129103,124.999562 L57.3741794,125.12035 C54.8849015,125.288403 52.3851204,125.435449 49.8853392,125.482713 C50.4437718,123.927694 51.2900258,122.491734 52.3798687,121.249891 C52.7479316,121.165574 53.1218781,121.109395 53.4984683,121.081838 C54.9269147,120.966302 56.3501094,120.861269 57.7785558,120.771991 C58.4560175,120.724726 59.1334792,120.687965 59.8109409,120.651204 C64.3483589,120.388621 68.8805252,120.225821 73.4126915,120.06302 C75.7234136,119.984245 78.0341357,119.90547 80.3396061,120.03151 L80.3396061,120.03151 C81.1431072,121.249891 81.804814,122.552298 82.4980306,123.844201 Z" id="Path" fill="url(#linearGradient-22)" fill-rule="nonzero"></path>
            <path d="M72.0682713,188.308096 C77.750547,195.723414 83.1229759,204.06302 83.6218818,213.368928 C83.7164114,215.044201 83.9054705,217.123851 85.4704595,217.733042 C86.2213344,217.941373 87.016375,217.928608 87.7601751,217.69628 L93.5369803,216.504158 L89.9396061,200.397374 C89.0363239,196.332604 88.1172867,192.231072 86.4052516,188.434136 C85.2026258,185.771554 83.6271335,183.292779 82.3299781,180.666958 C79.0582057,174.039387 77.6612691,166.671335 76.2958425,159.403063 C69.5369803,159.844201 54.1864333,156.835011 58.009628,167.138731 C61.0450766,175.362801 67.7461707,180.950547 72.0682713,188.308096 Z" id="Path" fill="#454F5B" fill-rule="nonzero"></path>
            <path d="M87.4713348,219.928228 C87.5756532,220.301462 87.754279,220.649782 87.9964989,220.952298 C88.5024119,221.441948 89.2230322,221.639921 89.9080963,221.477462 C90.5804451,221.311695 91.2197401,221.032891 91.7986871,220.652954 C92.1227424,220.501314 92.4002101,220.265557 92.6021882,219.970241 C92.7938276,219.458814 92.7749431,218.892278 92.5496718,218.394748 L91.5991247,215.385558 C91.5700497,215.202687 91.4626545,215.041594 91.3050328,214.94442 C91.0975905,214.904939 90.8836529,214.965231 90.7273523,215.107221 C89.6770241,215.805689 88.1015317,215.894967 87.1352298,216.588184 C86.1689278,217.2814 87.0984683,218.883151 87.4713348,219.928228 Z" id="Path" fill="#B78103" fill-rule="nonzero"></path>
            <path d="M55.3785558,221.351422 C56.321974,221.972018 57.3645717,222.426711 58.4612691,222.695842 C58.6320552,222.750514 58.8156472,222.750514 58.9864333,222.695842 C59.238512,222.606565 59.3540481,222.322976 59.4380744,222.070897 L60.7982495,218.174179 C60.6354486,218.646827 57.8835886,216.262582 57.2323851,216.504158 C56.019256,216.982057 55.6148796,220.253829 55.3785558,221.351422 Z" id="Path" fill="#B78103" fill-rule="nonzero"></path>
            <path d="M91.3417943,218.568053 C91.930712,218.357733 92.5455736,218.228753 93.1693654,218.184683 C94.9181619,218.14267 96.5881838,219.429322 98.2897155,219.030197 C98.7301695,218.876847 99.1790445,218.748847 99.6341357,218.646827 C100.753429,218.604467 101.734623,219.388974 101.939606,220.490153 C102.103499,221.574971 101.751994,222.674153 100.989059,223.462582 C100.226655,224.232548 99.322524,224.847786 98.326477,225.274398 C96.2806714,226.280126 94.0878039,226.953763 91.8301969,227.270022 C91.2624762,227.384009 90.6750743,227.351476 90.1234136,227.175492 C89.6733554,226.970654 89.2789639,226.660904 88.9733042,226.27221 C87.8809628,225.022319 86.6415755,222.827133 86.8358862,221.083589 C87.0407002,219.240263 89.8765864,219.019694 91.3417943,218.568053 Z" id="Path" fill="#7A4F01" fill-rule="nonzero"></path>
            <path d="M60.1207877,221.881838 C60.3678753,221.951485 60.5995311,222.067313 60.8035011,222.223195 C61.0317734,222.479176 61.1972046,222.784864 61.2866521,223.115974 C61.8810534,224.685782 62.9035297,226.057574 64.2380744,227.075711 C64.7930984,227.418512 65.280767,227.859905 65.6770241,228.378118 C66.0697351,228.925672 65.9883361,229.680873 65.487965,230.132166 C65.1852489,230.299028 64.8397665,230.372146 64.4954048,230.342232 C63.356515,230.310617 62.2211882,230.200067 61.097593,230.011379 C58.0463895,229.570241 54.7956236,229.039825 52.5059081,226.97593 C51.8798649,226.487007 51.4570546,225.783571 51.3190372,225.001313 C51.2245077,224.003501 51.8442013,223.215755 52.3693654,222.438512 C52.7474836,221.871335 53.2358862,220.605689 53.8293217,220.232823 C55.1684902,219.408315 58.7501094,221.40919 60.1207877,221.881838 Z" id="Path" fill="#7A4F01" fill-rule="nonzero"></path>
            <path d="M127.205252,110.273961 C127.205252,110.273961 127.16849,110.846389 127.121225,111.723414 C126.963676,114.46477 126.632823,120.157549 126.596061,120.25733 C126.5593,120.357112 0.656455142,125.834573 0.656455142,125.834573 L0.131291028,118.482276 L0,117.059081 L7.35229759,116.99081 L127.205252,110.273961 Z" id="Path" fill="#00AB55" fill-rule="nonzero"></path>
            <path d="M127.121225,111.723414 C126.963676,114.46477 126.632823,120.157549 126.596061,120.25733 C126.5593,120.357112 0.656455142,125.834573 0.656455142,125.834573 L0.131291028,118.482276 L7.35229759,118.424508 L127.121225,111.723414 Z" id="Path" fill="#005249" fill-rule="nonzero"></path>
            <path d="M127.205252,113.797812 C127.205252,113.797812 127.16849,114.370241 127.121225,115.247265 C126.963676,117.993873 126.632823,123.686652 126.596061,123.781182 C126.5593,123.875711 0.656455142,129.34267 0.656455142,129.34267 L0.131291028,121.990372 L0,120.582932 L7.35229759,120.514661 L127.205252,113.797812 Z" id="Path" fill="url(#linearGradient-23)" fill-rule="nonzero"></path>
            <polygon id="Path" fill="#00AB55" fill-rule="nonzero" points="138.412254 146.4 179.275274 158.914661 179.249015 148.490153 138.412254 135.949234"></polygon>
            <polygon id="Path" fill="url(#linearGradient-24)" fill-rule="nonzero" points="179.275274 158.914661 179.270022 158.914661 138.412254 146.405252 138.412254 135.949234 179.249015 148.490153"></polygon>
            <polygon id="Path" fill="url(#linearGradient-25)" fill-rule="nonzero" points="179.270022 158.914661 138.412254 146.405252 138.412254 137.204376 179.249015 149.745295"></polygon>
            <rect id="Rectangle" fill="#00AB55" fill-rule="nonzero" x="179.910722" y="104.612691" width="92.3816193" height="8.43413567"></rect>
            <rect id="Rectangle" fill="url(#linearGradient-26)" fill-rule="nonzero" x="179.910722" y="105.852079" width="92.3816193" height="7.19474836"></rect>
            <rect id="Rectangle" fill="#00AB55" fill-rule="nonzero" x="179.910722" y="107.080963" width="92.3816193" height="9.64201313"></rect>
            <rect id="Rectangle" fill="url(#linearGradient-27)" fill-rule="nonzero" x="179.910722" y="108.32035" width="92.3816193" height="8.36061269"></rect>
            <path d="M67.4258206,133.018818 C68.7544858,131.411816 69.2743982,129.799562 69.8888403,127.803939 C70.0726477,127.205252 69.4897155,127.178993 68.8017505,128.817505 C68.9750547,127.656893 69.3269147,125.782057 69.3269147,125.335667 C68.7124726,124.76849 68.57593,125.803063 68.4026258,126.223195 C68.1302951,126.779275 67.8866494,127.348951 67.6726477,127.929978 C67.7776805,126.932166 67.7671772,126.46477 67.8722101,125.466958 C67.8722101,125.283151 67.8722101,125.031072 67.6884026,124.989059 C66.7431072,125.178118 67.1159737,127.378556 66.2757112,128.218818 C66.4122538,127.299781 66.5540481,125.125602 66.2757112,125.267396 C65.750547,125.267396 65.4984683,125.939606 65.4039387,126.470022 L64.8787746,129.447702 C64.5846827,129.358425 64.5269147,128.980306 64.4533917,128.680963 C64.3798687,128.381619 64.0595186,128.050766 63.8126915,128.234573 C63.7322366,128.304802 63.6799896,128.401832 63.6656455,128.507659 C63.6390477,128.884368 63.6673524,129.262944 63.7496718,129.63151 C63.8177778,130.359333 63.564569,131.080594 63.0564551,131.606127 C64.4466775,132.261502 65.9150614,132.736256 67.4258206,133.018818 Z" id="Path" fill="#BA8B72"></path>
            <polygon id="Path" fill="url(#linearGradient-28)" fill-rule="nonzero" points="138.412254 135.949234 147.723414 135.949234 171.917724 142.540044 171.917724 146.247702"></polygon>
            <rect id="Rectangle" fill="#00AB55" fill-rule="nonzero" x="138.412254" y="60.0367615" width="1.31291028" height="136.663457"></rect>
            <rect id="Rectangle" fill="#00AB55" fill-rule="nonzero" x="171.917724" y="74.1374179" width="9.31115974" height="137.897593"></rect>
            <rect id="Rectangle" fill="url(#linearGradient-29)" fill-rule="nonzero" x="172.983807" y="74.1374179" width="9.31115974" height="137.897593"></rect>
            <rect id="Rectangle" fill="#00AB55" fill-rule="nonzero" x="175.635886" y="74.1374179" width="1.31291028" height="137.897593"></rect>
            <polygon id="Path" fill="#00AB55" fill-rule="nonzero" points="139.725164 93.8678337 171.917724 105.852079 171.917724 116.680963 139.725164 102.701094"></polygon>
            <polygon id="Path" fill="url(#linearGradient-30)" fill-rule="nonzero" points="139.725164 95.254267 171.917724 107.243764 171.917724 116.680963 139.725164 102.701094"></polygon>
            <polygon id="Path" fill="#00AB55" fill-rule="nonzero" points="144.005252 93.1956236 171.917724 103.588621 171.917724 104.828009 144.005252 94.4665208"></polygon>
            <rect id="Rectangle" fill="#00AB55" fill-rule="nonzero" x="231.613129" y="2.8463895" width="9.31115974" height="81.8310722"></rect>
            <rect id="Rectangle" fill="url(#linearGradient-6)" fill-rule="nonzero" x="235.567615" y="2.8463895" width="5.35667396" height="133.817068"></rect>
            <path d="M240.924289,31.3260394 C240.924289,31.0371991 274.387746,42.7641138 274.387746,42.7641138 L275.185996,54.2442013 L240.183807,41.5772429 L240.09453,31.3050328 L240.924289,31.3260394 Z" id="Path" fill="#00AB55" fill-rule="nonzero"></path>
            <path d="M240.089278,32.3133479 C240.089278,32.0245077 274.387746,44.3921225 274.387746,44.3921225 L275.185996,53.7768053 L240.168053,41.1150985 L240.089278,32.3133479 Z" id="Path" fill="url(#linearGradient-31)" fill-rule="nonzero"></path>
            <path d="M238.30372,33.6210066 C238.30372,33.3269147 271.761926,45.0538293 271.761926,45.0538293 L272.560175,55.8196937 L237.557987,43.1527352 L237.468709,33.6210066 L238.30372,33.6210066 Z" id="Path" fill="#00AB55" fill-rule="nonzero"></path>
            <path d="M237.468709,34.3562363 C237.468709,34.0621444 271.761926,46.4350109 271.761926,46.4350109 L272.560175,55.8196937 L237.557987,43.1527352 L237.468709,34.3562363 Z" id="Path" fill="url(#linearGradient-32)" fill-rule="nonzero"></path>
            <rect id="Rectangle" fill="#00AB55" fill-rule="nonzero" x="268.663457" y="14.2266958" width="9.31115974" height="137.897593"></rect>
            <rect id="Rectangle" fill="url(#linearGradient-9)" fill-rule="nonzero" x="269.72954" y="14.2266958" width="9.31115974" height="137.897593"></rect>
            <rect id="Rectangle" fill="#00AB55" fill-rule="nonzero" x="272.381619" y="14.2266958" width="1.31291028" height="137.897593"></rect>
            <rect id="Rectangle" fill="#00AB55" fill-rule="nonzero" x="134.694092" y="0" width="9.31115974" height="136.663457"></rect>
            <rect id="Rectangle" fill="url(#linearGradient-11)" fill-rule="nonzero" x="135.760175" y="0" width="9.31115974" height="136.663457"></rect>
            <rect id="Rectangle" fill="#00AB55" fill-rule="nonzero" x="140.418381" y="30.863895" width="92.3816193" height="8.70722101"></rect>
            <rect id="Rectangle" fill="url(#linearGradient-14)" fill-rule="nonzero" x="140.418381" y="30.863895" width="92.3816193" height="8.70722101"></rect>
            <rect id="Rectangle" fill="#00AB55" fill-rule="nonzero" x="141.626258" y="33.1588621" width="92.3816193" height="8.70722101"></rect>
            <rect id="Rectangle" fill="url(#linearGradient-33)" fill-rule="nonzero" x="140.418381" y="31.9509847" width="92.3816193" height="9.91509847"></rect>
            <polygon id="Path" fill="#00AB55" fill-rule="nonzero" points="171.917724 43.55186 144.005252 33.1588621 144.005252 35.4223195 171.917724 45.8153173"></polygon>
            <polygon id="Path" fill="url(#linearGradient-16)" fill-rule="nonzero" points="171.917724 43.55186 144.005252 33.1588621 144.005252 35.4223195 171.917724 45.8153173"></polygon>
            <rect id="Rectangle" fill="#00AB55" fill-rule="nonzero" x="144.005252" y="33.1588621" width="87.6078775" height="1"></rect>
            <rect id="Rectangle" fill="#00AB55" fill-rule="nonzero" x="144.005252" y="30.2547046" width="87.6078775" height="1"></rect>
            <rect id="Rectangle" fill="#00AB55" fill-rule="nonzero" x="138.412254" y="0" width="5.59299781" height="136.663457"></rect>
            <rect id="Rectangle" fill="url(#linearGradient-17)" fill-rule="nonzero" x="138.412254" y="0" width="5.59299781" height="136.663457"></rect>
            <rect id="Rectangle" fill="#00AB55" fill-rule="nonzero" x="179.910722" y="44.57593" width="92.3816193" height="8.43413567"></rect>
            <rect id="Rectangle" fill="url(#linearGradient-34)" fill-rule="nonzero" x="179.910722" y="45.8153173" width="92.3816193" height="7.19474836"></rect>
            <rect id="Rectangle" fill="#00AB55" fill-rule="nonzero" x="179.910722" y="47.0442013" width="92.3816193" height="9.64201313"></rect>
            <rect id="Rectangle" fill="url(#linearGradient-27)" fill-rule="nonzero" x="179.910722" y="48.2835886" width="92.3816193" height="8.36061269"></rect>
            <rect id="Rectangle" fill="#00AB55" fill-rule="nonzero" x="138.412254" y="0" width="1.31291028" height="136.663457"></rect>
            <rect id="Rectangle" fill="#00AB55" fill-rule="nonzero" x="171.917724" y="14.1006565" width="9.31115974" height="137.897593"></rect>
            <rect id="Rectangle" fill="url(#linearGradient-29)" fill-rule="nonzero" x="172.983807" y="14.1006565" width="9.31115974" height="137.897593"></rect>
            <rect id="Rectangle" fill="#00AB55" fill-rule="nonzero" x="175.635886" y="14.1006565" width="1.31291028" height="137.897593"></rect>
            <polygon id="Path" fill="#00AB55" fill-rule="nonzero" points="139.725164 33.8310722 171.917724 45.8153173 171.917724 56.6442013 139.725164 42.6643326"></polygon>
            <polygon id="Path" fill="url(#linearGradient-30)" fill-rule="nonzero" points="139.725164 35.2175055 171.917724 47.2070022 171.917724 56.6442013 139.725164 42.6643326"></polygon>
            <polygon id="Path" fill="#00AB55" fill-rule="nonzero" points="144.005252 33.1588621 171.917724 43.55186 171.917724 44.7859956 144.005252 34.4245077"></polygon>
            <path d="M91.8669584,111.198249 C91.5910819,111.536958 91.3793008,111.923147 91.2420131,112.337856 C91.0922653,112.656564 91.0151364,113.00454 91.0161819,113.356674 C91.0240063,113.717002 91.2540431,114.034871 91.5938731,114.154923 C91.6826767,114.185913 91.7806126,114.176312 91.8617068,114.128665 C91.9177904,114.084729 91.9612707,114.026755 91.9877462,113.960613 C92.2720054,113.421638 92.5142985,112.861555 92.7124726,112.285339 C92.2753722,112.831974 92.1877497,113.579822 92.4866521,114.212691 C92.5916849,114.428009 92.7964989,114.638074 93.0118162,114.585558 C93.2271335,114.533042 93.3111597,114.301969 93.3689278,114.097155 C93.5054705,113.614004 93.6157549,113.125602 93.7050328,112.637199 C93.6317735,112.951397 93.5843505,113.271064 93.5632385,113.592998 C93.5464196,113.758479 93.5679849,113.925609 93.6262582,114.0814 C93.6911535,114.239526 93.8495327,114.338777 94.0201313,114.328228 C94.1606899,114.288067 94.2807959,114.19611 94.3562363,114.070897 C94.7284164,113.587008 95.0372615,113.057559 95.2752735,112.495405 C95.1624213,113.017423 95.1841068,113.55956 95.3382932,114.070897 C95.3603435,114.149405 95.4062175,114.219134 95.4695842,114.27046 C95.6849015,114.43326 95.9947484,114.191685 96.1207877,113.960613 C96.3970096,113.522866 96.60259,113.04436 96.7299781,112.54267 C96.8126419,112.277694 96.8306495,111.996775 96.7824945,111.723414 C96.7303605,111.441545 96.5292289,111.210244 96.2573304,111.119475 C95.9808184,111.049031 95.698653,111.212267 95.6218818,111.48709 C95.6691466,111.13523 95.2752735,110.851641 94.9234136,110.888403 C94.5738585,110.959118 94.2662793,111.1648 94.0673961,111.460832 C94.0398288,111.122872 93.7701245,110.855396 93.4319475,110.830635 C92.8175055,110.772867 92.371116,110.636324 91.8669584,111.198249 Z" id="Path" fill="#BA8B72"></path>
        </g>
    </g>
</svg>