<?xml version="1.0" encoding="UTF-8"?>
<svg width="355px" height="260px" viewBox="0 0 355 260" version="1.1" xmlns="http://www.w3.org/2000/svg" xmlns:xlink="http://www.w3.org/1999/xlink">
    <title>__🥭Illustrations/ illustration_seo</title>
    <defs>
        <linearGradient x1="19.4959033%" y1="70.8097699%" x2="77.4790349%" y2="18.2357903%" id="linearGradient-1">
            <stop stop-color="#00AB55" offset="0%"></stop>
            <stop stop-color="#00AB55" stop-opacity="0" offset="100%"></stop>
        </linearGradient>
        <filter x="-35.6%" y="-38.8%" width="171.1%" height="177.5%" filterUnits="objectBoundingBox" id="filter-2">
            <feOffset dx="12" dy="12" in="SourceAlpha" result="shadowOffsetOuter1"></feOffset>
            <feGaussianBlur stdDeviation="12" in="shadowOffsetOuter1" result="shadowBlurOuter1"></feGaussianBlur>
            <feColorMatrix values="0 0 0 0 0   0 0 0 0 0.321568627   0 0 0 0 0.28627451  0 0 0 0.32 0" type="matrix" in="shadowBlurOuter1" result="shadowMatrixOuter1"></feColorMatrix>
            <feMerge>
                <feMergeNode in="shadowMatrixOuter1"></feMergeNode>
                <feMergeNode in="SourceGraphic"></feMergeNode>
            </feMerge>
        </filter>
        <linearGradient x1="55.647854%" y1="21.7699098%" x2="45.0059063%" y2="112.994736%" id="linearGradient-3">
            <stop stop-color="#000000" offset="0%"></stop>
            <stop stop-color="#000000" stop-opacity="0.69" offset="8%"></stop>
            <stop stop-color="#000000" stop-opacity="0.32" offset="21%"></stop>
            <stop stop-color="#000000" stop-opacity="0" offset="100%"></stop>
        </linearGradient>
        <linearGradient x1="-32.1581978%" y1="19.9534504%" x2="215.481884%" y2="-174.062289%" id="linearGradient-4">
            <stop stop-color="#000000" offset="1%"></stop>
            <stop stop-color="#000000" stop-opacity="0.69" offset="8%"></stop>
            <stop stop-color="#000000" stop-opacity="0.32" offset="21%"></stop>
            <stop stop-color="#000000" stop-opacity="0" offset="100%"></stop>
        </linearGradient>
        <linearGradient x1="0%" y1="12.8711957%" x2="100%" y2="87.1288043%" id="linearGradient-5">
            <stop stop-color="#FFE16A" offset="0%"></stop>
            <stop stop-color="#B78103" offset="100%"></stop>
        </linearGradient>
        <filter x="-37.1%" y="-45.1%" width="174.2%" height="190.2%" filterUnits="objectBoundingBox" id="filter-6">
            <feOffset dx="4" dy="4" in="SourceAlpha" result="shadowOffsetOuter1"></feOffset>
            <feGaussianBlur stdDeviation="4" in="shadowOffsetOuter1" result="shadowBlurOuter1"></feGaussianBlur>
            <feColorMatrix values="0 0 0 0 0   0 0 0 0 0.321568627   0 0 0 0 0.28627451  0 0 0 0.32 0" type="matrix" in="shadowBlurOuter1" result="shadowMatrixOuter1"></feColorMatrix>
            <feMerge>
                <feMergeNode in="shadowMatrixOuter1"></feMergeNode>
                <feMergeNode in="SourceGraphic"></feMergeNode>
            </feMerge>
        </filter>
        <linearGradient x1="49.6622116%" y1="33.6306938%" x2="52.2276766%" y2="84.09698%" id="linearGradient-7">
            <stop stop-color="#00AB55" offset="0%"></stop>
            <stop stop-color="#007B55" offset="100%"></stop>
        </linearGradient>
    </defs>
    <g id="__🥭Illustrations/-illustration_seo" stroke="none" stroke-width="1" fill="none" fill-rule="evenodd">
        <g id="Group" fill="url(#linearGradient-1)" opacity="0.24">
            <g id="__🥭Illustrations/-X🩸Setup/-Shape_1">
                <path d="M0,143.563853 C0,173.505134 11.0533541,200.788998 29.2424179,221.409124 C50.1093161,245.072407 80.3684561,259.949979 114.09751,260 C128.838425,260.021266 142.933394,257.192761 155.880277,252.029215 C162.574474,249.358333 170.066969,249.664866 176.550515,252.829212 C184.15572,256.536129 192.671933,258.614538 201.664638,258.614538 C205.379404,258.614538 209.017217,258.257311 212.536101,257.579294 C222.580506,255.650588 231.7209,251.086644 239.227386,244.622508 C243.944883,240.558364 249.986917,238.515599 256.161871,238.522727 L256.266808,238.522727 C276.671206,238.522727 295.624366,232.216215 311.360238,221.409124 C325.428002,211.760049 336.915873,198.517323 344.570049,182.968863 C351.243259,169.419603 355,154.113519 355,137.913971 C355,82.3529783 310.792025,37.3052156 256.266808,37.3052156 C250.708261,37.3052156 245.262424,37.7836298 239.949508,38.6762999 C225.881744,15.4700447 200.68989,0 171.951947,0 C159.818909,0 148.316269,2.75721805 138.020015,7.69977496 C128.228236,12.384907 119.522359,19.0423094 112.400641,27.1555483 C88.218514,27.5484182 65.8584025,35.5982909 47.557406,49.0326992 C18.7495046,70.1676745 0,104.637257 0,143.563853 Z" id="background"></path>
            </g>
        </g>
        <g id="#gr" filter="url(#filter-2)" transform="translate(71.000000, 38.000000)">
            <path d="M21.4137184,167.427437 L20.3971119,167.363899 C17.0693141,167.101805 14.8375451,168.801444 12.033935,170.445487 C8.69819495,172.40722 4.88592058,173.487365 1.63754513,175.544404 C1.15306859,175.854152 0.61299639,176.425993 0.906859206,176.918412 C1.10541516,177.244043 1.55812274,177.291697 1.94729242,177.299639 C10.167509,177.458484 18.3638989,177.490253 26.568231,177.490253 L175.485199,177.490253 C180.914491,177.468141 186.336832,177.0994 191.719134,176.386282 C192.5188,176.362125 193.175707,175.747023 193.252319,174.950669 C193.32893,174.154314 192.801334,173.42526 192.020939,173.249097 C187.403851,171.66065 182.765584,170.175451 178.106137,168.793502 C166.26426,165.235379 152.968953,166.792058 140.777617,167.046209 C127.94296,167.324188 115.084477,167.641877 102.257762,166.815884 C93.0209386,166.220217 85.7696751,166.815884 76.501083,167.11769 C69.7422383,167.316245 63.0548736,167.911913 56.2722022,167.808664 L32.1833935,167.514801 C28.5935018,167.538628 24.9797834,167.641877 21.4137184,167.427437 Z" id="Path" fill="#005249"></path>
            <polygon id="Path" fill="#00AB55" fill-rule="nonzero" points="68.8209386 168.332852 129.332852 168.332852 118.626715 129.844765 77.8512635 129.844765"></polygon>
            <polygon id="Path" fill="url(#linearGradient-3)" fill-rule="nonzero" points="68.8209386 168.332852 129.332852 168.332852 118.626715 129.844765 77.8512635 129.844765"></polygon>
            <path d="M189.71769,27.0086643 L189.71769,126.286643 C189.682697,132.266019 184.816276,137.089814 178.836823,137.07225 L22.0411552,137.07225 C16.0511756,137.07225 11.1928792,132.22102 11.1841155,126.231047 L11.1841155,27.0086643 C11.1841155,21.0124868 16.0449778,16.1515983 22.0411552,16.1515983 L178.836823,16.1515983 C181.716291,16.1452984 184.480336,17.2830991 186.520896,19.3147222 C188.561456,21.3463452 189.711377,24.1053694 189.71769,26.9848375 L189.71769,27.0086643 Z" id="Path" fill="#00AB55" fill-rule="nonzero"></path>
            <path d="M189.71769,27.0166065 L189.71769,114.039711 L11.1841155,114.039711 L11.1841155,27.0166065 C11.1841155,21.0191429 16.0436933,16.1560087 22.0411552,16.1516216 L178.836823,16.1516216 C181.720502,16.1495174 184.48691,17.2930339 186.527469,19.3306135 C188.568027,21.368193 189.715584,24.1329275 189.71769,27.0166065 L189.71769,27.0166065 Z" id="Path" fill="#005249"></path>
            <path d="M187.033213,29.0577617 L187.033213,111.132852 L13.8924188,111.132852 L13.8924188,29.0577617 C13.9404623,23.2894829 18.6394905,18.6436915 24.4079422,18.6612193 L176.493863,18.6612193 C182.271595,18.630532 186.985147,23.280147 187.033213,29.0577617 Z" id="Path" fill="#FFFFFF" fill-rule="nonzero"></path>
            <path d="M187.033213,29.0577617 L187.033213,111.132852 L13.8924188,111.132852 L13.8924188,29.0577617 C13.9404623,23.2894829 18.6394905,18.6436915 24.4079422,18.6612193 L176.493863,18.6612193 C182.271595,18.630532 186.985147,23.280147 187.033213,29.0577617 Z" id="Path" fill="#00AB55" fill-rule="nonzero" opacity="0.18"></path>
            <path d="M52.0151625,137.072202 C53.4685921,130.337184 46.5588448,124.404332 46.8209386,117.518412 C46.93213,114.492419 48.4093863,111.712635 49.8866426,109.059928 C49.9736104,108.851886 50.1272771,108.678662 50.3234657,108.567509 C50.6252708,108.440433 50.9588448,108.631047 51.2527076,108.774007 C53.9927798,110.179783 57.4794224,108.186282 58.7978339,105.406498 C60.1162455,102.626715 59.8700361,99.3942238 59.5920578,96.3364621 C56.6196312,98.7332539 52.5991612,99.3741108 49.0288809,98.0202166 C47.2895307,97.3451264 45.6454874,96.1855596 43.7790614,96.1934612 C41.9126354,96.201444 40.1971119,97.4642599 38.8389892,98.8223827 C34.1768953,103.484477 31.5559567,109.885921 30.3566787,116.374729 C29.1574007,122.863538 29.4353791,130.376895 29.5624549,136.976895 L52.0151625,137.072202 Z" id="Path" fill="url(#linearGradient-4)" fill-rule="nonzero"></path>
            <line x1="159.989892" y1="63.8685921" x2="135.964621" y2="50.7718412" id="Path"></line>
            <path d="M62.6577617,57.3241877 L145.25704,57.3241877 C148.327504,57.3241877 150.816606,59.8132906 150.816606,62.8837545 L150.816606,62.8837545 C150.816606,65.9542185 148.327504,68.4433213 145.25704,68.4433213 L62.6577617,68.4433213 L62.6577617,57.3241877 Z" id="Path" fill="#00AB55" fill-rule="nonzero"></path>
            <rect id="Rectangle" fill="#FFFFFF" fill-rule="nonzero" x="62.6577617" y="57.3241877" width="66.6830325" height="11.0714801"></rect>
            <circle id="Oval" stroke="#FFFFFF" stroke-width="0.794223827" cx="139.228881" cy="62.232491" r="2.66859206"></circle>
            <line x1="141.67509" y1="66.5768953" x2="140.579061" y2="64.5357401" id="Path" stroke="#FFFFFF" stroke-width="0.794223827"></line>
            <path d="M44.2635379,167.943682 C44.2151605,168.485983 44.4000175,169.023223 44.7718412,169.420939 C44.9694448,169.557596 45.1943587,169.64973 45.4310469,169.690975 C46.0584891,169.813819 46.699329,169.853871 47.3371841,169.810108 C48.5288414,169.728181 49.712813,169.558284 50.8794224,169.301805 L52.8808664,168.920578 C53.1370211,168.911152 53.3769215,168.792647 53.5400722,168.594946 C53.669001,168.332391 53.6249551,168.017777 53.4288809,167.800722 C53.0868368,167.405675 52.6411947,167.114082 52.1422383,166.958845 C50.938976,166.469422 49.6987325,166.076369 48.433213,165.783394 C48.2236907,165.751435 48.0248779,165.669731 47.8534296,165.545126 C47.599278,165.322744 47.5516245,164.949458 47.3768953,164.663538 C47.0283228,164.146408 46.3938129,163.902121 45.7884477,164.051986 C45.2086643,164.163177 44.3747292,164.552347 44.2,165.187726 C44.1178639,166.105857 44.139177,167.030312 44.2635379,167.943682 Z" id="Path" fill="#BA8B72" fill-rule="nonzero"></path>
            <path d="M50.7444043,166.029603 C50.3274352,165.920383 49.8839901,166.044912 49.5848375,166.355235 C49.2512635,166.839711 49.6801444,167.618051 49.2909747,168.054874 C49.0462651,168.260883 48.726896,168.355831 48.4093863,168.316968 L46.201444,168.316968 C45.6073888,168.345121 45.0121738,168.297077 44.4303249,168.174007 C44.3001778,168.118468 44.1567041,168.101913 44.0173285,168.126354 C43.8158774,168.182864 43.6684561,168.355379 43.6440433,168.563177 C43.625031,168.765864 43.6549934,168.970153 43.7314079,169.158845 C43.8746923,169.56215 44.0811136,169.940142 44.3429603,170.2787 C44.414963,170.378574 44.5069151,170.462413 44.6129964,170.52491 C44.7384615,170.577259 44.8745729,170.599037 45.0101083,170.588448 C46.3205776,170.588448 47.6310469,170.636101 48.9812274,170.532852 C49.8945848,170.469314 50.8,170.342238 51.7054152,170.262816 C53.0209046,170.264705 54.3268043,170.038994 55.565343,169.595668 C55.8910131,169.485625 56.1577476,169.247572 56.3039711,168.936462 C56.3706513,168.66011 56.309397,168.368423 56.1371841,168.142238 C55.9612799,167.909285 55.7396666,167.714697 55.4859206,167.570397 C54.7705945,167.109205 53.9844679,166.76846 53.1588448,166.561733 C52.3666024,166.331479 51.5600392,166.153717 50.7444043,166.029603 L50.7444043,166.029603 Z" id="Path" fill="#7A4F01" fill-rule="nonzero"></path>
            <path d="M19.9920578,165.497473 L19.9920578,165.66426 C20.0714801,167.427437 22.3747292,167.47509 23.6693141,167.411552 C24.8579294,167.325712 26.0389789,167.155854 27.2036101,166.903249 L29.2129964,166.522022 C29.4672085,166.505149 29.7043176,166.388023 29.8722022,166.19639 C29.9925474,165.932524 29.9491915,165.622839 29.7610108,165.402166 C29.4179447,165.004573 28.9689911,164.712615 28.466426,164.560289 C27.3841516,164.14439 26.2813998,163.783875 25.1624549,163.480144 C24.1696751,163.186282 25.0036101,161.820217 25.1148014,161.097473 C25.1546712,160.951898 25.1546712,160.798282 25.1148014,160.652708 C25.001549,160.495826 24.8349224,160.385683 24.6462094,160.34296 C24.0679087,160.14387 23.4626462,160.034065 22.8512635,160.017329 C22.727502,160.000936 22.6017993,160.026076 22.4938628,160.088809 C22.3987808,160.162094 22.3270401,160.261428 22.2873646,160.374729 L20.3732852,164.464982 C20.1836692,164.782712 20.0544219,165.132757 19.9920578,165.497473 L19.9920578,165.497473 Z" id="Path" fill="#BA8B72" fill-rule="nonzero"></path>
            <path d="M20.833935,113.563177 C20.833935,113.563177 19.4043321,121.616606 22.3588448,127.652708 C23.9070003,130.898918 25.6385577,134.054436 27.5451264,137.103971 C27.5451264,137.103971 21.3978339,143.751625 21.3978339,152.138628 C21.3978339,160.525632 21.2389892,160.87509 21.2389892,160.87509 L24.93213,162.741516 L34.1451264,137.072202 C34.1451264,137.072202 34.701083,133.434657 34.1451264,132.20361 C33.5891697,130.972563 28.8635379,116.938628 28.8635379,116.938628 L20.833935,113.563177 Z" id="Path" fill="#212B36" fill-rule="nonzero"></path>
            <path d="M54.2231047,80.9126674 C52.3169675,80.9126674 50.2519856,78.8794224 49.0606498,75.7422383 C47.7263538,72.1126354 48.3061372,68.7848375 50.4108303,68.0064982 C52.5155235,67.2281588 55.1126354,69.3884477 56.4548736,73.0180505 L56.4548736,73.0180505 C57.7971119,76.6555957 57.2490975,79.9833935 55.1126354,80.7617329 C54.8270773,80.863075 54.5261086,80.9141322 54.2231047,80.9126674 Z M51.300361,69.5631724 C51.1978618,69.5628647 51.0959726,69.5789525 50.998556,69.6108303 C50.0137184,69.9761733 49.6642599,72.4223827 50.6729242,75.1703971 C51.6815884,77.9184116 53.53213,79.5306859 54.5169675,79.1415162 C55.5018051,78.7523466 55.8512635,76.3299639 54.8505415,73.5819495 L54.8505415,73.5819495 C53.9371841,71.1516245 52.3249097,69.5631724 51.300361,69.5631724 Z" id="Shape" fill="#292D32" fill-rule="nonzero"></path>
            <path d="M61.8,88.8945848 C61.5390413,88.8938247 61.2918289,88.7774895 61.1249097,88.5768953 L54.7711191,80.5711191 C54.6295129,80.3922593 54.5649897,80.1643579 54.5918176,79.9378112 C54.6186455,79.7112645 54.7346142,79.5047371 54.9140794,79.3638989 L54.9140794,79.3638989 C55.2806742,79.0733635 55.813138,79.1337094 56.1054152,79.498917 L56.1054152,79.498917 L62.4592058,87.5046931 C62.6644632,87.7602645 62.704435,88.1111003 62.5619279,88.4062936 C62.4194208,88.7014869 62.1198447,88.8884029 61.7920578,88.8866426 L61.8,88.8945848 Z" id="Path" fill="#292D32" fill-rule="nonzero"></path>
            <path d="M50.5617329,77.0288809 C50.6601754,77.8695789 50.6946908,78.7165344 50.6649819,79.5624549 C50.4970026,80.2125294 50.0955279,80.7779868 49.5371841,81.1509025 C48.979503,81.5258969 48.3576044,81.7951171 47.7025271,81.9451264 C47.4123382,81.968486 47.1483818,82.1221328 46.9847623,82.3629313 C46.8211428,82.6037298 46.7755007,82.9057185 46.8606498,83.1841155 L46.8606498,85.3523466 C46.8849506,85.5787908 46.8287116,85.8065588 46.7018051,85.9956679 C46.5985367,86.0972545 46.4694516,86.1686633 46.3285199,86.2021661 C45.2445498,86.4553093 44.1346538,85.8970183 43.6916968,84.8758123 C43.4534296,84.399278 43.1833935,83.9306859 42.8974729,83.4779783 C42.6168117,82.892091 42.4471601,82.2592636 42.3971119,81.6115523 C42.1848261,79.5329318 42.5763996,77.4371863 43.5249097,75.5754513 C44.1112409,74.3852406 44.9713323,73.3509535 46.034657,72.5574007 C46.8765343,71.9537906 48.5364621,71.0404332 49.4021661,72.0888087 C49.8310469,72.6129964 49.8231047,73.3833935 50.1963899,73.9314079 C50.4902527,74.3285199 50.9906137,74.598556 51.0779783,75.0830325 C51.165343,75.567509 50.8397112,75.8772563 50.6888087,76.3140794 C50.6068689,76.5435886 50.563917,76.7851929 50.5617329,77.0288809 Z" id="Path" fill="#BA8B72" fill-rule="nonzero"></path>
            <path d="M56.9234657,81.4050542 L56.9234657,81.2779783 C56.9314342,80.7812166 57.1142225,80.3031548 57.4397112,79.9277978 C57.7850869,79.553574 58.3460417,79.4739118 58.7819495,79.7371841 C58.9566787,79.8563177 59.0758123,80.0389892 59.266426,80.1263538 C59.4570397,80.2137184 59.8700361,80.1263538 60.0606498,80.3646209 C60.2512635,80.6028881 60.2115523,80.7776173 60.3068592,80.9841155 C60.4021661,81.1906137 60.6801444,81.365343 60.8628159,81.5638989 C61.7602888,82.532852 60.767509,84.2642599 60.4101083,85.2490975 C59.8700361,86.7263538 59.3537906,88.2115523 58.901083,89.7205776 C58.3741263,89.8001239 57.8358321,89.6963902 57.3761733,89.4267148 C57.2068773,89.3264696 57.0563661,89.1974601 56.9314079,89.0454874 C56.6376817,88.5168937 56.574488,87.8907014 56.7566787,87.3140794 C56.8675086,86.8785153 56.8997827,86.4266781 56.8519856,85.9797834 C56.7254726,85.4956656 56.5662623,85.0206882 56.3754513,84.5581227 C56.2404332,84.1689531 56.1292419,83.6765343 56.4389892,83.398556 C56.5422383,83.3032491 56.6931408,83.2476534 56.7805054,83.1364621 C56.8555831,83.0207453 56.8943086,82.8852062 56.8916968,82.7472924 C56.9393502,82.2707581 56.899639,81.8577617 56.9234657,81.4050542 Z" id="Path" fill="#BA8B72" fill-rule="nonzero"></path>
            <path d="M39.4108303,117.041877 L48.3458484,137.072202 L47.9725632,165.561011 L43.8743682,165.259206 C43.8743682,165.259206 36.8613718,149.05704 41.3725632,139.049819 C41.3725632,139.049819 30.5393502,129.78917 26.5364621,124.515523 C21.6202166,118.026715 22.73213,112.602166 22.73213,112.602166 L39.4108303,117.041877 Z" id="Path" fill="#212B36" fill-rule="nonzero"></path>
            <path d="M43.5487365,82.4137184 C44.6492352,82.6604111 45.7159204,83.0390844 46.7256318,83.5415162 C50.1566787,85.1299639 50.3075812,87.8303249 51.4909747,91.0787004 C52.2523516,93.1455935 53.1219039,95.1710141 54.0960289,97.1465704 L55.73213,87.3617329 L60.3227437,89.2122744 C60.3227437,89.2122744 60.7754513,103.667148 57.4079422,105.605054 C55.2397112,106.859928 52.2057762,105.398556 50.2599278,104.389892 C49.5451264,104.024549 48.3617329,102.920578 47.5913357,102.801444 C46.1220217,102.602888 46.0028881,104.342238 44.73213,105.366787 C43.8821733,105.8575 43.0674442,106.406845 42.2938628,107.01083 C41.5703885,107.857431 41.0296055,108.84436 40.7054152,109.909747 C40.3384702,111.221233 40.2305634,112.59165 40.3877256,113.944404 C40.4512635,114.873646 40.5148014,115.929964 39.8555957,116.573285 C39.4792386,116.898975 39.0150419,117.106206 38.5212996,117.168953 C36.889529,117.404653 35.2310773,117.385899 33.6050542,117.113357 C30.3797108,116.859154 27.1873369,116.287187 24.0743682,115.405776 C22.9491596,115.05239 21.8503835,114.619781 20.7862816,114.111191 C20.5534743,114.013364 20.3407553,113.873346 20.1588448,113.698195 C19.962219,113.472843 19.8304576,113.19834 19.7776173,112.903971 C19.3566787,110.934296 20.7783394,109.107581 21.4931408,107.225271 C21.9696751,105.954513 22.1285199,104.580505 22.565343,103.293863 C23.0418773,101.856318 23.9314079,100.911191 24.7256318,99.6404332 C25.3689531,98.6397112 25.7263538,97.4563177 26.3696751,96.4238267 C28.0880474,93.7748036 30.0021726,91.2580342 32.0960289,88.8945848 C33.3250378,87.3718428 34.6915699,85.9654313 36.1783394,84.6931408 C37.8802986,83.2006379 40.0544883,82.3568385 42.3176895,82.3104693 C42.7300968,82.3128714 43.1416906,82.3473921 43.5487365,82.4137184 Z" id="Path" fill="url(#linearGradient-5)"></path>
            <path d="M39.9509025,65.5920578 C37.2589014,65.7414517 34.9316053,67.5207782 34.0815884,70.0794224 C33.7241877,71.000722 33.867148,72.1602888 33.7241877,73.1530686 C33.660189,74.275142 33.2016568,75.3384866 32.4296029,76.1552347 C31.4765343,77.0288809 30.0469314,77.1638989 28.831769,77.4815884 C26.8859206,77.9740072 24.9480144,79.133574 24.233213,81.0158845 C23.5184116,82.8981949 24.1220217,84.8202166 23.8043321,86.7025271 C23.5421787,88.2695104 22.6894875,89.6764508 21.4216606,90.633935 C20.5480144,91.2772563 19.5075812,91.6823105 18.6021661,92.2938628 C17.0262104,93.4795123 15.9859682,95.2427934 15.7104002,97.1956025 C15.4348322,99.1484115 15.9465245,101.130692 17.132852,102.706137 L17.2440433,102.849097 C17.5788851,103.186772 17.8894081,103.547722 18.1732852,103.929242 C18.4326494,104.374634 18.6685901,104.833261 18.8801444,105.303249 C20.1427137,107.501928 22.5448192,108.79229 25.0750903,108.631047 C27.5776312,108.423821 29.8656153,107.136286 31.3415162,105.104693 C32.7314079,103.254152 33.4938628,100.935018 35.1776173,99.3545126 C36.3536723,98.4359316 37.5901549,97.5974585 38.8787004,96.8447653 C40.8880866,95.4151625 42.4527076,93.1198556 42.333574,90.6577617 C42.2223827,88.6086643 40.498917,86.3768953 42.0953069,84.5581227 C42.6904674,83.9705329 43.3513896,83.4535211 44.0649819,83.0173285 C44.7830901,82.576351 45.3699728,81.9510741 45.7646209,81.2064982 C46.5588448,79.4909747 45.4072202,77.3227437 46.3205776,75.6469314 C46.9956679,74.4476534 48.5046931,74.0028881 49.4974729,73.0101083 C50.5801137,71.7927733 50.8389124,70.0497797 50.1566787,68.5703971 C49.4511585,67.1178917 48.1301951,66.0593713 46.5588448,65.6873646 C45.4077226,65.4481198 44.2288569,65.370598 43.0563177,65.4570397 L41.0548736,65.5205776 C40.6853418,65.495265 40.3140847,65.5193032 39.9509025,65.5920578 Z" id="Path" fill="#B72136" fill-rule="nonzero"></path>
            <path d="M26.6873646,163.281588 C26.2718335,163.170377 25.8286207,163.291805 25.5277978,163.599278 C25.1942238,164.091697 25.6231047,164.862094 25.233935,165.306859 C24.9837675,165.507945 24.6630446,165.59958 24.3444043,165.561011 L22.1126354,165.561011 C21.5186527,165.585191 20.9239308,165.537187 20.3415162,165.418051 C20.207169,165.368102 20.0632859,165.349099 19.9205776,165.362455 C19.722206,165.426372 19.5794088,165.600212 19.5552347,165.80722 C19.5320681,166.007404 19.5622068,166.210156 19.6425993,166.394946 C19.785857,166.800707 19.992246,167.18132 20.2541516,167.522744 C20.3238029,167.624687 20.4162621,167.708988 20.5241877,167.768953 C20.6506581,167.817672 20.7859421,167.839317 20.9212996,167.832491 C22.231769,167.832491 23.5422383,167.880144 24.8924188,167.776895 C25.7978339,167.705415 26.7032491,167.578339 27.6166065,167.506859 C28.9317593,167.504826 30.2369961,167.279229 31.4765343,166.839711 C31.8021763,166.728451 32.066876,166.486769 32.2072202,166.172563 C32.2761415,165.897399 32.2178275,165.605829 32.0483755,165.378339 C31.8721562,165.147793 31.6504952,164.955867 31.3971119,164.81444 C30.6817858,164.353248 29.8956593,164.012504 29.0700361,163.805776 C28.2889955,163.575746 27.4928315,163.40059 26.6873646,163.281588 Z" id="Path" fill="#7A4F01" fill-rule="nonzero"></path>
            <g id="Group" filter="url(#filter-6)" transform="translate(109.794946, 76.631769)" fill-rule="nonzero">
                <rect id="Rectangle" fill="#FFFFFF" x="-7.10542736e-15" y="4.61852778e-14" width="61.5444043" height="50.3537906" rx="7.2433213"></rect>
                <path d="M38.3927798,17.0187726 C38.3927798,15.9142031 39.2882103,15.0187726 40.3927798,15.0187726 L41.5393502,15.0187726 C42.6439197,15.0187726 43.5393502,15.9142031 43.5393502,17.0187726 L43.5393502,41.9032491 L52.8158845,41.9032491 L52.8158845,42.6974729 L9.03826715,42.6974729 L9.03826715,10.3805054 L9.83249097,10.3805054 L9.83249097,41.9032491 L16.3689531,41.9032491 L16.3689531,28.5111913 C16.3689531,27.4066218 17.2643836,26.5111913 18.3689531,26.5111913 L19.5155235,26.5111913 C20.620093,26.5111913 21.5155235,27.4066218 21.5155235,28.5111913 L21.5155235,41.9032491 L26.8685921,41.9032491 L26.8685921,21.8 C26.8685921,20.6954305 27.7640226,19.8 28.8685921,19.8 L30.0151625,19.8 C31.119732,19.8 32.0151625,20.6954305 32.0151625,21.8 L32.0151625,41.9032491 L38.3927798,41.9032491 L38.3927798,17.0187726 Z" id="Combined-Shape" fill="#00AB55"></path>
            </g>
            <rect id="Rectangle" fill="url(#linearGradient-7)" fill-rule="nonzero" x="2.25703971" y="0.418050542" width="61.5444043" height="50.3537906" rx="4.72563177"></rect>
            <rect id="Rectangle" fill="#005249" opacity="0.48" x="10.3263538" y="10.8462094" width="45.1277978" height="2.83537906" rx="1"></rect>
            <rect id="Rectangle" fill="#005249" opacity="0.48" x="10.3263538" y="19.3444043" width="28.099639" height="2.83537906" rx="1"></rect>
            <rect id="Rectangle" fill="#005249" opacity="0.48" x="10.3263538" y="27.8425993" width="45.1277978" height="2.83537906" rx="1"></rect>
            <rect id="Rectangle" fill="#005249" opacity="0.48" x="10.3263538" y="36.3407942" width="28.099639" height="2.83537906" rx="1"></rect>
        </g>
    </g>
</svg>