<?xml version="1.0" encoding="UTF-8"?>
<svg width="355px" height="260px" viewBox="0 0 355 260" version="1.1" xmlns="http://www.w3.org/2000/svg" xmlns:xlink="http://www.w3.org/1999/xlink">
    <title>__🥭Illustrations/ illustration_motivation</title>
    <defs>
        <linearGradient x1="19.4959033%" y1="70.8097699%" x2="77.4790349%" y2="18.2357903%" id="linearGradient-1">
            <stop stop-color="#00AB55" offset="0%"></stop>
            <stop stop-color="#00AB55" stop-opacity="0" offset="100%"></stop>
        </linearGradient>
        <filter x="-27.4%" y="-40.8%" width="154.8%" height="181.7%" filterUnits="objectBoundingBox" id="filter-2">
            <feOffset dx="12" dy="12" in="SourceAlpha" result="shadowOffsetOuter1"></feOffset>
            <feGaussianBlur stdDeviation="12" in="shadowOffsetOuter1" result="shadowBlurOuter1"></feGaussianBlur>
            <feColorMatrix values="0 0 0 0 0   0 0 0 0 0.321568627   0 0 0 0 0.28627451  0 0 0 0.32 0" type="matrix" in="shadowBlurOuter1" result="shadowMatrixOuter1"></feColorMatrix>
            <feMerge>
                <feMergeNode in="shadowMatrixOuter1"></feMergeNode>
                <feMergeNode in="SourceGraphic"></feMergeNode>
            </feMerge>
        </filter>
        <linearGradient x1="50%" y1="0%" x2="50%" y2="100%" id="linearGradient-3">
            <stop stop-color="#C8FACD" offset="0%"></stop>
            <stop stop-color="#007B55" offset="100%"></stop>
        </linearGradient>
        <linearGradient x1="50%" y1="-2.48949813e-15%" x2="50%" y2="100%" id="linearGradient-4">
            <stop stop-color="#C8FACD" offset="0%"></stop>
            <stop stop-color="#007B55" offset="100%"></stop>
        </linearGradient>
        <linearGradient x1="50%" y1="0%" x2="50%" y2="100%" id="linearGradient-5">
            <stop stop-color="#C8FACD" offset="0%"></stop>
            <stop stop-color="#007B55" offset="100%"></stop>
        </linearGradient>
        <linearGradient x1="27.9331253%" y1="-12.0607272%" x2="70.1771943%" y2="133.539339%" id="linearGradient-6">
            <stop stop-color="#000000" offset="1%"></stop>
            <stop stop-color="#000000" stop-opacity="0.69" offset="8%"></stop>
            <stop stop-color="#000000" stop-opacity="0.32" offset="21%"></stop>
            <stop stop-color="#000000" stop-opacity="0" offset="100%"></stop>
        </linearGradient>
        <linearGradient x1="77.6914845%" y1="82.4239773%" x2="12.1878758%" y2="-9.40634961%" id="linearGradient-7">
            <stop stop-color="#000000" offset="1%"></stop>
            <stop stop-color="#000000" stop-opacity="0.69" offset="8%"></stop>
            <stop stop-color="#000000" stop-opacity="0.32" offset="21%"></stop>
            <stop stop-color="#000000" stop-opacity="0" offset="100%"></stop>
        </linearGradient>
        <linearGradient x1="77.9299899%" y1="-32.3121729%" x2="11.1600081%" y2="175.644972%" id="linearGradient-8">
            <stop stop-color="#000000" offset="1%"></stop>
            <stop stop-color="#000000" stop-opacity="0.69" offset="8%"></stop>
            <stop stop-color="#000000" stop-opacity="0.32" offset="21%"></stop>
            <stop stop-color="#000000" stop-opacity="0" offset="100%"></stop>
        </linearGradient>
        <linearGradient x1="82.8787478%" y1="82.4239773%" x2="5.10477973%" y2="-9.40634961%" id="linearGradient-9">
            <stop stop-color="#000000" offset="1%"></stop>
            <stop stop-color="#000000" stop-opacity="0.69" offset="8%"></stop>
            <stop stop-color="#000000" stop-opacity="0.32" offset="21%"></stop>
            <stop stop-color="#000000" stop-opacity="0" offset="100%"></stop>
        </linearGradient>
    </defs>
    <g id="__🥭Illustrations/-illustration_motivation" stroke="none" stroke-width="1" fill="none" fill-rule="evenodd">
        <g id="Group" fill="url(#linearGradient-1)" opacity="0.24">
            <g id="__🥭Illustrations/-X🩸Setup/-Shape_1">
                <path d="M0,143.563853 C0,173.505134 11.0533541,200.788998 29.2424179,221.409124 C50.1093161,245.072407 80.3684561,259.949979 114.09751,260 C128.838425,260.021266 142.933394,257.192761 155.880277,252.029215 C162.574474,249.358333 170.066969,249.664866 176.550515,252.829212 C184.15572,256.536129 192.671933,258.614538 201.664638,258.614538 C205.379404,258.614538 209.017217,258.257311 212.536101,257.579294 C222.580506,255.650588 231.7209,251.086644 239.227386,244.622508 C243.944883,240.558364 249.986917,238.515599 256.161871,238.522727 L256.266808,238.522727 C276.671206,238.522727 295.624366,232.216215 311.360238,221.409124 C325.428002,211.760049 336.915873,198.517323 344.570049,182.968863 C351.243259,169.419603 355,154.113519 355,137.913971 C355,82.3529783 310.792025,37.3052156 256.266808,37.3052156 C250.708261,37.3052156 245.262424,37.7836298 239.949508,38.6762999 C225.881744,15.4700447 200.68989,0 171.951947,0 C159.818909,0 148.316269,2.75721805 138.020015,7.69977496 C128.228236,12.384907 119.522359,19.0423094 112.400641,27.1555483 C88.218514,27.5484182 65.8584025,35.5982909 47.557406,49.0326992 C18.7495046,70.1676745 0,104.637257 0,143.563853 Z" id="background"></path>
            </g>
        </g>
        <g id="#gr" filter="url(#filter-2)" transform="translate(53.000000, 55.000000)">
            <path d="M131.069388,48.7795918 L142.432653,48.7795918 C144.641792,48.7795918 146.432653,50.5704528 146.432653,52.7795918 L146.432653,137.779592 L146.432653,137.779592 L127.069388,137.779592 L127.069388,52.7795918 C127.069388,50.5704528 128.860249,48.7795918 131.069388,48.7795918 Z" id="Rectangle" fill="url(#linearGradient-3)" fill-rule="nonzero" opacity="0.5"></path>
            <path d="M88.1428571,0.0693877551 L99.5061224,0.0693877551 C101.715261,0.0693877551 103.506122,1.86024876 103.506122,4.06938776 L103.506122,141.069388 L103.506122,141.069388 L84.1428571,141.069388 L84.1428571,4.06938776 C84.1428571,1.86024876 85.9337181,0.0693877551 88.1428571,0.0693877551 Z" id="Rectangle" fill="url(#linearGradient-4)" fill-rule="nonzero" opacity="0.517249698"></path>
            <path d="M251.82449,140.334694 C251.008163,142.702041 250.081633,145.191837 248.995918,147.734694 C245.122449,147.844898 241.240816,147.946939 237.371429,148.061224 C234.820408,148.130612 232.110204,148.24898 230.02449,149.693878 C226.057143,152.416327 229.493878,154.334694 229.053061,157.040816 C228.538776,160.244898 225.293878,160.906122 222.171429,160.918367 C211.404082,160.963265 200.987755,164.416327 190.420408,166.497959 C179.853061,168.579592 168.310204,169.17551 158.906122,163.930612 C158.257143,163.57551 157.583673,163.134694 157.338776,162.436735 C156.893878,161.183673 158.040816,159.967347 159.134694,159.212245 C161.556155,157.556118 164.27137,156.377216 167.134694,155.738776 C168.82449,155.359184 170.608163,155.15102 172.085714,154.240816 C173.563265,153.330612 174.608163,151.404082 173.869388,149.836735 C149.336054,151.363265 124.853061,153.515646 100.420408,156.293878 C68.9918367,159.869388 37.9061224,166.089796 6.35510204,168.338776 L6.06122449,168.367347 C3.84145457,166.175713 1.82123318,163.790787 0.0244897959,161.240816 C0.156240111,161.050443 0.302236905,160.870335 0.46122449,160.702041 C2.01632653,159.040816 4.26530612,158.253061 6.44081633,157.57551 C18.5755102,153.820408 31.1959184,151.918367 43.7632653,150.02449 C106.212245,140.612245 169.412245,133.910204 232.6,138.334694 C239.020408,138.779592 245.436735,139.428571 251.82449,140.334694 Z" id="Path" fill="#005249" fill-rule="nonzero" opacity="0.42"></path>
            <path d="M166.8,71.0122449 L178.163265,71.0122449 C180.372404,71.0122449 182.163265,72.8031059 182.163265,75.0122449 L182.163265,135.012245 L182.163265,135.012245 L162.8,135.012245 L162.8,75.0122449 C162.8,72.8031059 164.590861,71.0122449 166.8,71.0122449 Z" id="Rectangle" fill="url(#linearGradient-5)" fill-rule="nonzero" opacity="0.5"></path>
            <polygon id="Path" fill="#FFFFFF" fill-rule="nonzero" points="39.5918367 102.714286 96.2163265 111.110204 96.2163265 157.526531 102.681633 157.526531 102.681633 160.273469 87.7836735 160.273469 87.7836735 158.506122 94.4408163 158.506122 94.4408163 120.020408 40.8979592 109.669388 40.8979592 147.130612 48.3510204 147.130612 48.3510204 148.404082 33.3469388 148.404082 33.3469388 146.934694 39.5918367 146.934694"></polygon>
            <polygon id="Path" fill="url(#linearGradient-6)" fill-rule="nonzero" points="38.7061224 102.714286 95.3346939 111.110204 95.3346939 157.526531 101.8 157.526531 101.8 160.273469 86.8979592 160.273469 86.8979592 158.506122 93.5591837 158.506122 93.5591837 120.020408 40.0163265 109.669388 40.0163265 147.130612 47.4693878 147.130612 47.4693878 148.404082 32.4653061 148.404082 32.4653061 146.934694 38.7061224 146.934694"></polygon>
            <path d="M72.0816327,90.1673469 C72.0816327,90.1673469 82.0326531,104.57551 83.322449,104.64898 C84.6122449,104.722449 106.032653,105.342857 106.032653,105.342857 L105.906122,100.853061 C105.906122,100.853061 96.0734694,96.1959184 91.844898,97.5877551 C89.0122449,98.5142857 88.5142857,98.3183673 88.5142857,98.3183673 C88.5142857,98.3183673 84.8897959,87.477551 83.5428571,85.3183673 C82.1959184,83.1591837 72.0816327,90.1673469 72.0816327,90.1673469 Z" id="Path" fill="#212B36" fill-rule="nonzero"></path>
            <path d="M82.0408163,82.6816327 C82.0408163,82.6816327 82.6,90.5632653 80.5346939,93.3755102 C78.4693878,96.1877551 60.0938776,103.689796 60.0938776,103.689796 C60.0938776,103.689796 58.0979592,111.379592 56.155102,113.077551 C54.2122449,114.77551 46.4693878,122.057143 46.4693878,122.057143 L43.0816327,118.759184 L53.7714286,100.959184 C53.7714286,100.959184 54.4163265,98.5795918 55.4816327,97.755102 C56.5469388,96.9306122 69.6897959,82.5918367 69.6897959,82.5918367 L82.0408163,82.6816327 Z" id="Path" fill="#212B36" fill-rule="nonzero"></path>
            <path d="M74.9836735,51.6571429 L78.1877551,52.3510204 C79.2938776,52.5918367 80.5061224,52.8979592 81.1510204,53.8244898 C81.7591837,54.6897959 81.6897959,55.844898 81.5591837,56.8938776 C81.3918367,58.2979592 81.1714286,59.6979592 80.8979592,61.0857143 C80.5346939,62.9306122 80.0816327,64.7591837 79.8857143,66.6285714 C79.4244898,71.244898 80.6408163,75.844898 81.844898,80.322449 C82.2530612,81.7632653 80.3673469,82.8040816 78.9877551,83.3714286 C76.3543526,84.4476233 73.4866674,84.8217303 70.6653061,84.4571429 C70.4085789,84.4419449 70.159327,84.3649289 69.9387755,84.2326531 C69.6428452,83.9617192 69.4532549,83.5941167 69.4040816,83.1959184 C68.8326531,80.7918367 68.3877551,78.3469388 67.644898,75.9836735 C67.2912439,74.7944386 66.8266163,73.6410689 66.2571429,72.5387755 C65.6979592,71.4897959 65.4979592,70.2734694 65.0326531,69.1632653 C64.6571429,68.2612245 64.1918367,67.4 63.8612245,66.477551 C63.4992583,65.5713041 63.3906181,64.5836666 63.5469388,63.6204082 C63.7673469,62.5714286 64.1714286,61.5510204 64.4857143,60.5265306 C64.8269798,59.409838 65.0915416,58.2711314 65.277551,57.1183673 C65.3642472,56.3307093 65.5592863,55.5587942 65.8571429,54.8244898 C66.5714286,53.3020408 68.2081633,52.4040816 69.844898,52.0122449 C71.4816327,51.6204082 73.3387755,51.2979592 74.9836735,51.6571429 Z" id="Path" fill="#FFBBAB" fill-rule="nonzero"></path>
            <path d="M54.6489796,43.4693878 C53.6489796,42.4938776 52.6326531,41.5591837 51.955102,40.3265306 C51.1088247,38.8090324 50.453509,37.1926782 50.0040816,35.5142857 C49.810315,34.9184096 49.7462968,34.2879695 49.8163265,33.6653061 C49.9632653,32.8122449 50.5510204,32.0734694 50.6326531,31.2163265 C50.6504082,31.1235642 50.6329447,31.0275145 50.5836735,30.9469388 C50.5007485,30.8642152 50.3862808,30.8211039 50.2693878,30.8285714 L49.277551,30.7510204 C49.2747372,29.9941002 49.0043823,29.2625517 48.5142857,28.6857143 C48.1591837,28.277551 47.5918367,27.9346939 47.0816327,28.122449 C46.5714286,28.3102041 46.3387755,29.0163265 45.9265306,29.444898 C45.5142857,29.8734694 44.9510204,30.0163265 44.5959184,30.444898 C44.1877551,30.9510204 44.1877551,31.6693878 44.1877551,32.3469388 C44.2693878,34.1510204 45.1755102,35.3183673 45.7795918,36.9428571 C46.4234355,38.6682804 47.1829842,40.3482877 48.0530612,41.9714286 C49.7907532,45.2267574 51.9404026,48.244772 54.4489796,50.9510204 C55.8032793,52.4090078 57.2556431,53.7727297 58.7959184,55.0326531 C60.4816327,56.4081633 66.8653061,61.8857143 68.7714286,59.8367347 C71.355102,57.0612245 68.7142857,53.7142857 66.322449,52.3265306 C62.080628,49.867291 58.1596405,46.892276 54.6489796,43.4693878 Z" id="Path" fill="#BA8B72"></path>
            <path d="M69.0489796,51.6326531 C68.322449,53.3714286 67.6421769,55.1292517 67.0081633,56.9061224 C66.8081633,57.4734694 66.6,58.1306122 66.9183673,58.6530612 C67.1513552,59.0020925 67.506699,59.2511244 67.9142857,59.3510204 C69.5469388,59.877551 71.4081633,59.1877551 72.7061224,58.0408163 C74.0040816,56.8938776 74.8693878,55.3469388 75.7265306,53.844898 C76.1518938,52.9848541 76.7331629,52.2112127 77.4408163,51.5632653 C78.1688877,50.9136741 79.1896003,50.7048565 80.1142857,51.0163265 C80.9918367,51.3877551 81.4938776,52.6 80.9306122,53.3755102 C80.8285714,52.6530612 79.844898,52.3591837 79.1918367,52.6816327 C78.5387755,53.0040816 78.1673469,53.6979592 77.8653061,54.3632653 C77.468929,55.2367675 77.1187851,56.1305198 76.8163265,57.0408163 C76.568042,57.7050705 76.4301646,58.4054876 76.4081633,59.1142857 C76.4367347,60.8367347 77.6612245,62.2938776 78.9265306,63.4612245 C79.4511282,63.8738178 79.8976268,64.3769926 80.244898,64.9469388 C80.6938776,65.8244898 80.5959184,66.8693878 80.5469388,67.8530612 C80.3346939,71.9346939 81.1265306,75.9877551 82.155102,79.9346939 C82.3510204,80.6734694 82.5306122,81.5306122 82.077551,82.1469388 C81.7074181,82.5604644 81.2027178,82.829445 80.6530612,82.9061224 C78.1020408,83.4897959 75.4204082,83.2693878 72.8612245,83.8081633 C71.2693878,84.1469388 69.7346939,84.7755102 68.1102041,84.9265306 C67.8929589,84.9702311 67.6672242,84.9309096 67.477551,84.8163265 C67.3031733,84.6332461 67.2104033,84.3873318 67.2204082,84.1346939 C66.8122449,79.6081633 66.6897959,74.9714286 65.0979592,70.7142857 C64.3510204,68.7183673 63.277551,66.8122449 62.955102,64.7061224 C62.8673794,64.2504419 62.8673794,63.7822111 62.955102,63.3265306 C63.0906357,62.8799613 63.2870395,62.4541908 63.5387755,62.0612245 C64.835342,59.7299829 65.6044558,57.1425836 65.7918367,54.4816327" id="Path" fill="#FFFFFF" fill-rule="nonzero"></path>
            <path d="M79.3387755,71.0897959 C79.4081633,71.844898 79.4163265,72.722449 78.8408163,73.2163265 C78.6678052,73.3353171 78.5077466,73.4721193 78.3632653,73.6244898 C78.077551,73.9877551 78.2204082,74.5061224 78.2244898,74.9673469 C78.2244898,75.8653061 77.6897959,76.6571429 77.3510204,77.4897959 C77.0122449,78.322449 76.9755102,79.4530612 77.722449,79.9387755 C78.2040816,80.2571429 78.8857143,80.2122449 79.2979592,80.6122449 C79.9387755,81.2367347 79.6081633,82.6122449 80.444898,82.9306122 C80.9417157,83.0533721 81.4523164,82.7875799 81.6367347,82.3102041 C81.8015637,81.8430284 81.8451002,81.3416559 81.7632653,80.8530612 C81.352381,75.7238095 80.9034014,70.5959184 80.4163265,65.4693878 C80.4275826,64.9098447 80.1656433,64.3798745 79.7142857,64.0489796 C79.2816327,63.6408163 78.6857143,62.8244898 78.1387755,62.677551 C77.7306122,63.6 78.4979592,65.322449 78.6734694,66.2734694 C78.9673469,67.8653061 79.1891156,69.4707483 79.3387755,71.0897959 Z" id="Path" fill="#020202" fill-rule="nonzero" opacity="0.1"></path>
            <path d="M61.7102041,43.9795918 C61.5469388,44.4367347 61.3020408,44.9020408 61.3918367,45.3755102 C61.5038495,45.7029346 61.6832118,46.0032622 61.9183673,46.2571429 C62.3635844,46.8914669 62.6874174,47.6027923 62.8734694,48.355102 C63.0326531,48.922449 63.1714286,49.5428571 63.6163265,49.9306122 C64.1632653,50.4163265 64.9877551,50.3755102 65.7102041,50.2734694 C66.2653061,50.1959184 66.8122449,50.0979592 67.3428571,49.9755102 C67.5383789,49.9155195 67.7451241,49.9015502 67.9469388,49.9346939 C68.1484833,49.9956436 68.327446,50.1149521 68.4612245,50.277551 C69.3714286,51.2530612 69.522449,52.6979592 70.0938776,53.9142857 C70.2258548,54.3423301 70.6029565,54.6485238 71.0489796,54.6897959 C72.2899684,54.9397263 73.5795635,54.7092331 74.6571429,54.044898 C74.9396092,53.9010385 75.1643123,53.6648122 75.2938776,53.3755102 C75.3765333,53.0343696 75.3435113,52.6754353 75.2,52.355102 C74.9091251,51.4734518 74.551632,50.6151955 74.1306122,49.7877551 C73.5632653,48.6734694 72.8734694,47.5755102 72.7469388,46.3306122 C72.6326531,45.2285714 72.9795918,44.122449 72.9510204,43.0163265 C72.8857143,40.7061224 71.0326531,38.6285714 68.7836735,38.1183673 C66.8204082,37.6612245 64.9428571,38.3510204 63.3836735,39.5265306 C62.8326531,39.9346939 62.3755102,40.2 62.1959184,40.9020408 C61.9346939,41.9102041 62.0693878,42.9836735 61.7102041,43.9795918 Z" id="Path" fill="#BA8B72"></path>
            <path d="M61.9795918,36.6897959 C62.1761515,35.5929514 62.8427708,34.6370163 63.8040816,34.0734694 C66.7061224,32.2489796 71.6693878,32.4408163 74.1673469,34.9387755 C74.9836735,35.755102 75.5469388,36.8857143 76.4857143,37.6040816 C77.7102041,38.5428571 79.3428571,38.644898 80.8734694,38.7142857 C80.5361364,39.213482 80.1100264,39.6465094 79.6163265,39.9918367 C79.9285862,40.536371 80.4273036,40.9495525 81.0204082,41.155102 L79.9836735,41.8285714 L81.2081633,42.844898 C80.7190952,43.1335802 80.1951173,43.358534 79.6489796,43.5142857 C79.8203775,44.677087 80.0768481,45.8257478 80.4163265,46.9510204 C79.9156856,46.5678762 79.3203083,46.3280323 78.6938776,46.2571429 C78.4125626,46.9985127 78.3009845,47.7935068 78.3673469,48.5836735 L76.8693878,47.8244898 C76.8456333,48.5540879 76.6148905,49.2618878 76.2040816,49.8653061 C76.7346939,49.0857143 74.3795918,47.9795918 73.922449,47.9265306 C73.3673469,47.8653061 72.9877551,48.0979592 72.5510204,47.8326531 C71.9877551,47.4816327 71.6081633,46.5469388 70.9836735,46.1265306 C71.322449,45.6367347 71.7755102,45.2326531 72.077551,44.7183673 C72.4223692,44.2167533 72.4446657,43.5605989 72.1346939,43.0367347 C71.7795918,42.5632653 70.8530612,42.6285714 70.7265306,43.2 C70.7714286,41.6693878 69.6204082,40.3714286 68.4122449,39.4367347 C68.0370144,39.0656882 67.4889618,38.929458 66.9836735,39.0816327 C66.2979592,39.2040816 65.6176871,39.3564626 64.9428571,39.5387755 C64.4408163,39.677551 63.5632653,40.1306122 63.0326531,39.9469388 C62.1102041,39.6 61.877551,37.5142857 61.9795918,36.6897959 Z" id="Path" fill="#FF4842" fill-rule="nonzero"></path>
            <path d="M111.036735,99.155102 C111.398246,99.0239359 111.791026,99.0054353 112.163265,99.1020408 C112.486391,99.2507106 112.767064,99.4780557 112.979592,99.7632653 C115.110204,102.193197 117.157823,104.691156 119.122449,107.257143 C119.468888,107.651343 119.727658,108.114624 119.881633,108.616327 C120.134694,109.702041 119.4,110.746939 118.710204,111.620408 C118.302041,112.146939 117.485714,112.693878 117.077551,112.171429 C116.816327,111.844898 116.987755,111.355102 116.885714,110.946939 C116.763265,110.44898 116.265306,110.159184 115.812245,109.918367 L106.228571,104.885714 C104.865306,104.171429 104.408163,101.881633 105.820408,100.955102 C106.42449,100.546939 107.453061,100.546939 108.130612,100.281633 C109.106122,99.9265306 110.040816,99.4408163 111.036735,99.155102 Z" id="Path" fill="#BA8B72"></path>
            <path d="M69.844898,49.7469388 C70.0285371,49.7091994 70.2195126,49.7336098 70.3877551,49.8163265 C70.540998,49.943258 70.6426022,50.1217912 70.6734694,50.3183673 C70.9339506,51.2926582 71.093969,52.2910638 71.1510204,53.2979592 C71.1806173,53.5649967 71.1584438,53.8352361 71.0857143,54.0938776 C71.0066619,54.3559337 70.7959663,54.5573339 70.5306122,54.6244898 C70.2244898,54.677551 69.9306122,54.4816327 69.6204082,54.4571429 C69.2750042,54.4515541 68.9453532,54.6013955 68.722449,54.8653061 C68.5054851,55.1265565 68.323035,55.4146356 68.1795918,55.722449 C67.8027675,56.4257912 67.371521,57.0985903 66.8897959,57.7346939 C67.0365395,56.3030926 67.3998663,54.9020825 67.9673469,53.5795918 C68.0883573,53.208482 68.3242028,52.8854451 68.6408163,52.6571429 C68.8897959,52.5102041 69.2163265,52.4612245 69.3714286,52.2204082 C69.6204082,51.8367347 69.2408163,51.3714286 68.9265306,51.0408163 C68.6122449,50.7102041 68.0571429,50.2244898 68.322449,49.9102041 C68.4857143,49.7102041 69.5918367,49.7714286 69.844898,49.7469388 Z" id="Path" fill="url(#linearGradient-7)" fill-rule="nonzero"></path>
            <path d="M90.4081633,40.5183673 C91.1335976,39.5259426 91.7908882,38.4854598 92.3755102,37.4040816 C93.9061224,34.4081633 94.7142857,30.6244898 93.9632653,27.3061224 C93.8492287,26.9364449 93.8008779,26.5496387 93.8204082,26.1632653 C93.84435,25.7664401 94.1105995,25.4255107 94.4897959,25.3061224 C94.6529025,25.2945261 94.8143358,25.2657964 94.9714286,25.2204082 C95.2040816,25.1061224 95.2693878,24.8122449 95.4326531,24.6081633 C95.7142438,24.2996042 96.1535136,24.190189 96.5469388,24.3306122 C96.9286025,24.4744343 97.274119,24.7001346 97.5591837,24.9918367 C98.0192257,25.41037 98.4565835,25.8531777 98.8693878,26.3183673 C99.2167551,26.6562825 99.4711928,27.0780025 99.6081633,27.5428571 C99.7673469,28.3183673 99.3142857,29.0734694 98.877551,29.7387755 C98.1632653,29.8040816 97.9795918,31.8285714 97.9020408,32.3102041 C97.722449,33.3795918 97.4938776,34.444898 97.2367347,35.4979592 C96.7104423,37.6093386 96.021304,39.6767537 95.1755102,41.6816327 C93.5023671,45.6463806 91.2461612,49.3388542 88.4816327,52.6367347 C87.0816327,54.3020408 81.8367347,60.8816327 79.5836735,59.2244898 C76.5265306,56.9836735 78.4938776,53.2122449 80.5673469,51.3918367 C84.2857344,48.189353 87.5913786,44.5368287 90.4081633,40.5183673 L90.4081633,40.5183673 Z" id="Path" fill="#BA8B72"></path>
            <path d="M63.5102041,46.0530612 C63.9117189,45.9411315 64.321015,45.8592723 64.7346939,45.8081633 C64.7865043,45.7918696 64.8420672,45.7918696 64.8938776,45.8081633 C64.934217,45.8350252 64.9655128,45.8734338 64.9836735,45.9183673 C65.2945552,46.5142123 65.3883566,47.1996836 65.2489796,47.8571429 C65.2118673,48.1163901 65.1046008,48.3605625 64.9387755,48.5632653 C64.7651425,48.7659927 64.4876645,48.8461887 64.2326531,48.7673469 C64.0370411,48.6643073 63.8796635,48.5012069 63.7836735,48.3020408 C63.3582108,47.7292165 63.0945872,47.0525357 63.0204082,46.3428571 C63.0141414,46.3118784 63.0141414,46.2799584 63.0204082,46.2489796 C63.0443374,46.210194 63.0801152,46.1801406 63.122449,46.1632653 C63.3565709,46.0423773 63.6142846,45.974118 63.877551,45.9632653" id="Path" fill="#FFFFFF" fill-rule="nonzero"></path>
            <path d="M61.1510204,48.0530612 L60.9510204,48.0040816 C61.0285714,47.9469388 61.1306122,47.9632653 61.1510204,48.0530612 Z" id="Path" fill="#00AB55" fill-rule="nonzero"></path>
            <path d="M97.355102,35.7306122 C97.4919065,36.9557601 97.3638458,38.1960008 96.9795918,39.3673469 C94.6367347,47.4081633 89.9061224,54.9591837 82.8897959,59.5306122 C82.485676,59.7575819 82.1392981,60.0746294 81.877551,60.4571429 C81.7132382,60.8146075 81.6256422,61.2025327 81.6204082,61.5959184 C81.1183673,68.4938776 82.7714286,75.3795918 82.7836735,82.2979592 C82.8398674,82.9051902 82.6965737,83.5141885 82.3755102,84.0326531 C81.9346939,84.6204082 81.1510204,84.7714286 80.4122449,84.8693878 C79.9306122,84.9387755 79.4489796,85.0081633 78.9632653,85.0612245 C75.4774234,85.507486 71.9705563,85.7704329 68.4571429,85.8489796 C67.8612245,85.8489796 67.1918367,85.8489796 66.7510204,85.4408163 C66.3102041,85.0326531 66.2408163,84.355102 66.1918367,83.7428571 C65.7836735,79.0612245 64.2204082,74.6 63.1020408,70.0653061 C62.5257148,67.8519111 62.1392795,65.5933808 61.9469388,63.3142857 C61.8612245,62.0897959 61.9142857,60.922449 61.2979592,59.9346939 C61.10827,59.6249822 60.8682405,59.3490863 60.5877551,59.1183673 C59.5346939,58.244898 58.1795918,57.8326531 57.0367347,57.077551 C55.1469388,55.8326531 53.9714286,53.7632653 52.8816327,51.7714286 C51.2857143,48.8857143 49.6489796,46.0204082 48.0938776,43.1102041 C46.9428571,40.9632653 47.9102041,39.7632653 49.4367347,38.6204082 C49.9836735,38.2122449 50.6040816,37.8040816 51.2244898,37.3428571 C52.3265306,39.6081633 53.444898,41.8938776 55.0244898,43.8734694 C56.555102,45.7795918 58.5836735,47.3918367 60.9510204,48.0040816 C60.8787276,48.0256337 60.8290195,48.0919112 60.8285714,48.1673469 C60.8285714,48.3346939 60.9918367,48.4489796 61.1387755,48.5428571 C62.8938776,49.6312925 64.6503401,50.737415 66.4081633,51.8612245 C66.7447674,52.1045356 67.1331441,52.2665921 67.5428571,52.3346939 C68.0081633,52.3673469 69.4530612,51.5714286 69.5387755,52.3877551 C69.5387755,52.4367347 69.5387755,52.4897959 69.5387755,52.5428571 C69.463794,52.8217253 69.4078824,53.1053742 69.3714286,53.3918367 C69.4277188,53.7562744 69.6879495,54.0561745 70.0408163,54.1632653 C70.393265,54.2489631 70.7620479,54.2405177 71.1102041,54.1387755 C71.4939097,54.0406261 71.8611011,53.8865982 72.2,53.6816327 C72.7469388,53.3306122 73.1714286,52.8163265 73.6857143,52.4163265 C74.5020408,51.7591837 75.4285714,51.8612245 76.4285714,51.7469388 C77.4477698,51.6398766 78.4483031,51.3983212 79.4040816,51.0285714 C82.1387755,49.9061224 84.4734694,47.9020408 86.3142857,45.6204082 C89.0122449,42.2693878 90.8244898,38.3102041 93.0040816,34.6 C93.2212664,34.1610503 93.5386573,33.7793422 93.9306122,33.4857143 C94.6290759,33.1061132 95.4844016,33.1666391 96.122449,33.6408163 C96.8054797,34.136224 97.2519557,34.8931634 97.355102,35.7306122 Z" id="Path" fill="#00AB55" fill-rule="nonzero"></path>
            <path d="M108.77551,100.995918 C108.934694,101.644898 109.481633,102.110204 110,102.546939 C111.134694,103.518367 112.24898,104.587755 112.820408,105.97551 C113.106122,106.665306 113.24898,107.420408 113.636735,108.057143 C114.02449,108.693878 114.763265,109.24898 115.191837,109.946939 C115.836735,111.004082 115.820408,112.461224 116.742857,113.293878 C117.828571,114.269388 119.714286,113.730612 120.518367,112.514286 C121.322449,111.297959 121.273469,109.697959 120.926531,108.281633 C120.179592,105.359184 118.285714,102.873469 116.281633,100.616327 C115.057143,99.2489796 113.42449,97.7591837 111.432653,97.9306122 C110.093878,98.0489796 108.408163,99.5510204 108.77551,100.995918 Z" id="Path" fill="#00AB55" fill-rule="nonzero"></path>
            <path d="M61.2734694,59.8612245 C61.0685038,59.5990539 60.8388825,59.3571315 60.5877551,59.1387755 C59.5346939,58.2653061 58.1795918,57.8530612 57.0367347,57.0979592 C55.1469388,55.8530612 53.9714286,53.7836735 52.8816327,51.7918367 C51.2857143,48.9061224 49.6489796,46.0408163 48.0938776,43.1306122 C46.9428571,40.9836735 47.9102041,39.7836735 49.4367347,38.6408163 C49.8360993,38.9049914 50.1799638,39.2446963 50.4489796,39.6408163 C51.0326531,40.4816327 51.3265306,41.4857143 51.722449,42.4326531 C52.6929923,44.6077562 54.0433493,46.5925183 55.7102041,48.2938776 C57.4204082,50.1346939 59.0612245,52.0571429 60.7632653,53.922449 C60.8633345,54.0192774 60.9461548,54.1324651 61.0081633,54.2571429 C61.0694515,54.4639991 61.0778717,54.6829248 61.0326531,54.8938776 C60.9306085,55.7711923 60.9306085,56.6573791 61.0326531,57.5346939 C61.0857143,58.0734694 61.6571429,59.477551 61.2734694,59.8612245 Z" id="Path" fill="url(#linearGradient-8)" fill-rule="nonzero"></path>
            <path d="M97.355102,35.7306122 C97.4919065,36.9557601 97.3638458,38.1960008 96.9795918,39.3673469 C94.6367347,47.4081633 89.9061224,54.9591837 82.8897959,59.5306122 C82.485676,59.7575819 82.1392981,60.0746294 81.877551,60.4571429 C81.7132382,60.8146075 81.6256422,61.2025327 81.6204082,61.5959184 C81.1183673,68.4938776 82.7714286,75.3795918 82.7836735,82.2979592 C82.8398674,82.9051902 82.6965737,83.5141885 82.3755102,84.0326531 C81.9346939,84.6204082 81.1510204,84.7714286 80.4122449,84.8693878 C79.9306122,84.9387755 79.4489796,85.0081633 78.9632653,85.0612245 L78.8653061,85.0612245 C78.4468564,85.1115196 78.0226835,85.0436519 77.6408163,84.8653061 C77.2715546,84.6084659 76.9974892,84.2368275 76.8612245,83.8081633 C75.8489796,81.4204082 75.7265306,78.755102 75.1142857,76.2367347 C74.5020408,73.7183673 73.1673469,71.1061224 70.755102,70.155102 C70.196341,70.0032758 69.6647521,69.7650248 69.1795918,69.4489796 C68.7387755,69.077551 68.5102041,68.3591837 68.8979592,67.9306122 C69.0889431,67.7551342 69.3225364,67.6327088 69.5755102,67.5755102 C70.9877551,67.1306122 72.4326531,66.8163265 73.7959184,66.2 C75.1591837,65.5836735 76.4081633,64.6081633 76.9714286,63.2367347 C77.4979592,61.9795918 77.3795918,60.522449 77.9918367,59.3020408 C78.6897959,57.877551 80.1877551,57.0612245 81.5469388,56.2285714 C86.4321675,53.2173873 90.4716217,49.013602 93.2857143,44.0122449 C94.5469388,41.7714286 95.1265306,38.0326531 96.8367347,36.2122449 C96.9895814,36.0314914 97.1636213,35.8697851 97.355102,35.7306122 Z" id="Path" fill="url(#linearGradient-9)" fill-rule="nonzero"></path>
            <path d="M38.4489796,121.232653 C36.2571429,121.526531 34.0285714,121.387755 31.8204082,121.518367 C31.4397329,121.503717 31.0641212,121.609402 30.7469388,121.820408 C30.2367347,122.228571 30.3387755,123.093878 30.7469388,123.6 C31.2197131,124.06603 31.8066656,124.399621 32.4489796,124.567347 L35.7142857,125.726531 C37.4816327,126.355102 39.3020408,126.991837 41.1755102,126.95102 C42.2040816,126.926531 43.3755102,126.57551 43.7714286,125.628571 C43.9020408,125.318367 43.9346939,124.971429 44.044898,124.64898 C44.3755102,123.689796 45.3632653,123.093878 45.7795918,122.167347 C46.3795918,120.84898 45.3714286,118.706122 43.8040816,119.126531 C42.9877551,119.342857 42.1959184,120.171429 41.3795918,120.497959 C40.4365308,120.862062 39.4522735,121.108812 38.4489796,121.232653 L38.4489796,121.232653 Z" id="Path" fill="#BA8B72"></path>
            <path d="M33.9795918,121.359184 C34.5061224,121.383673 35.0897959,121.432653 35.4408163,121.82449 C35.9428571,122.37551 35.7102041,123.310204 36.1428571,123.918367 C36.3511285,124.170973 36.6171162,124.369763 36.9183673,124.497959 C38.9641776,125.503557 41.3019129,125.745292 43.5102041,125.179592 C43.8693878,125.085714 44.4040816,125.081633 44.444898,125.44898 C44.4492489,125.551973 44.4237351,125.654028 44.3714286,125.742857 C43.8438881,126.707651 42.8770678,127.352706 41.7836735,127.469388 C40.7056368,127.576232 39.6171107,127.470846 38.5795918,127.159184 C35.7778934,126.406463 33.0267867,125.476703 30.3428571,124.37551 C29.8329154,124.230428 29.3726298,123.948044 29.0122449,123.559184 C28.7177863,123.209303 28.6350297,122.727764 28.7957835,122.299651 C28.9565373,121.871538 29.3357837,121.563478 29.7877551,121.493878 C31.1751948,121.287816 32.5817854,121.242618 33.9795918,121.359184 L33.9795918,121.359184 Z" id="Path" fill="#00AB55" fill-rule="nonzero"></path>
        </g>
    </g>
</svg>