<?xml version="1.0" encoding="UTF-8"?>
<svg width="355px" height="260px" viewBox="0 0 355 260" version="1.1" xmlns="http://www.w3.org/2000/svg" xmlns:xlink="http://www.w3.org/1999/xlink">
    <title>__🥭Illustrations/ illustration_500</title>
    <defs>
        <linearGradient x1="19.4959033%" y1="70.8097699%" x2="77.4790349%" y2="18.2357903%" id="linearGradient-1">
            <stop stop-color="#00AB55" offset="0%"></stop>
            <stop stop-color="#00AB55" stop-opacity="0" offset="100%"></stop>
        </linearGradient>
        <filter x="-36.7%" y="-35.6%" width="173.4%" height="171.1%" filterUnits="objectBoundingBox" id="filter-2">
            <feOffset dx="12" dy="12" in="SourceAlpha" result="shadowOffsetOuter1"></feOffset>
            <feGaussianBlur stdDeviation="12" in="shadowOffsetOuter1" result="shadowBlurOuter1"></feGaussianBlur>
            <feColorMatrix values="0 0 0 0 0   0 0 0 0 0.321568627   0 0 0 0 0.28627451  0 0 0 0.32 0" type="matrix" in="shadowBlurOuter1" result="shadowMatrixOuter1"></feColorMatrix>
            <feMerge>
                <feMergeNode in="shadowMatrixOuter1"></feMergeNode>
                <feMergeNode in="SourceGraphic"></feMergeNode>
            </feMerge>
        </filter>
        <linearGradient x1="63.8169564%" y1="50.4420744%" x2="-75.4611564%" y2="45.9843628%" id="linearGradient-3">
            <stop stop-color="#000000" offset="1%"></stop>
            <stop stop-color="#000000" stop-opacity="0.69" offset="13%"></stop>
            <stop stop-color="#000000" stop-opacity="0.32" offset="25%"></stop>
            <stop stop-color="#000000" stop-opacity="0" offset="100%"></stop>
        </linearGradient>
        <linearGradient x1="91.6725789%" y1="50.121686%" x2="-130.542746%" y2="49.4716672%" id="linearGradient-4">
            <stop stop-color="#000000" offset="1%"></stop>
            <stop stop-color="#000000" stop-opacity="0.69" offset="13%"></stop>
            <stop stop-color="#000000" stop-opacity="0.32" offset="25%"></stop>
            <stop stop-color="#000000" stop-opacity="0" offset="100%"></stop>
        </linearGradient>
        <linearGradient x1="26.4392063%" y1="9.65546576%" x2="81.405271%" y2="103.658018%" id="linearGradient-5">
            <stop stop-color="#000000" offset="1%"></stop>
            <stop stop-color="#000000" stop-opacity="0.69" offset="13%"></stop>
            <stop stop-color="#000000" stop-opacity="0.32" offset="25%"></stop>
            <stop stop-color="#000000" stop-opacity="0" offset="100%"></stop>
        </linearGradient>
        <linearGradient x1="95.2376729%" y1="51.6496922%" x2="-128.228095%" y2="43.498272%" id="linearGradient-6">
            <stop stop-color="#000000" offset="1%"></stop>
            <stop stop-color="#000000" stop-opacity="0.69" offset="13%"></stop>
            <stop stop-color="#000000" stop-opacity="0.32" offset="25%"></stop>
            <stop stop-color="#000000" stop-opacity="0" offset="100%"></stop>
        </linearGradient>
        <linearGradient x1="92.8501999%" y1="-17.5759342%" x2="-20.123333%" y2="130.439858%" id="linearGradient-7">
            <stop stop-color="#000000" offset="1%"></stop>
            <stop stop-color="#000000" stop-opacity="0.69" offset="13%"></stop>
            <stop stop-color="#000000" stop-opacity="0.32" offset="25%"></stop>
            <stop stop-color="#000000" stop-opacity="0" offset="100%"></stop>
        </linearGradient>
        <linearGradient x1="52.6705318%" y1="136.608752%" x2="48.2055157%" y2="22.5666416%" id="linearGradient-8">
            <stop stop-color="#000000" offset="1%"></stop>
            <stop stop-color="#000000" stop-opacity="0.69" offset="13%"></stop>
            <stop stop-color="#000000" stop-opacity="0.32" offset="25%"></stop>
            <stop stop-color="#000000" stop-opacity="0" offset="100%"></stop>
        </linearGradient>
        <linearGradient x1="43.2113038%" y1="195.676926%" x2="54.5771814%" y2="-16.3224152%" id="linearGradient-9">
            <stop stop-color="#000000" offset="1%"></stop>
            <stop stop-color="#000000" stop-opacity="0.69" offset="13%"></stop>
            <stop stop-color="#000000" stop-opacity="0.32" offset="25%"></stop>
            <stop stop-color="#000000" stop-opacity="0" offset="100%"></stop>
        </linearGradient>
        <linearGradient x1="-148.602275%" y1="-15.7316368%" x2="424.908425%" y2="174.06979%" id="linearGradient-10">
            <stop stop-color="#000000" offset="1%"></stop>
            <stop stop-color="#000000" stop-opacity="0.69" offset="13%"></stop>
            <stop stop-color="#000000" stop-opacity="0.32" offset="25%"></stop>
            <stop stop-color="#000000" stop-opacity="0" offset="100%"></stop>
        </linearGradient>
        <linearGradient x1="-91.1272394%" y1="-6.49701176%" x2="316.380653%" y2="156.641604%" id="linearGradient-11">
            <stop stop-color="#000000" offset="1%"></stop>
            <stop stop-color="#000000" stop-opacity="0.69" offset="13%"></stop>
            <stop stop-color="#000000" stop-opacity="0.32" offset="25%"></stop>
            <stop stop-color="#000000" stop-opacity="0" offset="100%"></stop>
        </linearGradient>
        <linearGradient x1="-15.5297533%" y1="50.0165597%" x2="284.179971%" y2="50.0165597%" id="linearGradient-12">
            <stop stop-color="#000000" offset="1%"></stop>
            <stop stop-color="#000000" stop-opacity="0.69" offset="13%"></stop>
            <stop stop-color="#000000" stop-opacity="0.32" offset="25%"></stop>
            <stop stop-color="#000000" stop-opacity="0" offset="100%"></stop>
        </linearGradient>
        <linearGradient x1="100.374813%" y1="68.5782788%" x2="-82.1964018%" y2="-8.87063262%" id="linearGradient-13">
            <stop stop-color="#000000" offset="1%"></stop>
            <stop stop-color="#000000" stop-opacity="0.69" offset="13%"></stop>
            <stop stop-color="#000000" stop-opacity="0.32" offset="25%"></stop>
            <stop stop-color="#000000" stop-opacity="0" offset="100%"></stop>
        </linearGradient>
        <rect id="path-14" x="12.8181818" y="58.0040404" width="24.9373737" height="34.0121212" rx="3"></rect>
        <linearGradient x1="99.9490056%" y1="16.6056751%" x2="-45.826959%" y2="113.950265%" id="linearGradient-15">
            <stop stop-color="#000000" offset="1%"></stop>
            <stop stop-color="#000000" stop-opacity="0.69" offset="13%"></stop>
            <stop stop-color="#000000" stop-opacity="0.32" offset="25%"></stop>
            <stop stop-color="#000000" stop-opacity="0" offset="100%"></stop>
        </linearGradient>
    </defs>
    <g id="__🥭Illustrations/-illustration_500" stroke="none" stroke-width="1" fill="none" fill-rule="evenodd">
        <g id="Group" fill="url(#linearGradient-1)" opacity="0.24">
            <g id="__🥭Illustrations/-X🩸Setup/-Shape_1">
                <path d="M0,143.563853 C0,173.505134 11.0533541,200.788998 29.2424179,221.409124 C50.1093161,245.072407 80.3684561,259.949979 114.09751,260 C128.838425,260.021266 142.933394,257.192761 155.880277,252.029215 C162.574474,249.358333 170.066969,249.664866 176.550515,252.829212 C184.15572,256.536129 192.671933,258.614538 201.664638,258.614538 C205.379404,258.614538 209.017217,258.257311 212.536101,257.579294 C222.580506,255.650588 231.7209,251.086644 239.227386,244.622508 C243.944883,240.558364 249.986917,238.515599 256.161871,238.522727 L256.266808,238.522727 C276.671206,238.522727 295.624366,232.216215 311.360238,221.409124 C325.428002,211.760049 336.915873,198.517323 344.570049,182.968863 C351.243259,169.419603 355,154.113519 355,137.913971 C355,82.3529783 310.792025,37.3052156 256.266808,37.3052156 C250.708261,37.3052156 245.262424,37.7836298 239.949508,38.6762999 C225.881744,15.4700447 200.68989,0 171.951947,0 C159.818909,0 148.316269,2.75721805 138.020015,7.69977496 C128.228236,12.384907 119.522359,19.0423094 112.400641,27.1555483 C88.218514,27.5484182 65.8584025,35.5982909 47.557406,49.0326992 C18.7495046,70.1676745 0,104.637257 0,143.563853 Z" id="background"></path>
            </g>
        </g>
        <g id="#gr" filter="url(#filter-2)" transform="translate(72.000000, 34.000000)">
            <polygon id="Path" fill="#00AB55" fill-rule="nonzero" points="187.282828 172.533333 180.866667 172.533333 180.866667 171.975758 186.717172 171.975758 186.717172 119.628283 164.155556 119.628283 164.155556 42.2464646 143.444444 42.2464646 143.444444 41.6888889 164.713131 41.6888889 164.713131 119.070707 187.282828 119.070707"></polygon>
            <polygon id="Path" fill="#00AB55" fill-rule="nonzero" points="58.8060606 83.0626263 58.240404 83.0626263 58.240404 64.5575758 72.6808081 64.5575758 72.6808081 47.8545455 73.2383838 47.8545455 73.2383838 65.1232323 58.8060606 65.1232323"></polygon>
            <rect id="Rectangle" fill="#00AB55" fill-rule="nonzero" x="46.1191919" y="160.921212" width="91.1191919" height="31.6525253" rx="8.42828283"></rect>
            <rect id="Rectangle" fill="#00AB55" fill-rule="nonzero" x="46.1191919" y="123.272727" width="91.1191919" height="31.6525253" rx="8.42828283"></rect>
            <rect id="Rectangle" fill="url(#linearGradient-3)" fill-rule="nonzero" x="46.1191919" y="160.921212" width="91.1191919" height="31.6525253" rx="8.42828283"></rect>
            <rect id="Rectangle" fill="url(#linearGradient-4)" fill-rule="nonzero" x="46.1191919" y="123.272727" width="91.1191919" height="31.6525253" rx="8.42828283"></rect>
            <rect id="Rectangle" fill="#00AB55" fill-rule="nonzero" x="55.0969697" y="160.921212" width="91.1191919" height="31.6525253" rx="8.42828283"></rect>
            <path d="M146.216197,131.70101 L146.216197,146.488889 C146.222625,148.73047 145.33502,150.882105 143.749977,152.467148 C142.164933,154.052192 140.013298,154.939796 137.771717,154.933368 L63.5333333,154.933368 C61.2952107,154.933368 59.1489912,154.043142 57.5679161,152.459035 C55.9868411,150.874928 55.1007588,148.727007 55.105035,146.488889 L55.105035,131.70101 C55.105035,127.046198 58.8785213,123.272712 63.5333333,123.272712 L137.771717,123.272712 C140.009836,123.268436 142.157757,124.154518 143.741863,125.735593 C145.32597,127.316668 146.216197,129.462888 146.216197,131.70101 L146.216197,131.70101 Z" id="Path" fill="#00AB55" fill-rule="nonzero"></path>
            <path d="M146.216162,134.181818 L146.216162,146.488889 C146.213911,149.109717 144.996057,151.581244 142.919192,153.179798 C142.854545,150.561616 142.709091,143.272727 142.919192,140.040404 C143.102372,137.697482 144.308485,135.554265 146.216162,134.181818 L146.216162,134.181818 Z" id="Path" fill="url(#linearGradient-5)" fill-rule="nonzero"></path>
            <rect id="Rectangle" fill="#00AB55" fill-rule="nonzero" x="46.1191919" y="83.0626263" width="91.1191919" height="31.6525253" rx="8.42828283"></rect>
            <rect id="Rectangle" fill="url(#linearGradient-6)" fill-rule="nonzero" x="46.1191919" y="83.0626263" width="91.1191919" height="31.6525253" rx="8.42828283"></rect>
            <rect id="Rectangle" fill="#00AB55" fill-rule="nonzero" x="55.0969697" y="83.0626263" width="91.1191919" height="31.6525253" rx="8.42828283"></rect>
            <path d="M121.690909,104.711111 C121.006358,105.016495 120.62163,105.752496 120.761616,106.488889 C120.842424,107.208081 121.181818,107.886869 121.294949,108.59798 C121.626263,110.674747 119.89697,112.686869 117.868687,113.212121 C115.210101,113.890909 112.486869,112.549495 110.127273,111.151515 C109.833045,110.997956 109.561171,110.804926 109.319192,110.577778 C108.942923,110.076619 108.713494,109.480663 108.656566,108.856566 C108.40166,107.684865 108.25826,106.491662 108.228283,105.292929 C108.228283,102.553535 109.432323,99.9353535 109.49697,97.2121212 C109.537996,93.3897642 107.43463,89.8664705 104.050505,88.0888889 C102.673639,87.4816649 101.25605,86.9713326 99.8080808,86.5616162 C98.5391754,86.1207198 97.3070636,85.5803199 96.1232323,84.9454545 C95.379798,84.5575758 94.5636364,84.0080808 94.5070707,83.1757576 C95.7536467,82.6170862 97.121505,82.3835494 98.4828283,82.4969697 L121.917172,82.4969697 C122.211361,82.4690658 122.507623,82.5219742 122.773737,82.6505051 C123.04189,82.8543389 123.239656,83.1368616 123.339394,83.4585859 C124.907071,87.2161616 124.721212,91.3777778 125.044444,95.3616162 C125.170947,97.3076571 125.531804,99.2313247 126.119192,101.090909 C126.450505,102.10101 127.533333,104.032323 126.854545,105.090909 C125.577778,107.062626 123.129293,104.323232 121.690909,104.711111 Z" id="Path" fill="url(#linearGradient-7)" fill-rule="nonzero"></path>
            <path d="M143.428283,37.2606061 C143.428283,40.0716941 142.31103,42.7675294 140.322533,44.7545109 C138.334036,46.7414924 135.63735,47.8566897 132.826263,47.8545455 L60.1959596,47.8545455 C56.3398897,47.9610338 52.7302746,45.9646839 50.7708422,42.6418478 C48.8114099,39.3190116 48.8114099,35.1941197 50.7708422,31.8712835 C52.7302746,28.5484474 56.3398897,26.5520975 60.1959596,26.6585859 L62.620202,26.6585859 C60.8520997,20.3634861 62.1337014,13.6036558 66.0832699,8.39257379 C70.0328384,3.18149182 76.1946434,0.120451391 82.7333333,0.121204873 L88.9151515,0.121204873 C96.7144343,0.114726901 103.865642,4.46031709 107.452525,11.3858586 C109.217732,10.4803076 111.173648,10.0093362 113.157576,10.0121212 L114.773737,10.0121212 C118.106357,10.0121212 121.302481,11.3359991 123.658998,13.6925168 C126.015516,16.0490345 127.339394,19.2451585 127.339394,22.5777778 L127.339394,23.2 C127.339767,24.3698251 127.176571,25.5339569 126.854545,26.6585859 L132.866667,26.6585859 C138.704369,26.685261 143.423898,31.4228445 143.428283,37.2606061 L143.428283,37.2606061 Z" id="Path" fill="#00AB55" fill-rule="nonzero" opacity="0.12"></path>
            <path d="M170.458586,153.19596 C169.425381,153.196193 168.581579,152.370345 168.559596,151.337374 L168.559596,139.030303 C168.559596,134.567396 164.941695,130.949495 160.478788,130.949495 C156.015881,130.949495 152.39798,134.567396 152.39798,139.030303 L152.39798,151.337374 C152.39798,152.386157 151.547773,153.236364 150.49899,153.236364 C149.450207,153.236364 148.6,152.386157 148.6,151.337374 L148.6,139.030303 C148.6,132.46983 153.918314,127.151515 160.478788,127.151515 C167.039261,127.151515 172.357576,132.46983 172.357576,139.030303 L172.357576,151.337374 C172.335593,152.370345 171.491791,153.196193 170.458586,153.19596 Z" id="Path" fill="#FFFFFF" fill-rule="nonzero"></path>
            <path d="M172.357576,139.030303 L172.357576,151.337374 C172.353292,152.004059 171.99676,152.618769 171.420202,152.953535 C171.13013,153.128805 170.797496,153.221048 170.458586,153.220212 C169.416082,153.220212 168.568468,152.37984 168.559596,151.337374 L168.559596,139.030303 C168.560029,134.939013 165.502623,131.492924 161.440404,131.006061 C161.121035,130.970878 160.80008,130.951998 160.478788,130.949495 C156.015881,130.949495 152.39798,134.567396 152.39798,139.030303 L152.39798,151.337374 C152.390468,152.003175 152.034794,152.616406 151.460606,152.953535 C151.167693,153.129081 150.832396,153.221288 150.490909,153.220212 C149.443965,153.215775 148.596346,152.368156 148.591919,151.321212 L148.591919,139.030303 C148.600831,132.47037 153.91885,127.155966 160.478788,127.151514 C160.799942,127.151514 161.120896,127.167531 161.440404,127.2 C167.604066,127.700604 172.352631,132.846347 172.357576,139.030303 L172.357576,139.030303 Z" id="Path" fill="url(#linearGradient-8)" fill-rule="nonzero"></path>
            <path d="M172.357576,139.030303 L172.357576,151.337374 C172.625126,151.792221 172.525836,152.373695 172.122512,152.713987 C171.719188,153.05428 171.129297,153.05428 170.725973,152.713987 C170.322649,152.373695 170.223359,151.792221 170.490909,151.337374 L170.490909,139.030303 C170.490909,134.567396 166.873008,130.949495 162.410101,130.949495 C162.086122,130.952003 161.762477,130.970882 161.440404,131.006061 C161.121035,130.970878 160.80008,130.951998 160.478788,130.949495 C156.015881,130.949495 152.39798,134.567396 152.39798,139.030303 L152.39798,151.337374 C152.661143,151.792442 152.559447,152.370784 152.15683,152.708781 C151.754214,153.046778 151.166998,153.046778 150.764382,152.708781 C150.361766,152.370784 150.260069,151.792442 150.523232,151.337374 L150.523232,139.030303 C150.168173,134.908703 152.166316,130.938872 155.688235,128.768679 C159.210154,126.598486 163.654492,126.598486 167.176411,128.768679 C170.69833,130.938872 172.696473,134.908703 172.341414,139.030303 L172.357576,139.030303 Z" id="Path" fill="url(#linearGradient-9)" fill-rule="nonzero"></path>
            <rect id="Rectangle" fill="#00AB55" fill-rule="nonzero" x="138.943434" y="151.288889" width="41.9232323" height="41.9232323" rx="7.30505051"></rect>
            <rect id="Rectangle" fill="url(#linearGradient-10)" fill-rule="nonzero" x="138.943434" y="151.29697" width="41.9151515" height="41.9151515" rx="7.2969697"></rect>
            <rect id="Rectangle" fill="url(#linearGradient-11)" fill-rule="nonzero" x="146.216162" y="151.29697" width="34.6505051" height="41.9151515" rx="7.2969697"></rect>
            <path d="M163.50101,170.884848 L163.50101,170.884848 C162.247945,170.486397 161.472347,169.234032 161.673957,167.934691 C161.875566,166.635349 162.994201,165.676899 164.309091,165.676899 C165.623981,165.676899 166.742615,166.635349 166.944225,167.934691 C167.145835,169.234032 166.370237,170.486397 165.117172,170.884848 L167.193939,177.478788 L161.626263,177.478788 L163.50101,170.884848 Z" id="Path" fill="url(#linearGradient-12)" fill-rule="nonzero"></path>
            <circle id="Oval" fill="#C8FACD" fill-rule="nonzero" cx="69.3757576" cy="99.2323232" r="3.57979798"></circle>
            <circle id="Oval" fill="#C8FACD" fill-rule="nonzero" cx="80.1393939" cy="99.2323232" r="3.57979798"></circle>
            <circle id="Oval" fill="#C8FACD" fill-rule="nonzero" cx="90.9111111" cy="99.2323232" r="3.57979798"></circle>
            <circle id="Oval" fill="#C8FACD" fill-rule="nonzero" cx="69.3757576" cy="139.10303" r="3.57979798"></circle>
            <circle id="Oval" fill="#C8FACD" fill-rule="nonzero" cx="80.1393939" cy="139.10303" r="3.57979798"></circle>
            <circle id="Oval" fill="#C8FACD" fill-rule="nonzero" cx="90.9111111" cy="139.10303" r="3.57979798"></circle>
            <circle id="Oval" fill="#C8FACD" fill-rule="nonzero" cx="69.3757576" cy="178.973737" r="3.57979798"></circle>
            <circle id="Oval" fill="#C8FACD" fill-rule="nonzero" cx="80.1393939" cy="178.973737" r="3.57979798"></circle>
            <circle id="Oval" fill="#C8FACD" fill-rule="nonzero" cx="90.9111111" cy="178.973737" r="3.57979798"></circle>
            <path d="M124.034343,96.8969697 C123.876548,97.8749875 123.931675,98.8755403 124.19596,99.830303 C124.570853,100.733871 125.210304,101.502902 126.030303,102.036364 C127.776991,103.257796 129.928597,103.75588 132.034343,103.426263 C132.319447,103.41204 132.589552,103.294228 132.793939,103.094949 C132.921313,102.924282 132.991967,102.717972 132.99596,102.505051 C132.989585,101.366908 132.553801,100.273121 131.775758,99.4424242 C131.002046,98.6179627 130.371178,97.6702956 129.909091,96.6383838 C129.230303,94.6343434 130.571717,89.7131313 126.919192,90.0525253 C123.89697,90.3353535 124.260606,94.7717172 124.034343,96.8969697 Z" id="Path" fill="#BA8B72"></path>
            <path d="M110.773737,69.6080808 C113.551291,69.7077522 116.320121,69.9776187 119.064646,70.4161616 C123.913131,71.159596 127.016162,73.220202 128.212121,78.0848485 C129.311111,82.5292929 130.410101,87.030303 130.393939,91.6121212 C130.508442,92.6935281 130.198427,93.7771318 129.529293,94.6343434 C128.406061,95.7656566 126.369697,95.3454545 125.262626,94.2141414 C124.155556,93.0828283 123.70303,91.4585859 123.250505,89.9313131 C122.490909,87.3373737 121.529293,81.1878788 118.781818,80.5010101 C114.127273,79.3373737 109.343434,82.2707071 104.785859,80.5010101 C103.158069,79.9315739 101.607969,79.1605961 100.171717,78.2060606 C98.7344028,77.2385732 97.6242741,75.8579563 96.9878788,74.2464646 C96.699653,73.3883905 96.5390162,72.4926366 96.5111111,71.5878788 C96.4544356,70.844644 96.4706747,70.0976454 96.559596,69.3575758 C96.7050505,68.5010101 96.8505051,68.5979798 97.7151515,68.6060606 C99.1777778,68.6060606 100.632323,68.7191919 102.086869,68.8565657 C104.979798,69.0989899 107.872727,69.5272727 110.773737,69.6080808 Z" id="Path" fill="#212B36" fill-rule="nonzero"></path>
            <path d="M123.129293,100.226263 C123.129293,100.226263 122.466667,101.39798 122.991919,102.206061 C123.517172,103.014141 129.375758,107.806061 134.078788,105.179798 C138.781818,102.553535 128.729293,100.816162 128.729293,100.816162 L123.129293,100.226263 Z" id="Path" fill="#B78103" fill-rule="nonzero"></path>
            <path d="M123.759596,97.3737374 C124.187769,97.2270457 124.658788,97.4161406 124.866667,97.8181818 C125.586289,98.8928026 126.806098,99.5240538 128.09899,99.4909091 C129.537374,99.3373737 130.313131,97.8020202 131.008081,97.8747475 C131.70303,97.9474747 135,101.6 135.048485,102.981818 C135.09697,104.363636 133.060606,105.115152 130.943434,104.977778 C128.826263,104.840404 124.276768,102.763636 123.517172,101.543434 C122.90917,100.197905 122.999761,98.639741 123.759596,97.3737374 L123.759596,97.3737374 Z" id="Path" fill="#7A4F01" fill-rule="nonzero"></path>
            <path d="M113.79596,101.890909 C113.477371,102.831019 113.367077,103.829175 113.472727,104.816162 C113.690976,105.768808 114.195771,106.631752 114.919192,107.288889 C116.43994,108.78504 118.482891,109.631198 120.616162,109.648485 C120.901027,109.680152 121.187792,109.60846 121.424242,109.446465 C121.577396,109.297913 121.681684,109.106248 121.723232,108.89697 C121.902764,107.769483 121.651818,106.615708 121.020202,105.664646 C120.39076,104.725751 119.923644,103.687716 119.638384,102.593939 C119.290909,100.509091 121.424242,95.8707071 117.763636,95.6040404 C114.70101,95.3939394 114.337374,99.8464646 113.79596,101.890909 Z" id="Path" fill="#BA8B72"></path>
            <path d="M105.141414,72.8 C107.875042,73.3396137 110.573563,74.0439277 113.222222,74.9090909 C117.852525,76.4363636 120.6,78.9494949 120.987879,83.9757576 C121.335354,88.5414141 121.682828,93.1636364 120.923232,97.7131313 C120.856966,98.7974855 120.373308,99.8140349 119.573737,100.549495 C118.280808,101.478788 116.341414,100.735354 115.428283,99.4343434 C114.515152,98.1333333 114.345455,96.4686869 114.151515,94.8848485 C113.820202,92.2020202 113.884848,85.9959596 111.282828,84.8484848 C108.535354,83.6525253 105.472727,84.040404 102.555556,83.8787879 C101.036364,83.7979798 99.4363636,83.4989899 97.9494949,83.4666667 C92.979798,83.3616162 91.9454545,79.6606061 91.7757576,79.0787879 C91.1603459,77.217625 90.8492774,75.2693539 90.8544796,73.3090909 C90.9146101,72.3508096 91.0688898,71.4007714 91.3151515,70.4727273 C91.5010101,69.6080808 91.5090909,69.5111111 92.4464646,69.6646465 C93.8929293,69.9070707 95.3151515,70.2545455 96.7212121,70.6262626 C99.5171717,71.3373737 102.288889,72.2424242 105.141414,72.8 Z" id="Path" fill="#212B36" fill-rule="nonzero"></path>
            <path d="M112.325253,105.026263 C112.325253,105.026263 111.517172,106.076768 111.864646,106.957576 C112.212121,107.838384 117.238384,113.527273 122.313131,111.70101 C127.387879,109.874747 117.755556,106.521212 117.755556,106.521212 L112.325253,105.026263 Z" id="Path" fill="#B78103" fill-rule="nonzero"></path>
            <path d="M113.408081,102.319192 C113.85688,102.244742 114.292823,102.509054 114.434343,102.941414 C114.969833,104.126366 116.078776,104.951199 117.367677,105.123232 C118.814141,105.20404 119.791919,103.814141 120.50303,104.008081 C121.214141,104.20202 123.832323,108.339394 123.630303,109.664646 C123.428283,110.989899 121.319192,111.442424 119.258586,110.957576 C117.19798,110.472727 113.044444,107.684848 112.494949,106.359596 C112.123285,104.944453 112.463976,103.436971 113.408081,102.319192 L113.408081,102.319192 Z" id="Path" fill="#7A4F01" fill-rule="nonzero"></path>
            <polygon id="Path" fill="#00AB55" fill-rule="nonzero" points="122.943434 67.3131313 110.410101 71.8868687 119.29899 77.389899 131.969697 70.2383838"></polygon>
            <polygon id="Path" fill="url(#linearGradient-13)" fill-rule="nonzero" points="122.943434 67.3131313 110.410101 71.8868687 119.29899 77.389899 131.969697 70.2383838"></polygon>
            <polygon id="Path" fill="#00AB55" fill-rule="nonzero" points="109.844444 73.1555556 119.581818 79.9030303 135.856566 73.1555556 142.10303 60.5737374 123.282828 66.230303 119.29899 77.389899 110.410101 71.8868687"></polygon>
            <path d="M111.913131,59.3777778 C110.943434,59.959596 109.925253,60.1858586 109.10101,59.5959596 L108.89899,59.4262626 C107.589899,58.1414141 107.379798,55.3858586 107.436364,53.3737374 C107.458435,52.5273409 107.528582,51.6828822 107.646465,50.8444444 L112.591919,44.8323232 L115.145455,56.3313131 C114.238081,57.5133199 113.14674,58.5419088 111.913131,59.3777778 Z" id="Path" fill="#007B55" fill-rule="nonzero"></path>
            <path d="M111.953535,56.5010101 C111.864646,57.0505051 111.856566,57.6323232 111.775758,58.1979798 C111.331313,61.2848485 110.159596,64.3555556 110.60404,67.5151515 C110.815723,68.2022742 110.798709,68.9395352 110.555556,69.6161616 C110.211431,70.1355109 109.687733,70.5095807 109.084848,70.6666667 C106.143434,71.7575758 102.935354,71.7494949 99.8,71.7252525 C97.4484848,71.7252525 94.0707071,71.9111111 92.1232323,70.3515152 C91.4008315,69.6284331 90.9916098,68.6503642 90.9838384,67.6282828 C90.6363863,64.3215599 90.6363863,60.987531 90.9838384,57.6808081 L91.0808081,56.3878788 C91.3501684,53.4087542 91.7272727,50.4457912 92.2121212,47.4989899 C92.5757576,45.3656566 93.0848485,43.0707071 94.7252525,41.6565657 C96.9070707,39.7737374 100.721212,38.8848485 103.533333,38.779798 C104.447663,38.723497 105.365296,38.8024625 106.256566,39.0141414 C107.503699,39.4079907 108.675631,40.0089814 109.723232,40.7919192 C110.983838,41.6646465 112.107071,42.4080808 112.575758,43.8545455 C113.082501,45.5135316 113.354501,47.2352911 113.383838,48.969697 C113.404763,50.6065075 113.198071,52.2382824 112.769697,53.8181818 C112.567677,54.5858586 112.252525,55.3373737 112.058586,56.1050505 C112.00202,56.2181818 111.977778,56.3555556 111.953535,56.5010101 Z" id="Path" fill="#007B55" fill-rule="nonzero"></path>
            <path d="M96.7858586,72.1454545 C95.8484848,72.2747475 93.9090909,71.1515152 93.2383838,70.9252525 C92.8424242,70.7959596 92.4949495,70.5373737 92.1070707,70.3757576 C90.1353535,69.5676768 90.7414141,63.789899 90.7656566,62.2141414 C90.8464646,58.0525253 90.6525253,53.7050505 91.210101,49.6 C91.3538817,48.0074918 91.772175,46.4518783 92.4464646,45.0020202 C93.1361571,43.5374699 94.4424444,42.4563024 96.010101,42.0525253 C96.3100902,41.9592613 96.631324,41.9592613 96.9313131,42.0525253 C98.1272727,42.5535354 98.0868687,44.6464646 98.1515152,45.6727273 C98.1724332,46.706086 98.3890519,47.726113 98.789899,48.6787879 C99.2585859,49.6888889 100.010101,50.0606061 100.737374,50.8121212 C102.442459,52.4173775 103.798587,54.356668 104.721212,56.5090909 C105.141414,57.640404 105.359596,58.8363636 105.731313,59.9919192 C106.691318,62.5250202 108.055838,64.8856386 109.771717,66.9818182 C110.353535,67.789899 110.975758,68.759596 110.636364,69.6808081 C110.334013,70.3204526 109.772152,70.7999468 109.092929,70.9979798 C108.261264,71.335309 107.3587,71.4602793 106.466667,71.3616162 C104.357576,71.0868687 102.765657,69.3818182 100.882828,68.4040404 C100.228283,68.0646465 98.9757576,67.4909091 98.2323232,67.8141414 C97.4888889,68.1373737 97.230303,69.1313131 97.1171717,69.8020202 C97.0525253,70.230303 97.4080808,71.620202 97.2060606,71.8949495 C97.1088509,72.0353322 96.9555804,72.126705 96.7858586,72.1454545 L96.7858586,72.1454545 Z" id="Path" fill="#020202" fill-rule="nonzero" opacity="0.1"></path>
            <path d="M108.406061,36.8808081 C108.025241,37.1881287 107.545476,37.3461349 107.056566,37.3252525 C106.645499,37.3117354 106.236776,37.2575999 105.836364,37.1636364 L105.618182,37.1636364 C105.564358,37.138727 105.502308,37.138727 105.448485,37.1636364 C105.390728,37.2024956 105.352463,37.2643085 105.343434,37.3333333 C105.139761,38.1283908 105.004586,38.9394381 104.939394,39.7575758 L104.939394,39.7575758 L104.939394,40.2020202 C104.94784,40.3571874 104.911366,40.511499 104.834343,40.6464646 C104.692428,40.795964 104.498745,40.8855783 104.292929,40.8969697 C103.920962,40.9574578 103.541665,40.9574578 103.169697,40.8969697 C102.38183,40.7037023 101.654319,40.3177323 101.052525,39.7737374 C101.310855,38.3988757 101.440707,37.0029609 101.440404,35.6040404 C101.440404,33.7939394 101.246465,31.959596 101.69899,30.2060606 C101.829613,29.3657995 102.316533,28.6227989 103.034834,28.1676682 C103.753136,27.7125374 104.632919,27.5895667 105.448485,27.830303 C106.728394,27.9932208 107.934517,28.5205487 108.923232,29.3494949 C109.213506,29.6601439 109.35241,30.0827671 109.30303,30.5050505 C109.30303,31.2242424 109.343434,31.9434343 109.30303,32.6626263 C109.262626,33.3818182 109.19798,34.2787879 109.092929,35.0868687 C109.08164,35.7469346 108.838488,36.3819887 108.406061,36.8808081 L108.406061,36.8808081 Z" id="Path" fill="#BA8B72"></path>
            <path d="M108.034343,29.640404 C107.113131,29.640404 106.135354,29.3575758 105.230303,29.5838384 C103.949198,30.0195205 103.186579,31.3342606 103.444444,32.6626263 C103.072727,32.7353535 103.105051,32.0969697 102.878788,31.8060606 C102.652525,31.5151515 101.989899,31.8060606 101.884848,32.1939394 C101.844087,32.6323646 101.913531,33.0740259 102.086869,33.4787879 C102.294612,34.2865476 102.223424,35.1407971 101.884848,35.9030303 C101.80404,36.0808081 101.634343,36.2828283 101.456566,36.210101 C101.278788,36.1373737 101.181818,35.789899 101.092929,35.6282828 C100.943009,35.3996273 100.778351,35.1809824 100.6,34.9737374 C100.236364,34.5454545 99.7919192,34.1656566 99.4444444,33.7292929 C98.6939119,33.031053 98.3039573,32.0278875 98.3858586,31.0060606 C98.4670194,30.60253 98.6602649,30.2300423 98.9434343,29.9313131 C99.1781305,29.6672155 99.4677172,29.4576099 99.7919192,29.3171717 C99.9212121,29.2525253 100.074747,29.1878788 100.123232,29.0585859 C100.13934,28.9785804 100.13934,28.896167 100.123232,28.8161616 C100.087813,27.7349344 100.688337,26.7330062 101.658586,26.2545455 C102.614285,25.8008153 103.663666,25.57931 104.721212,25.6080808 C105.408081,25.6080808 106.094949,25.6080808 106.781818,25.6080808 C107.343602,25.6612157 107.910365,25.611932 108.454545,25.4626263 C108.37313,25.0770218 108.245614,24.7026138 108.074747,24.3474747 C108.527465,24.5578902 108.948955,24.8298193 109.327273,25.1555556 C109.340437,24.9183241 109.313111,24.6805831 109.246465,24.4525253 C109.97499,24.7525814 110.606835,25.2474334 111.072727,25.8828283 C111.52846,26.7676419 111.39708,27.8411073 110.741414,28.589899 C110.105144,29.2464165 109.231409,29.6192102 108.317172,29.6242424 L108.034343,29.640404 Z" id="Path" fill="#B72136" fill-rule="nonzero"></path>
            <path d="M105.836364,37.1636364 L105.618182,37.1636364 C105.564358,37.138727 105.502308,37.138727 105.448485,37.1636364 C105.390728,37.2024956 105.352463,37.2643085 105.343434,37.3333333 C105.139761,38.1283908 105.004586,38.9394381 104.939394,39.7575758 L104.939394,39.7575758 C103.535643,39.0698986 102.812002,37.4873577 103.210101,35.9757576 C104.035321,36.4721775 104.910092,36.8811262 105.820202,37.1959596 L105.836364,37.1636364 Z" id="Path" fill="#020202" fill-rule="nonzero" opacity="0.1"></path>
            <path d="M126.862626,63.6363636 C126.321212,63.410101 125.860606,62.9010101 125.246465,62.9252525 C124.632323,62.9494949 124.139394,63.6686869 123.630303,64.1373737 C123.075932,64.6321753 122.352827,64.8953853 121.610101,64.8727273 C121.375417,64.8620898 121.142494,64.8268805 120.915152,64.7676768 C119.956723,64.4860792 119.120284,63.8914678 118.539394,63.0787879 C118.539394,63.0787879 120.042424,61.389899 120.236364,61.2767677 C120.89899,60.8969697 121.79596,60.9292929 122.507071,60.5494949 C123.227199,60.0942249 123.971751,59.6787865 124.737374,59.3050505 C126.302092,58.6602917 128.079788,58.7951927 129.529293,59.6686869 C129.707071,59.7737374 129.90101,59.9676768 129.80404,60.1616162 C129.762254,60.2350441 129.696701,60.292047 129.618182,60.3232323 L129.618182,60.3232323 C128.787154,60.6528022 127.882238,60.7505555 127,60.6060606 C127.519444,60.8590296 128.003108,61.1796608 128.438384,61.559596 C128.632323,61.7292929 128.810101,62.0525253 128.6,62.2060606 C128.486446,62.2545716 128.357999,62.2545716 128.244444,62.2060606 L126.288889,61.7292929 C126.794733,62.1194817 127.215468,62.6089645 127.525253,63.1676768 C127.58274,63.2594554 127.610926,63.3665602 127.606061,63.4747475 C127.509091,63.7252525 127.121212,63.7494949 126.862626,63.6363636 Z" id="Path" fill="#FFBBAB" fill-rule="nonzero"></path>
            <path d="M126.862626,63.6363636 C126.321212,63.410101 125.860606,62.9010101 125.246465,62.9252525 C124.632323,62.9494949 124.139394,63.6686869 123.630303,64.1373737 C123.075932,64.6321753 122.352827,64.8953853 121.610101,64.8727273 C121.421863,64.7864789 121.243121,64.6808585 121.076768,64.5575758 C120.951621,64.4783358 120.857482,64.3585227 120.810101,64.2181818 C120.784285,63.9540747 120.950901,63.7092513 121.206061,63.6363636 C121.471441,63.5728306 121.7418,63.5322766 122.014141,63.5151515 C122.443101,63.4376282 122.826959,63.2009638 123.088889,62.8525253 C123.307071,62.5616162 123.444444,62.189899 123.759596,62.0444444 C123.967693,61.949626 124.193544,61.9000491 124.422222,61.8989899 L125.311111,61.8424242 C125.447403,61.8445981 125.582529,61.8170213 125.707071,61.7616162 C125.832473,61.7011889 125.906729,61.568819 125.892929,61.430303 C125.892929,61.2767677 125.707071,61.1959596 125.561616,61.1393939 C125.270707,61.0343434 124.292929,60.9777778 124.923232,60.630303 C125.37986,60.4360609 125.866322,60.3212776 126.361616,60.2909091 C127.353201,60.1941637 128.351849,60.1941637 129.343434,60.2909091 C129.449644,60.3026069 129.554937,60.3215056 129.658586,60.3474747 L129.658586,60.3474747 C128.827558,60.6770447 127.922642,60.774798 127.040404,60.630303 C127.559848,60.883272 128.043512,61.2039032 128.478788,61.5838384 C128.672727,61.7535354 128.850505,62.0767677 128.640404,62.230303 C128.52685,62.278814 128.398403,62.278814 128.284848,62.230303 L126.329293,61.7535354 C126.835137,62.1437241 127.255872,62.633207 127.565657,63.1919192 C127.623144,63.2836979 127.65133,63.3908027 127.646465,63.4989899 C127.509091,63.7252525 127.121212,63.7494949 126.862626,63.6363636 Z" id="Path" fill="#E0A194" fill-rule="nonzero"></path>
            <path d="M118.636364,63.6525253 C116.639211,63.6272298 114.661899,63.2525524 112.793939,62.5454545 C111.465958,62.0276059 110.292187,61.1792644 109.383838,60.0808081 C109.264237,59.9380909 109.173653,59.7733932 109.117172,59.5959596 C109.016149,59.2944318 109.016149,58.9681945 109.117172,58.6666667 C109.368404,57.7797864 109.887752,56.9922978 110.60404,56.4121212 C112.535354,54.9737374 115.161616,56.3313131 115.161616,56.3313131 C115.161616,56.3313131 120.082828,60.1616162 120.220202,60.9212121 C120.30101,61.3333333 119.824242,62.1090909 119.363636,62.7232323 C118.90303,63.3373737 118.636364,63.6525253 118.636364,63.6525253 Z" id="Path" fill="#007B55" fill-rule="nonzero"></path>
            <rect id="Rectangle" fill="#007B55" fill-rule="nonzero" transform="translate(97.454407, 52.318517) rotate(-11.130000) translate(-97.454407, -52.318517) " x="92.9978418" y="41.8296286" width="8.91313131" height="20.9777778" rx="4.45252525"></rect>
            <path d="M118.636364,63.6525253 C116.639211,63.6272298 114.661899,63.2525524 112.793939,62.5454545 C112.559596,62.4565657 111.355556,61.7373737 111.177778,61.810101 C111.104376,61.8662384 111.05292,61.9462805 111.032323,62.0363636 L110.377778,63.9030303 C109.980634,63.642391 109.733835,63.2059782 109.715152,62.7313131 C109.666667,62.2626263 109.715152,61.7939394 109.666667,61.3333333 C109.514684,60.6189146 109.27304,59.9265625 108.947475,59.2727273 C108.066667,57.0262626 108.228283,54.5212121 108.39798,52.1131313 L110.191919,56.8080808 C110.338795,57.2566112 110.545362,57.6833363 110.806061,58.0767677 C111.04584,58.3741677 111.316741,58.6450687 111.614141,58.8848485 C112.891882,60.0249155 114.3609,60.9304001 115.953535,61.559596 C116.228283,61.6727273 119.250505,62.9575758 119.412121,62.7232323 C118.991919,63.2565657 118.636364,63.6525253 118.636364,63.6525253 Z" id="Path" fill="#020202" fill-rule="nonzero" opacity="0.1"></path>
            <path d="M119.533333,73.5191919 C119.048485,73.0909091 118.725253,72.3959596 118.10303,72.2343434 C117.480808,72.0727273 116.842424,72.6707071 116.236364,73.0424242 C115.541811,73.3901201 114.729941,73.4166904 114.014141,73.1151515 C113.778983,73.0265483 113.554105,72.9127544 113.343434,72.7757576 C112.432207,72.1317051 111.736559,71.2276446 111.347475,70.1818182 C111.347475,70.1818182 113.19798,68.8565657 113.416162,68.8 C114.159596,68.6141414 115.032323,68.9373737 115.840404,68.8 C116.654879,68.5478821 117.483183,68.3428295 118.321212,68.1858586 C120.108083,68.0504157 121.851391,68.7808016 123.008081,70.1494949 C123.161616,70.3272727 123.307071,70.6020202 123.177778,70.7717172 C123.122783,70.8366841 123.044382,70.8773364 122.959596,70.8848485 L122.959596,70.8848485 C122.036635,70.9574434 121.112004,70.7669132 120.292929,70.3353535 C120.761629,70.7797094 121.171678,71.2820874 121.513131,71.830303 C121.674747,72.0727273 121.779798,72.4767677 121.513131,72.5737374 C121.4,72.5737374 121.270707,72.5737374 121.157576,72.4686869 L119.315152,71.3131313 C119.738942,71.9033306 120.051155,72.5660978 120.236364,73.2686869 C120.272281,73.3817274 120.272281,73.5031211 120.236364,73.6161616 C120.155556,73.8262626 119.759596,73.7616162 119.533333,73.5191919 Z" id="Path" fill="#FFBBAB" fill-rule="nonzero"></path>
            <path d="M119.533333,73.5191919 C119.048485,73.0909091 118.725253,72.3959596 118.10303,72.2343434 C117.480808,72.0727273 116.842424,72.6707071 116.236364,73.0424242 C115.541811,73.3901201 114.729941,73.4166904 114.014141,73.1151515 C113.844064,72.9611887 113.689765,72.7906478 113.553535,72.6060606 C113.440462,72.4801002 113.369798,72.3218126 113.351515,72.1535354 C113.368416,71.8747666 113.597512,71.6562449 113.876768,71.6525253 C114.149246,71.6683451 114.41972,71.7089163 114.684848,71.7737374 C115.121576,71.8401257 115.565306,71.7099651 115.89697,71.4181818 C116.179798,71.1757576 116.39798,70.820202 116.705051,70.7232323 C116.935195,70.6858196 117.170996,70.7052386 117.391919,70.779798 L118.29697,71.0141414 C118.430205,71.0420358 118.567774,71.0420358 118.70101,71.0141414 C118.846765,70.987643 118.954388,70.8632043 118.959596,70.7151515 C118.935845,70.5451696 118.838254,70.394347 118.692929,70.3030303 C118.426263,70.0929293 117.464646,69.7050505 118.167677,69.5434343 C118.667586,69.4791278 119.175213,69.512055 119.662626,69.640404 C120.682552,69.873148 121.676203,70.2088774 122.628283,70.6424242 C122.734612,70.688385 122.837269,70.7424148 122.935354,70.8040404 L122.935354,70.8040404 C122.012393,70.8766353 121.087761,70.6861051 120.268687,70.2545455 C120.737386,70.6989013 121.147435,71.2012793 121.488889,71.7494949 C121.650505,71.9919192 121.755556,72.3959596 121.488889,72.4929293 C121.375758,72.4929293 121.246465,72.4929293 121.133333,72.3878788 L119.290909,71.2323232 C119.7147,71.8225225 120.026912,72.4852897 120.212121,73.1878788 C120.248038,73.3009193 120.248038,73.422313 120.212121,73.5353535 C120.155556,73.8262626 119.759596,73.7616162 119.533333,73.5191919 Z" id="Path" fill="#E0A194" fill-rule="nonzero"></path>
            <path d="M106.054545,60.0242424 L114.410101,67.4505051 L111.646465,72.4686869 C111.646465,72.4686869 95.7515152,65.0262626 94.9434343,61.430303 C94.1353535,57.8343434 98.3373737,57.9717172 98.3373737,57.9717172 C98.3373737,57.9717172 101.812121,55.2727273 106.054545,60.0242424 Z" id="Path" fill="#007B55" fill-rule="nonzero"></path>
            <rect id="Rectangle" fill="#00AB55" fill-rule="nonzero" x="150.523232" y="68.2505051" width="34.0121212" height="34.0121212" rx="8"></rect>
            <rect id="Rectangle" fill="#00AB55" fill-rule="nonzero" opacity="0.18" x="18.8949495" y="52.4929293" width="24.9373737" height="34.0121212" rx="3"></rect>
            <g id="Rectangle" fill-rule="nonzero">
                <use fill="#FFFFFF" xlink:href="#path-14"></use>
                <use fill-opacity="0.48" fill="#00AB55" xlink:href="#path-14"></use>
            </g>
            <path d="M0.842424242,153.244444 C1.02614658,154.978654 1.62786812,156.6424 2.5959596,158.092929 C6.47474747,164.945455 10.8222222,171.692929 16.8262626,176.775758 C25.6585859,184.242424 37.2141414,187.466667 48.3818182,190.513131 C47.3878788,190.028283 46.1838384,184.856566 45.7393939,183.749495 C44.8747475,181.535354 44.0666667,179.29697 43.2424242,177.066667 C41.9252525,173.551515 39.2020202,170.723232 36.4868687,168.129293 C30.4106958,162.25896 23.0268157,157.916153 14.9434343,155.458586 C10.3709098,154.059784 5.62361019,153.314363 0.842424242,153.244444 L0.842424242,153.244444 Z" id="Path" fill="#00AB55" fill-rule="nonzero"></path>
            <path d="M0.842424242,153.244444 C1.02614658,154.978654 1.62786812,156.6424 2.5959596,158.092929 C6.47474747,164.945455 10.8222222,171.692929 16.8262626,176.775758 C25.6585859,184.242424 37.2141414,187.466667 48.3818182,190.513131 C47.3878788,190.028283 46.1838384,184.856566 45.7393939,183.749495 C44.8747475,181.535354 44.0666667,179.29697 43.2424242,177.066667 C41.9252525,173.551515 39.2020202,170.723232 36.4868687,168.129293 C30.4106958,162.25896 23.0268157,157.916153 14.9434343,155.458586 C10.3709098,154.059784 5.62361019,153.314363 0.842424242,153.244444 L0.842424242,153.244444 Z" id="Path" fill="url(#linearGradient-15)" fill-rule="nonzero"></path>
            <path d="M44.5353535,157.082828 C43.6222222,150.707071 42.6848485,144.250505 40.1232323,138.343434 C37.5616162,132.436364 33.1171717,127.030303 27.0808081,124.824242 C26.9030303,133.950168 26.7279461,143.073401 26.5555556,152.193939 C26.4505051,157.462626 26.3616162,162.836364 27.8727273,167.886869 C30.5313131,176.775758 39.7353535,187.127273 48.6,190.052525 C49.9171717,185.80202 47.7111111,179.361616 47.0808081,174.941414 L44.5353535,157.082828 Z" id="Path" fill="#00AB55" fill-rule="nonzero"></path>
            <rect id="Rectangle" fill="#C8FACD" fill-rule="nonzero" x="109.214141" y="137.656566" width="28.0161616" height="2.88484848"></rect>
            <rect id="Rectangle" fill="#C8FACD" fill-rule="nonzero" x="109.214141" y="177.527273" width="28.0161616" height="2.88484848"></rect>
            <path d="M158.781818,79.5717172 L167.347475,75.0949495 L175.565657,79.5474747 C175.565657,79.5474747 174.038384,90.5454545 167.549495,93.6969697 C167.533333,93.6969697 159.484848,90.6181818 158.781818,79.5717172 Z" id="Path" fill="#005249" fill-rule="nonzero"></path>
        </g>
    </g>
</svg>