<svg width="181" height="181" viewBox="0 0 181 181" fill="none" xmlns="http://www.w3.org/2000/svg">
<path d="M134.846 151.325C142.464 146.926 142.107 132.045 134.047 118.086C125.986 104.127 113.278 96.3762 105.661 100.775C98.0432 105.174 98.4008 120.054 106.461 134.014C114.521 147.973 127.229 155.723 134.846 151.325Z" fill="#E2E2E2"/>
<path d="M134.802 151.246L105.659 100.771L100.142 103.955L129.284 154.431L134.802 151.246Z" fill="#E2E2E2"/>
<path d="M129.341 154.512C136.959 150.114 136.601 135.232 128.542 121.273C120.482 107.313 107.773 99.5635 100.155 103.96C92.5375 108.357 92.8951 123.242 100.955 137.2C109.015 151.159 121.723 158.91 129.341 154.512Z" fill="#F2F2F2"/>
<path d="M100.358 110.655L60.5818 133.642L83.8273 173.934L123.603 150.946C129.716 147.416 129.459 135.535 123 124.429C116.542 113.322 106.385 107.124 100.358 110.655Z" fill="url(#paint0_linear)"/>
<path d="M92.328 175.886C99.9463 171.487 99.588 156.606 91.5288 142.647C83.4696 128.688 70.76 120.936 63.1424 125.334C55.5248 129.732 55.8824 144.614 63.9423 158.573C72.0022 172.533 84.7104 180.283 92.328 175.886Z" fill="#DCDCDC"/>
<path d="M92.331 175.812L63.1888 125.336L57.6711 128.521L86.8133 178.997L92.331 175.812Z" fill="#DCDCDC"/>
<path d="M86.8226 179.07C94.4402 174.673 94.0826 159.791 86.0227 145.832C77.9628 131.873 65.2546 124.123 57.6363 128.521C50.018 132.919 50.377 147.801 58.4362 161.762C66.4954 175.724 79.205 183.469 86.8226 179.07Z" fill="#F1F1F1"/>
<path d="M83.8413 173.916C89.9356 170.397 89.6725 158.532 83.2529 147.414C76.8334 136.296 66.6915 130.14 60.5971 133.653C54.5028 137.167 54.7659 149.037 61.1855 160.155C67.605 171.272 77.7483 177.435 83.8413 173.916Z" fill="#C9C9C9"/>
<path d="M66.6942 156.974C61.2702 147.589 60.2375 137.688 63.6808 132.695C62.5917 132.786 61.5346 133.109 60.5805 133.642C54.4683 137.087 54.7246 148.967 61.1834 160.159C67.6422 171.352 77.7999 177.464 83.8261 173.934C84.787 173.377 85.6109 172.612 86.2374 171.695C80.2112 172.212 72.1182 166.358 66.6942 156.974Z" fill="#9B9BA0"/>
<path d="M44.4757 22.2447L44.3724 58.4004C44.3724 61.7061 42.2031 64.9084 37.9677 67.3877C29.3936 72.3462 15.3446 72.3462 6.66721 67.3877C2.32852 64.8051 0.15918 61.4995 0.15918 58.1938L0.262482 22.0381C0.262482 25.3438 2.43182 28.6494 6.77051 31.1287C15.4479 36.0872 29.4969 36.0872 38.071 31.1287C42.4097 28.7527 44.4757 25.4471 44.4757 22.2447Z" fill="url(#paint1_linear)"/>
<path d="M37.9652 13.0511C46.6425 18.0096 46.6425 26.1705 38.0685 31.2323C29.4944 36.1908 15.4453 36.1908 6.76795 31.2323C-1.90942 26.1705 -1.90942 18.1129 6.66465 13.0511C15.342 8.09266 29.2878 8.09266 37.9652 13.0511Z" fill="#F2F2F2"/>
<path d="M34.3525 15.2199C40.9638 19.0421 40.9638 25.2402 34.4558 29.0624C27.8444 32.8846 17.2043 32.8846 10.593 29.0624C3.8784 25.2402 3.7751 19.0421 10.3864 15.2199C16.9977 11.3977 27.6378 11.3977 34.3525 15.2199Z" fill="#CDCDD0"/>
<path fill-rule="evenodd" clip-rule="evenodd" d="M39.0713 23.867C39.9854 20.8231 38.4205 17.5717 34.3525 15.2199C27.6378 11.3977 16.9977 11.3977 10.3864 15.2199C6.36994 17.5419 4.83166 20.7409 5.74843 23.7513C6.32397 21.8685 7.86805 20.0679 10.3863 18.612C16.9977 14.7898 27.6378 14.7898 34.3524 18.612C36.9223 20.0977 38.4932 21.9424 39.0713 23.867Z" fill="#9B9BA0"/>
<path d="M92.3417 55.0836L92.2384 91.2393C92.2384 94.5449 90.069 97.7473 85.8336 100.227C77.2596 105.185 63.2105 105.185 54.5331 100.227C50.1945 97.644 48.0251 94.3383 48.0251 91.0327L48.1284 54.877C48.1284 58.1826 50.2978 61.4883 54.6364 63.9675C63.3138 68.926 77.3629 68.926 85.937 63.9675C90.2756 61.5916 92.3417 58.2859 92.3417 55.0836Z" fill="url(#paint2_linear)"/>
<path d="M85.8311 45.8898C94.5085 50.8483 94.5085 59.0091 85.9344 64.0709C77.3603 69.0294 63.3113 69.0294 54.6339 64.0709C45.9565 59.0091 45.9565 50.9516 54.5306 45.8898C63.208 40.9313 77.1537 40.9313 85.8311 45.8898Z" fill="#F2F2F2"/>
<path d="M82.2184 48.0588C88.8297 51.8809 88.8297 58.0791 82.3217 61.9012C75.7104 65.7234 65.0703 65.7234 58.4589 61.9012C51.7443 58.0791 51.641 51.8809 58.2523 48.0588C64.8637 44.2366 75.5038 44.2366 82.2184 48.0588Z" fill="#CDCDD0"/>
<path fill-rule="evenodd" clip-rule="evenodd" d="M86.9372 56.7058C87.8512 53.6619 86.2863 50.4106 82.2183 48.0588C75.5037 44.2366 64.8636 44.2366 58.2522 48.0588C54.2358 50.3808 52.6975 53.5797 53.6142 56.59C54.1897 54.7073 55.7338 52.9066 58.2522 51.4507C64.8635 47.6285 75.5036 47.6285 82.2182 51.4507C84.7882 52.9364 86.3591 54.7812 86.9372 56.7058Z" fill="#9B9BA0"/>
<path d="M69.5159 30.5702L81.3724 29.5753L69.7168 15.0512V20.6439L54.8418 11.7243C54.4141 11.5249 53.929 11.4859 53.4749 11.6143C53.0209 11.7428 52.6283 12.0302 52.3685 12.4241C52.1385 12.7961 52.0651 13.2441 52.1644 13.67C52.2636 14.0959 52.5276 14.4653 52.8983 14.6973L69.5476 24.6736L69.5159 30.5702Z" fill="#DBDBDD"/>
<path d="M114.783 11.0295L163.885 39.6521V44.9526L114.783 16.4336V11.0295Z" fill="#C8C8C8"/>
<path d="M114.864 10.9833L122.347 6.61865L171.366 35.2916L163.882 39.6562L114.864 10.9833Z" fill="#B5B5BA"/>
<path d="M163.779 40.3481L171.366 36.3262L171.262 91.3505L163.779 96.1495V40.3481Z" fill="#CDCDD0"/>
<path d="M163.883 39.652V45.056L171.368 40.6914V35.2874L163.883 39.652Z" fill="#BBBDBF"/>
<path d="M163.779 40.641L163.676 95.7996L114.62 67.2722L114.723 16.4712L163.779 44.9958V40.641Z" fill="#EBEBEB"/>
<path d="M129.996 44.7273V55.6388L120.435 50.1313V39.2197L129.996 44.7273Z" fill="#B5B5BA"/>
<path d="M143.228 52.3808L143.123 63.2924L133.667 57.7841V46.8726L143.228 52.3808Z" fill="#B5B5BA"/>
<path d="M129.996 30.3807V41.2922L120.435 35.7861V24.8745L129.996 30.3807Z" fill="#B5B5BA"/>
<path d="M156.838 60.2575V71.1691L147.277 65.6608V54.7493L156.838 60.2575Z" fill="#B5B5BA"/>
<path d="M143.228 38.0349V48.9464L133.664 43.4389V32.5266L143.228 38.0349Z" fill="#B5B5BA"/>
<path d="M156.838 45.9108V56.8224L147.277 51.3142V40.4026L156.838 45.9108Z" fill="#B5B5BA"/>
<path d="M129.996 59.5036V70.4152L120.435 64.9077V53.9961L129.996 59.5036Z" fill="#B5B5BA"/>
<path d="M143.228 67.1567L143.123 78.0683L133.667 72.5607V61.6492L143.228 67.1567Z" fill="#B5B5BA"/>
<path d="M156.838 75.0334V85.945L147.277 80.4367V69.5251L156.838 75.0334Z" fill="#B5B5BA"/>
<defs>
<linearGradient id="paint0_linear" x1="125.243" y1="120.013" x2="76.3452" y2="148.09" gradientUnits="userSpaceOnUse">
<stop offset="0.239581" stop-color="#CDCDD0"/>
<stop offset="1" stop-color="#F4F4F4"/>
</linearGradient>
<linearGradient id="paint1_linear" x1="0.15918" y1="46.5875" x2="44.5249" y2="46.5875" gradientUnits="userSpaceOnUse">
<stop stop-color="#E2E2E2"/>
<stop offset="0.585" stop-color="#C9C9C9"/>
</linearGradient>
<linearGradient id="paint2_linear" x1="48.0251" y1="79.4264" x2="92.3909" y2="79.4264" gradientUnits="userSpaceOnUse">
<stop stop-color="#E2E2E2"/>
<stop offset="0.585" stop-color="#C9C9C9"/>
</linearGradient>
</defs>
</svg>
