<svg width="128" height="128" viewBox="0 0 128 128" fill="none" xmlns="http://www.w3.org/2000/svg">
<path d="M8 43C12.4183 43 16 39.4183 16 35C16 30.5817 12.4183 27 8 27C3.58172 27 0 30.5817 0 35C0 39.4183 3.58172 43 8 43Z" fill="#3852C8"/>
<path d="M58 112C62.4183 112 66 108.418 66 104C66 99.5817 62.4183 96 58 96C53.5817 96 50 99.5817 50 104C50 108.418 53.5817 112 58 112Z" fill="#3852C8"/>
<path d="M52 70C56.4183 70 60 66.4183 60 62C60 57.5817 56.4183 54 52 54C47.5817 54 44 57.5817 44 62C44 66.4183 47.5817 70 52 70Z" fill="#3852C8"/>
<path d="M84 90C88.4183 90 92 86.4183 92 82C92 77.5817 88.4183 74 84 74C79.5817 74 76 77.5817 76 82C76 86.4183 79.5817 90 84 90Z" fill="#3852C8"/>
<path d="M111 106C115.418 106 119 102.418 119 98C119 93.5817 115.418 90 111 90C106.582 90 103 93.5817 103 98C103 102.418 106.582 106 111 106Z" fill="#3852C8"/>
<path d="M16 99C20.4183 99 24 95.4183 24 91C24 86.5817 20.4183 83 16 83C11.5817 83 8 86.5817 8 91C8 95.4183 11.5817 99 16 99Z" fill="#3852C8"/>
<path d="M120 58C124.418 58 128 54.4183 128 50C128 45.5817 124.418 42 120 42C115.582 42 112 45.5817 112 50C112 54.4183 115.582 58 120 58Z" fill="#3852C8"/>
<path d="M96 32C100.418 32 104 28.4183 104 24C104 19.5817 100.418 16 96 16C91.5817 16 88 19.5817 88 24C88 28.4183 91.5817 32 96 32Z" fill="#3852C8"/>
<path d="M93.2075 89.683L99.808 93.7065C100.289 92.4526 100.977 91.2884 101.843 90.2623L95.218 86.2241C94.7461 87.4815 94.0666 88.6507 93.2075 89.683ZM109.77 56.2405L105.225 60.1892L100.264 35.2036C99.0094 35.6827 97.6829 35.9462 96.3405 35.983L101.748 63.2117L91.1718 72.402C92.2502 73.2044 93.1873 74.181 93.9445 75.2916L102.645 67.7307L106.453 86.9014C107.696 86.3939 109.016 86.1002 110.358 86.0328L106.123 64.7087L112.385 59.2669C111.351 58.4104 110.467 57.3876 109.77 56.2405ZM68.181 97.6795L75.9809 90.9016C74.9803 90.0047 74.1366 88.9469 73.4846 87.7719L65.5388 94.6767C66.5803 95.5239 67.4732 96.5387 68.181 97.6795ZM85.7076 30.1387L59.3816 52.5591C60.4393 53.3872 61.3515 54.386 62.0806 55.5143L88.2961 33.1882C87.2698 32.3226 86.395 31.292 85.7076 30.1387ZM75.1108 73.9682L63.0696 66.6287C62.546 67.8653 61.8188 69.0053 60.9182 70.0013L72.9455 77.3324C73.4742 76.0979 74.2061 74.9608 75.1108 73.9682ZM16.8125 43.1176L40.7969 57.7371C41.2739 56.4818 41.9582 55.3155 42.8212 54.2868L19.0058 39.7701C18.4669 41.0007 17.7255 42.1322 16.8125 43.1176ZM33.8192 74.3293L24.3467 82.3968C25.3119 83.3354 26.1131 84.4291 26.7168 85.6325L36.1786 77.5745L49.3536 95.7012C50.2837 94.7328 51.369 93.9267 52.5648 93.316L39.2323 74.9729L43.9965 70.9158C42.995 70.0208 42.15 68.9648 41.4964 67.7914L36.8739 71.7278L16.3986 43.5571C15.4384 44.4962 14.3278 45.268 13.1128 45.8407L33.8192 74.3293Z" fill="#3852C8"/>
</svg>
