<svg width="100" height="100" viewBox="0 0 100 100" fill="none" xmlns="http://www.w3.org/2000/svg">
<path d="M50.0002 32.8447C34.2669 32.8447 21.5114 28.4002 21.5114 22.5336V77.4669C21.5114 83.1114 34.0447 87.6891 49.6002 87.778H50.0002C65.7336 87.778 78.4891 83.3336 78.4891 77.4669V22.5336C78.4891 28.2225 65.7336 32.8447 50.0002 32.8447Z" fill="url(#paint0_linear)"/>
<path d="M78.4891 22.5333C78.4891 28.2222 65.7336 32.8444 50.0002 32.8444C34.2669 32.8444 21.5114 28.3999 21.5114 22.5333C21.5114 16.6666 34.2669 12.2222 50.0002 12.2222C65.7336 12.2222 78.4891 16.6666 78.4891 22.5333Z" fill="#E8E8E8"/>
<path d="M71.8224 21.6886C71.8224 25.3331 62.0447 28.2664 50.0002 28.2664C37.9558 28.2664 28.1335 25.3331 28.1335 21.7331C28.1335 18.1331 37.9113 15.1553 50.0002 15.1553C62.0891 15.1553 71.8224 18.0886 71.8224 21.6886Z" fill="#50E6FF"/>
<path d="M50.0003 23.3332C44.1206 23.1871 38.259 24.0438 32.667 25.8666C38.2644 27.6544 44.1277 28.4663 50.0003 28.2666C55.8687 28.4091 61.7177 27.5371 67.2892 25.6888C61.6959 23.9542 55.8538 23.1583 50.0003 23.3332V23.3332Z" fill="#198AB3"/>
<path d="M63.3332 49.9999C63.3332 50.3555 63.3332 51.0666 63.3332 51.8666C63.1568 52.7917 63.0381 53.7268 62.9776 54.6666C62.9776 55.1999 62.9776 55.9999 63.1998 56.711C63.4221 57.4221 63.1998 57.911 63.1998 58.311C63.1822 59.6622 62.7981 60.9832 62.0887 62.1332C62.0803 62.2368 62.0803 62.3408 62.0887 62.4444L62.5332 62.9777C64.5346 59.66 66.117 56.1069 67.2443 52.3999V52.3999C68.4887 48.1777 68.6221 45.1555 67.6443 43.8666C66.2422 42.1445 64.3703 40.8667 62.2559 40.1881C60.1414 39.5096 57.8755 39.4597 55.7332 40.0443C57.243 40.7963 58.6113 41.8037 59.7776 43.0221C60.8036 43.8912 61.6463 44.9557 62.2567 46.1537C62.8672 47.3516 63.2331 48.6591 63.3332 49.9999V49.9999ZM61.9554 50.3555C60.7747 50.0671 59.5299 50.2089 58.4443 50.7555C57.1554 51.5555 57.5554 53.1999 58.4443 55.1999C58.8878 56.4888 59.4072 57.7502 59.9998 58.9777L60.3998 59.6888C60.6221 60.0444 60.7554 60.3555 60.8887 60.5777L61.2443 61.1555C61.7644 60.2813 62.0407 59.2837 62.0443 58.2666C62.0725 57.7781 62.0725 57.2884 62.0443 56.7999C62.0443 56.0444 62.0443 55.1999 61.8221 54.6221C61.8822 53.594 62.001 52.5701 62.1776 51.5555C62.0443 51.0666 62.0887 50.5777 62.1332 50.2221L61.9554 50.3555ZM60.6221 52.1777C60.3988 52.3931 60.123 52.5463 59.8221 52.6221V52.6221C59.617 52.6666 59.4049 52.6666 59.1998 52.6221C59.087 52.5144 59.0003 52.3824 58.9464 52.236C58.8924 52.0896 58.8727 51.9328 58.8887 51.7777C58.8887 51.4666 59.3776 51.1999 59.9554 51.111H60.7998C60.7998 51.111 61.1998 51.111 61.1998 51.4666C61.1759 51.585 61.1281 51.6973 61.0594 51.7967C60.9906 51.896 60.9023 51.9803 60.7998 52.0444L60.6221 52.1777ZM39.7776 56.1332C39.7776 55.8221 39.7776 55.5555 39.7776 55.3777C39.7991 55.1263 39.7991 54.8735 39.7776 54.6221C39.6439 53.1437 39.6439 51.6561 39.7776 50.1777C40.0422 48.5043 40.4893 46.8649 41.111 45.2888C41.6352 43.7154 42.5176 42.2853 43.6887 41.111C41.7415 40.5293 39.721 40.2299 37.6887 40.2221C35.96 40.1468 34.2509 40.6129 32.7998 41.5555C31.69 42.5591 30.8515 43.8267 30.3621 45.2407C29.8726 46.6547 29.748 48.1694 29.9998 49.6444C30.4279 53.025 31.1719 56.3581 32.2221 59.5999C33.7332 64.6666 35.4665 67.7777 36.9776 68.2666C37.6443 68.4888 38.3554 68.2666 39.0665 67.3332C40.311 65.8221 41.4665 64.5332 42.1332 63.7777C41.1424 62.771 40.4229 61.5296 40.0421 60.1694C39.6612 58.8092 39.6314 57.3747 39.9554 55.9999L39.7776 56.1332ZM40.9332 57.911C40.9141 58.7487 41.0037 59.5853 41.1998 60.3999C41.4703 61.1131 41.8612 61.7745 42.3554 62.3555C42.7934 62.8273 43.3226 63.2053 43.911 63.4666C44.462 63.6905 45.0496 63.811 45.6443 63.8221C45.6443 63.0666 46.2665 62.1332 46.6665 61.1555C47.0402 60.305 47.3521 59.4286 47.5998 58.5332C47.7382 56.8917 47.7382 55.2414 47.5998 53.5999C47.5998 53.1999 47.5998 52.7555 47.3332 52.2666C47.2955 51.8179 47.1076 51.3951 46.7998 51.0666V51.0666C46.4502 50.7303 46.0226 50.4859 45.5554 50.3555H44.6665C43.9266 50.4468 43.2062 50.6569 42.5332 50.9777C42.0339 51.2144 41.5578 51.4971 41.111 51.8221V52.311C41.111 53.1999 41.111 54.1332 41.111 55.0221C41.1304 55.2439 41.1304 55.467 41.111 55.6888V57.4221L40.9332 57.911ZM43.8665 51.9555C44.2712 51.8261 44.7062 51.8261 45.111 51.9555C45.4053 51.9967 45.6908 52.0868 45.9554 52.2221C46.3554 52.2221 46.3998 52.711 46.3554 52.8444C46.227 53.0772 46.044 53.2755 45.8221 53.4221C45.7264 53.3738 45.6368 53.3141 45.5554 53.2444V53.2444C45.244 53.1929 44.9565 53.0452 44.7333 52.822C44.5101 52.5988 44.3624 52.3113 44.311 51.9999L43.8665 51.9555ZM47.1554 65.2888C46.9393 65.3139 46.7369 65.4074 46.5776 65.5555L45.9554 66.311C45.1998 67.2444 44.8887 67.5555 42.711 67.9999C42.2925 68.0402 41.893 68.1939 41.5554 68.4444C41.8686 68.6871 42.2337 68.8544 42.6221 68.9332C43.6627 69.2666 44.7815 69.2666 45.8221 68.9332C46.4504 68.6299 47.0338 68.2411 47.5554 67.7777C47.9868 67.4212 48.2973 66.9399 48.4443 66.3999C48.4631 66.1728 48.4332 65.9443 48.3565 65.7297C48.2799 65.515 48.1583 65.3193 47.9998 65.1555C47.9066 65.0829 47.7957 65.0364 47.6785 65.0208C47.5614 65.0052 47.4422 65.021 47.3332 65.0666L47.1554 65.2888ZM67.6443 65.2888C66.0238 65.8876 64.2426 65.8876 62.6221 65.2888C62.4202 65.221 62.2017 65.221 61.9998 65.2888C61.6782 65.3929 61.4082 65.6153 61.2443 65.911C61.1786 66.3679 61.1786 66.8319 61.2443 67.2888C62.8802 67.6567 64.5904 67.5012 66.1332 66.8444C66.946 66.5023 67.6742 65.9865 68.2665 65.3332L67.6443 65.2888ZM56.9776 55.7777C56.3554 53.9555 55.4665 51.3332 57.7776 49.7332C58.9806 49.0638 60.3772 48.8284 61.7332 49.0666C61.1518 47.1832 60.1829 45.4422 58.8887 43.9555L58.4443 43.511L58.1776 43.2443C58.1002 43.1447 58.0106 43.0551 57.911 42.9777V42.9777C57.0314 42.191 56.0245 41.5598 54.9332 41.111C53.3792 40.431 51.6958 40.0973 49.9998 40.1332C48.9388 40.0488 47.8728 40.2163 46.8887 40.6221C46.4305 40.7446 45.9842 40.9082 45.5554 41.111C44.0354 42.2263 42.8888 43.7758 42.2665 45.5555C41.8261 47.0068 41.5138 48.494 41.3332 49.9999C42.6695 49.1983 44.2254 48.8405 45.7776 48.9777C46.2685 49.0169 46.7468 49.1528 47.1849 49.3776C47.6231 49.6024 48.0124 49.9117 48.3305 50.2877C48.6486 50.6636 48.8892 51.0987 49.0384 51.568C49.1876 52.0373 49.2424 52.5315 49.1998 53.0221C49.3647 54.9 49.3647 56.7887 49.1998 58.6666C48.9408 59.6277 48.5987 60.5646 48.1776 61.4666C47.911 62.2221 47.5554 63.0221 47.3776 63.6444C47.687 63.6245 47.997 63.6697 48.2879 63.7768C48.5787 63.884 48.844 64.0508 49.0665 64.2666C49.3723 64.5726 49.6065 64.9425 49.7525 65.3498C49.8985 65.757 49.9526 66.1915 49.911 66.6221H49.9998C49.9998 66.9777 49.9998 67.3332 49.9998 67.6888C49.6697 71.3385 50.0316 75.0178 51.0665 78.5332C51.32 78.9446 51.6918 79.2699 52.1332 79.4666C52.5427 79.7389 53.0195 79.8928 53.511 79.911C54.3163 79.9842 55.128 79.8875 55.8936 79.6272C56.6592 79.3669 57.3616 78.9488 57.9554 78.3999C58.7177 77.6049 59.1743 76.5658 59.2443 75.4666C59.5554 73.4666 60.2221 67.911 60.311 66.5777C60.2324 65.8999 60.3725 65.2147 60.711 64.6221C60.9983 64.1571 61.4154 63.7863 61.911 63.5555C59.8102 61.2142 58.1939 58.4802 57.1554 55.511L56.9776 55.7777Z" fill="#F2F2F2"/>
<defs>
<linearGradient id="paint0_linear" x1="21.4752" y1="55.1983" x2="78.4974" y2="55.1884" gradientUnits="userSpaceOnUse">
<stop stop-color="#005BA1"/>
<stop offset="0.07" stop-color="#0060A9"/>
<stop offset="0.36" stop-color="#0071C8"/>
<stop offset="0.52" stop-color="#0078D4"/>
<stop offset="0.64" stop-color="#0074CD"/>
<stop offset="0.82" stop-color="#006ABB"/>
<stop offset="1" stop-color="#005BA1"/>
</linearGradient>
</defs>
</svg>
