<svg width="16" height="16" viewBox="0 0 16 16" fill="none" xmlns="http://www.w3.org/2000/svg">
<path d="M8.00004 4.36708C4.66804 4.36708 1.96704 3.42608 1.96704 2.18408V13.8161C1.96704 15.0161 4.62104 15.9811 7.91504 16.0001H8.00004C11.332 16.0001 14.033 15.0591 14.033 13.8161V2.18408C14.033 3.40008 11.332 4.36708 8.00004 4.36708Z" fill="url(#paint0_linear)"/>
<path d="M14.033 2.184C14.033 3.398 11.333 4.367 8.00004 4.367C4.66704 4.367 1.96704 3.426 1.96704 2.184C1.96704 0.942 4.66804 0 8.00004 0C11.332 0 14.033 0.941 14.033 2.184Z" fill="#E8E8E8"/>
<path d="M12.6311 2.00509C12.6311 2.77609 10.5511 3.40009 8.00014 3.40009C5.44914 3.40009 3.36914 2.77609 3.36914 2.00509C3.36914 1.23409 5.44914 0.621094 8.00014 0.621094C10.5511 0.621094 12.6311 1.24209 12.6311 2.00509Z" fill="#50E6FF"/>
<path d="M8.00011 2.35294C6.75813 2.32131 5.5199 2.5026 4.33911 2.88894C5.52075 3.26952 6.75942 3.44241 8.00011 3.39994C9.24313 3.43589 10.4827 3.25103 11.6611 2.85394C10.4772 2.48406 9.23984 2.31473 8.00011 2.35294Z" fill="#198AB3"/>
<path d="M12.1211 10.1309V8.03095H11.5651V10.5809H13.0841V10.1299L12.1211 10.1309ZM7.71307 9.09995C7.59892 9.05398 7.49316 8.98944 7.40007 8.90895C7.37471 8.88245 7.35505 8.85103 7.34232 8.81663C7.32959 8.78222 7.32406 8.74558 7.32607 8.70895C7.32416 8.6728 7.33163 8.63677 7.34775 8.60435C7.36387 8.57194 7.38809 8.54424 7.41807 8.52395C7.49444 8.47178 7.58568 8.44581 7.67807 8.44995C7.89783 8.44013 8.11469 8.50304 8.29507 8.62895V8.09995C8.09735 8.02612 7.88698 7.99213 7.67607 7.99995C7.43275 7.98711 7.19289 8.06198 7.00007 8.21095C6.91629 8.2755 6.84903 8.35902 6.80383 8.45463C6.75862 8.55025 6.73677 8.65524 6.74007 8.76095C6.74007 9.07595 6.94007 9.32295 7.35807 9.50795C7.49425 9.56556 7.6226 9.64015 7.74007 9.72995C7.7695 9.75425 7.79312 9.78482 7.80922 9.81942C7.82531 9.85402 7.83346 9.89179 7.83307 9.92995C7.83294 9.96747 7.82378 10.0044 7.80638 10.0377C7.78897 10.0709 7.76383 10.0995 7.73307 10.1209C7.64901 10.1702 7.55238 10.1939 7.45507 10.1889C7.20706 10.187 6.96822 10.095 6.78307 9.92995V10.4999C6.98675 10.605 7.21402 10.656 7.44307 10.6479C7.70158 10.6645 7.95819 10.5941 8.17207 10.4479C8.24674 10.3762 8.30369 10.2881 8.3384 10.1906C8.37311 10.093 8.38464 9.98872 8.37207 9.88595C8.37484 9.72804 8.32011 9.5745 8.21807 9.45395C8.07619 9.30211 7.90419 9.18154 7.71307 9.09995ZM10.9481 10.0819C11.0869 9.84671 11.1562 9.57697 11.1481 9.30395C11.1353 9.07298 11.0667 8.84856 10.9481 8.64995C10.8515 8.45734 10.7015 8.2966 10.5161 8.18695C10.3283 8.08054 10.1159 8.02504 9.90007 8.02595C9.66683 8.02123 9.43657 8.07889 9.23307 8.19295C9.04256 8.29926 8.88643 8.45782 8.78307 8.64995C8.67373 8.86688 8.61849 9.10705 8.62207 9.34995C8.62353 9.56423 8.67417 9.77532 8.77007 9.96695C8.86492 10.1573 9.01289 10.316 9.19607 10.4239C9.38279 10.5376 9.59561 10.6013 9.81407 10.6089L10.3451 11.2259H11.0921L10.3321 10.5469C10.5868 10.4714 10.8056 10.3063 10.9481 10.0819ZM10.3301 9.92795C10.2738 9.99761 10.2022 10.0533 10.1208 10.0908C10.0395 10.1283 9.95059 10.1465 9.86107 10.1439C9.77088 10.1469 9.6813 10.1282 9.59974 10.0896C9.51818 10.051 9.44699 9.99355 9.39207 9.92195C9.26042 9.74246 9.19696 9.52196 9.21307 9.29995C9.19885 9.07969 9.26218 8.8614 9.39207 8.68295C9.45034 8.61135 9.52384 8.55365 9.60722 8.51404C9.6906 8.47442 9.78176 8.4539 9.87407 8.45395C9.96425 8.45031 10.0539 8.46936 10.1348 8.50937C10.2157 8.54939 10.2852 8.60907 10.3371 8.68295C10.4573 8.86529 10.5146 9.082 10.5001 9.29995C10.5237 9.52316 10.4631 9.74714 10.3301 9.92795Z" fill="url(#paint1_radial)"/>
<path d="M5.02502 9.49991C5.02502 10.2659 4.66802 10.6489 3.95402 10.6489C3.26202 10.6489 2.91602 10.2749 2.91602 9.52691V8.05791H3.49202V9.53691C3.49202 9.94957 3.65335 10.1559 3.97602 10.1559C4.29868 10.1559 4.45668 9.95591 4.45002 9.55591V8.05591H5.02502V9.49991Z" fill="url(#paint2_radial)"/>
<path d="M6.41294 9.83194H5.43994V9.43994H6.41294V9.83194Z" fill="url(#paint3_radial)"/>
<defs>
<linearGradient id="paint0_linear" x1="1.96704" y1="9.09208" x2="14.033" y2="9.09208" gradientUnits="userSpaceOnUse">
<stop stop-color="#005BA1"/>
<stop offset="0.07" stop-color="#0060A9"/>
<stop offset="0.36" stop-color="#0071C8"/>
<stop offset="0.52" stop-color="#0078D4"/>
<stop offset="0.64" stop-color="#0074CD"/>
<stop offset="0.82" stop-color="#006ABB"/>
<stop offset="1" stop-color="#005BA1"/>
</linearGradient>
<radialGradient id="paint1_radial" cx="0" cy="0" r="1" gradientUnits="userSpaceOnUse" gradientTransform="translate(9.93507 9.61895) scale(4.365)">
<stop stop-color="#F2F2F2"/>
<stop offset="0.58" stop-color="#EEEEEE"/>
<stop offset="1" stop-color="#E6E6E6"/>
</radialGradient>
<radialGradient id="paint2_radial" cx="0" cy="0" r="1" gradientUnits="userSpaceOnUse" gradientTransform="translate(11.2887 32.3134) scale(2.49284 3.06493)">
<stop stop-color="#F2F2F2"/>
<stop offset="0.58" stop-color="#EEEEEE"/>
<stop offset="1" stop-color="#E6E6E6"/>
</radialGradient>
<radialGradient id="paint3_radial" cx="0" cy="0" r="1" gradientUnits="userSpaceOnUse" gradientTransform="translate(11.2069 13.2173) scale(0.360983 0.145432)">
<stop stop-color="#F2F2F2"/>
<stop offset="0.58" stop-color="#EEEEEE"/>
<stop offset="1" stop-color="#E6E6E6"/>
</radialGradient>
</defs>
</svg>
