<svg width="16" height="16" viewBox="0 0 16 16" fill="none" xmlns="http://www.w3.org/2000/svg">
<path d="M13.1281 2.11206H9.02806C9.00349 2.10934 8.9808 2.09762 8.96436 2.07915C8.94793 2.06068 8.93891 2.03678 8.93906 2.01206V0.846062C8.94681 0.821515 8.94479 0.794927 8.93343 0.77183C8.92207 0.748734 8.90224 0.730908 8.87806 0.722062C8.85339 0.714369 8.82669 0.716528 8.80358 0.728087C8.78046 0.739646 8.76271 0.759706 8.75406 0.784062L6.80706 2.72306L6.79406 2.73506C6.7817 2.74901 6.77221 2.76526 6.76617 2.78289C6.76012 2.80052 6.75763 2.81918 6.75884 2.83777C6.76005 2.85637 6.76493 2.87455 6.77321 2.89125C6.78149 2.90795 6.79299 2.92284 6.80706 2.93506L8.77206 4.88306C8.78155 4.89332 8.7932 4.90134 8.80618 4.90653C8.81915 4.91172 8.83312 4.91395 8.84706 4.91306C8.87235 4.91129 8.89602 4.89997 8.91329 4.88141C8.93056 4.86284 8.94012 4.83842 8.94006 4.81306V3.65206C8.93994 3.62672 8.94882 3.60215 8.96512 3.58273C8.98141 3.56332 9.00408 3.55033 9.02906 3.54606H11.6941C11.7333 3.54824 11.7704 3.56488 11.7981 3.59276C11.8258 3.62065 11.8421 3.6578 11.8441 3.69706V12.8751C11.8441 12.9148 11.8283 12.953 11.8001 12.9811C11.772 13.0093 11.7338 13.0251 11.6941 13.0251H6.91206C6.89154 13.0253 6.87127 13.0297 6.85243 13.0378C6.83359 13.046 6.81656 13.0578 6.80232 13.0726C6.78809 13.0874 6.77693 13.1048 6.76951 13.124C6.76208 13.1431 6.75853 13.1635 6.75906 13.1841V14.3181C6.7636 14.357 6.78319 14.3926 6.81366 14.4173C6.84412 14.442 6.88303 14.4537 6.92206 14.4501H13.1071C13.146 14.4537 13.1848 14.4419 13.2151 14.4172C13.2454 14.3925 13.2648 14.3569 13.2691 14.3181V2.26206C13.2689 2.22386 13.2543 2.18714 13.2281 2.15931C13.2019 2.13147 13.1662 2.11459 13.1281 2.11206Z" fill="#999999"/>
<path d="M5.57996 1.10913H2.93496C2.77038 1.10913 2.63696 1.24255 2.63696 1.40713V4.05213C2.63696 4.21671 2.77038 4.35013 2.93496 4.35013H5.57996C5.74454 4.35013 5.87796 4.21671 5.87796 4.05213V1.40713C5.87796 1.24255 5.74454 1.10913 5.57996 1.10913Z" fill="url(#paint0_linear)"/>
<path d="M5.57996 6.57617H2.93496C2.77038 6.57617 2.63696 6.70959 2.63696 6.87417V9.51917C2.63696 9.68375 2.77038 9.81717 2.93496 9.81717H5.57996C5.74454 9.81717 5.87796 9.68375 5.87796 9.51917V6.87417C5.87796 6.70959 5.74454 6.57617 5.57996 6.57617Z" fill="url(#paint1_linear)"/>
<path d="M5.57996 12.042H2.93496C2.77038 12.042 2.63696 12.1754 2.63696 12.34V14.985C2.63696 15.1496 2.77038 15.283 2.93496 15.283H5.57996C5.74454 15.283 5.87796 15.1496 5.87796 14.985V12.34C5.87796 12.1754 5.74454 12.042 5.57996 12.042Z" fill="url(#paint2_linear)"/>
<defs>
<linearGradient id="paint0_linear" x1="4.25796" y1="1.10913" x2="4.25796" y2="4.33813" gradientUnits="userSpaceOnUse">
<stop stop-color="#379CE5"/>
<stop offset="0.379" stop-color="#218DDC"/>
<stop offset="1" stop-color="#1988D9"/>
</linearGradient>
<linearGradient id="paint1_linear" x1="16.4371" y1="14.9574" x2="16.4371" y2="25.4226" gradientUnits="userSpaceOnUse">
<stop stop-color="#379CE5"/>
<stop offset="0.379" stop-color="#218DDC"/>
<stop offset="1" stop-color="#1988D9"/>
</linearGradient>
<linearGradient id="paint2_linear" x1="16.4371" y1="38.1385" x2="16.4371" y2="48.607" gradientUnits="userSpaceOnUse">
<stop stop-color="#379CE5"/>
<stop offset="0.379" stop-color="#218DDC"/>
<stop offset="1" stop-color="#1988D9"/>
</linearGradient>
</defs>
</svg>
