<svg width="76" height="31" viewBox="0 0 76 31" fill="none" xmlns="http://www.w3.org/2000/svg">
<g id="Group 98">
<g id="Gear3">
<g id="root-custom">
<path id="GearRoot" d="M45.8383 17.0464C45.7374 17.3603 45.7329 17.6972 45.8253 18.0137C45.9177 18.3301 46.1028 18.6117 46.3567 18.822L46.4227 18.8754C46.627 19.0407 46.7968 19.2446 46.9223 19.4756C47.0477 19.7065 47.1265 19.9599 47.1539 20.2213C47.1814 20.4827 47.1571 20.7469 47.0824 20.9989C47.0076 21.2509 46.884 21.4857 46.7185 21.6899C46.5532 21.8942 46.3492 22.064 46.1183 22.1895C45.8873 22.3149 45.6339 22.3937 45.3725 22.4211C45.1112 22.4486 44.8469 22.4243 44.5949 22.3496C44.3429 22.2749 44.1081 22.1512 43.904 21.9857L43.838 21.9323C43.5796 21.7276 43.2657 21.6051 42.9369 21.5805C42.6082 21.556 42.2796 21.6304 41.9935 21.7943C41.7126 21.9513 41.4838 22.187 41.3351 22.4724C41.1864 22.7578 41.1245 23.0804 41.1568 23.4006L41.1746 23.5697C41.23 24.0972 41.0737 24.6251 40.7398 25.0374C40.406 25.4496 39.9221 25.7123 39.3946 25.7678C38.8671 25.8232 38.3391 25.6668 37.9269 25.333C37.5147 24.9992 37.252 24.5153 37.1965 23.9878L37.1871 23.8983C37.1448 23.5699 37.0047 23.2618 36.785 23.0141C36.5653 22.7665 36.2762 22.5906 35.9552 22.5094C35.6413 22.4086 35.3044 22.404 34.9879 22.4965C34.6715 22.5889 34.3899 22.7739 34.1796 23.0279L34.1262 23.0938C33.961 23.2982 33.757 23.4679 33.5261 23.5934C33.2951 23.7189 33.0417 23.7976 32.7803 23.8251C32.5189 23.8525 32.2547 23.8282 32.0027 23.7535C31.7507 23.6788 31.5159 23.5551 31.3118 23.3896C31.1074 23.2243 30.9376 23.0204 30.8122 22.7894C30.6867 22.5585 30.608 22.3051 30.5805 22.0437C30.553 21.7823 30.5773 21.518 30.652 21.2661C30.7268 21.0141 30.8504 20.7793 31.0159 20.5751L31.0693 20.5092C31.274 20.2507 31.3965 19.9368 31.4211 19.6081C31.4457 19.2793 31.3712 18.9507 31.2073 18.6647C31.0503 18.3838 30.8146 18.1549 30.5292 18.0062C30.2438 17.8576 29.9212 17.7956 29.601 17.828L29.432 17.8457C28.9044 17.9012 28.3765 17.7448 27.9643 17.411C27.552 17.0772 27.2893 16.5933 27.2339 16.0658C27.1784 15.5382 27.3348 15.0103 27.6686 14.5981C28.0024 14.1858 28.4863 13.9231 29.0138 13.8676L29.1034 13.8582C29.4317 13.8159 29.7398 13.6758 29.9875 13.4561C30.2351 13.2364 30.411 12.9473 30.4922 12.6263C30.593 12.3124 30.5976 11.9755 30.5052 11.6591C30.4128 11.3426 30.2277 11.0611 29.9738 10.8508L29.9078 10.7974C29.7035 10.6321 29.5337 10.4281 29.4082 10.1972C29.2827 9.96625 29.204 9.71284 29.1765 9.45145C29.1491 9.19006 29.1734 8.92582 29.2481 8.67383C29.3228 8.42184 29.4465 8.18705 29.612 7.98289C29.7773 7.77854 29.9812 7.60877 30.2122 7.4833C30.4431 7.35782 30.6965 7.27909 30.9579 7.25162C31.2193 7.22415 31.4836 7.24846 31.7356 7.32318C31.9875 7.3979 32.2223 7.52155 32.4265 7.68707L32.4924 7.74047C32.7509 7.94511 33.0648 8.06762 33.3936 8.09221C33.7223 8.1168 34.0509 8.04234 34.337 7.87842L34.4165 7.87006C34.6974 7.71308 34.9263 7.47738 35.0749 7.19199C35.2236 6.90659 35.2856 6.58396 35.2532 6.2638L35.2354 6.09474C35.18 5.56721 35.3364 5.03926 35.6702 4.62704C36.004 4.21481 36.4879 3.95208 37.0154 3.89663C37.543 3.84119 38.0709 3.99757 38.4831 4.33139C38.8953 4.6652 39.1581 5.14909 39.2135 5.67662L39.2229 5.76613C39.2578 6.08602 39.3855 6.38872 39.5903 6.63697C39.795 6.88521 40.0679 7.06818 40.3753 7.16333C40.6892 7.26419 41.0261 7.2687 41.3425 7.1763C41.659 7.08389 41.9405 6.8988 42.1508 6.64489L42.2042 6.57895C42.3695 6.3746 42.5735 6.20483 42.8044 6.07936C43.0354 5.95388 43.2888 5.87516 43.5502 5.84768C43.8116 5.82021 44.0758 5.84453 44.3278 5.91925C44.5798 5.99396 44.8146 6.11762 45.0187 6.28314C45.2231 6.44843 45.3928 6.65238 45.5183 6.88332C45.6438 7.11427 45.7225 7.36768 45.75 7.62907C45.7775 7.89046 45.7531 8.1547 45.6784 8.40669C45.6037 8.65868 45.4801 8.89347 45.3145 9.09763L45.2611 9.16358C45.0565 9.42206 44.934 9.73592 44.9094 10.0647C44.8848 10.3935 44.9593 10.7221 45.1232 11.0081L45.1316 11.0877C45.2885 11.3686 45.5242 11.5974 45.8096 11.7461C46.095 11.8947 46.4177 11.9567 46.7378 11.9243L46.9069 11.9066C47.4344 11.8511 47.9624 12.0075 48.3746 12.3413C48.7868 12.6751 49.0495 13.159 49.105 13.6866C49.1604 14.2141 49.004 14.742 48.6702 15.1543C48.3364 15.5665 47.8525 15.8292 47.325 15.8847L47.2355 15.8941C46.9156 15.929 46.6129 16.0567 46.3646 16.2614C46.1164 16.4662 45.9334 16.739 45.8383 17.0464V17.0464Z" fill="#FF0000" stroke="black" stroke-width="2" stroke-linecap="round" stroke-linejoin="round"/>
</g>
<path id="Vector" d="M38.5018 18.1717C40.1496 17.9985 41.345 16.5223 41.1718 14.8745C40.9986 13.2267 39.5225 12.0314 37.8747 12.2045C36.2269 12.3777 35.0315 13.8539 35.2047 15.5017C35.3779 17.1495 36.8541 18.3449 38.5018 18.1717Z" fill="#D9D9D9" stroke="black" stroke-width="2" stroke-linecap="round" stroke-linejoin="round"/>
</g>
<g id="Gear2" clip-path="url(#clip0_357_80)">
<g id="root-custom">
<path id="GearRoot" d="M23.8256 15.3428C23.7979 15.6713 23.8693 16.0006 24.0306 16.2882C24.1918 16.5758 24.4355 16.8084 24.7302 16.9562L24.8064 16.9934C25.0427 17.1085 25.254 17.269 25.4282 17.4658C25.6024 17.6626 25.7362 17.8918 25.8217 18.1404C25.9073 18.3889 25.943 18.6518 25.9269 18.9141C25.9108 19.1765 25.8431 19.4331 25.7278 19.6692C25.6127 19.9055 25.4522 20.1168 25.2554 20.291C25.0586 20.4652 24.8294 20.599 24.5809 20.6845C24.3323 20.7701 24.0694 20.8058 23.8071 20.7897C23.5447 20.7736 23.2881 20.7059 23.052 20.5906L22.9757 20.5534C22.6778 20.4121 22.3444 20.3634 22.0186 20.4134C21.6927 20.4634 21.3893 20.6098 21.1474 20.8339C20.909 21.0501 20.7391 21.3312 20.6584 21.6427C20.5778 21.9542 20.59 22.2825 20.6935 22.5872L20.7489 22.7479C20.9216 23.2495 20.8879 23.7991 20.6554 24.2758C20.4229 24.7526 20.0105 25.1174 19.509 25.2901C19.0074 25.4628 18.4578 25.4292 17.9811 25.1967C17.5043 24.9641 17.1395 24.5518 16.9668 24.0502L16.9375 23.9651C16.8224 23.6547 16.6166 23.386 16.3468 23.1941C16.077 23.0022 15.7557 22.8959 15.4247 22.889C15.0962 22.8613 14.7669 22.9327 14.4793 23.0939C14.1918 23.2552 13.9591 23.4989 13.8113 23.7936L13.7741 23.8698C13.659 24.1061 13.4985 24.3174 13.3017 24.4916C13.1049 24.6658 12.8757 24.7996 12.6272 24.8851C12.3787 24.9707 12.1157 25.0064 11.8534 24.9903C11.5911 24.9742 11.3345 24.9065 11.0983 24.7912C10.862 24.6761 10.6507 24.5156 10.4765 24.3188C10.3023 24.122 10.1686 23.8928 10.083 23.6442C9.99743 23.3957 9.96169 23.1328 9.97781 22.8705C9.99392 22.6081 10.0616 22.3515 10.1769 22.1154L10.2141 22.0391C10.3554 21.7412 10.4042 21.4078 10.3542 21.082C10.3042 20.7561 10.1577 20.4527 9.93362 20.2108C9.71748 19.9724 9.43634 19.8025 9.12482 19.7218C8.8133 19.6412 8.485 19.6534 8.18032 19.7569L8.01959 19.8123C7.51805 19.9849 6.96846 19.9513 6.49171 19.7188C6.01496 19.4863 5.6501 19.0739 5.47741 18.5724C5.30472 18.0708 5.33833 17.5212 5.57086 17.0445C5.80339 16.5677 6.21578 16.2029 6.71731 16.0302L6.80241 16.0009C7.11285 15.8858 7.38149 15.68 7.57341 15.4102C7.76532 15.1404 7.87164 14.8191 7.87853 14.4881C7.9062 14.1596 7.83481 13.8303 7.67359 13.5427C7.51236 13.2552 7.26868 13.0225 6.97397 12.8747L6.89771 12.8375C6.66141 12.7224 6.45012 12.5619 6.27591 12.3651C6.1017 12.1683 5.96798 11.9391 5.88241 11.6906C5.79684 11.4421 5.7611 11.1791 5.77722 10.9168C5.79333 10.6544 5.861 10.3979 5.97635 10.1617C6.09144 9.9254 6.25197 9.7141 6.44877 9.53989C6.64557 9.36568 6.87478 9.23197 7.12329 9.1464C7.3718 9.06083 7.63474 9.02508 7.89708 9.0412C8.15941 9.05732 8.416 9.12498 8.65217 9.24033L8.72843 9.27753C9.02633 9.41878 9.35971 9.46755 9.68558 9.41755C10.0114 9.36755 10.3149 9.22108 10.5567 8.99702L10.6324 8.97097C10.8707 8.75482 11.0407 8.47368 11.1214 8.16216C11.202 7.85065 11.1898 7.52234 11.0863 7.21767L11.0309 7.05693C10.8582 6.5554 10.8918 6.0058 11.1244 5.52905C11.3569 5.0523 11.7693 4.68745 12.2708 4.51476C12.7724 4.34207 13.3219 4.37568 13.7987 4.60821C14.2754 4.84073 14.6403 5.25313 14.813 5.75466L14.8423 5.83976C14.9483 6.14359 15.1408 6.40981 15.3961 6.60564C15.6515 6.80147 15.9585 6.91836 16.2794 6.94192C16.6079 6.96959 16.9372 6.8982 17.2248 6.73698C17.5124 6.57575 17.745 6.33207 17.8928 6.03737L17.93 5.9611C18.0451 5.72481 18.2056 5.51351 18.4024 5.3393C18.5992 5.16509 18.8285 5.03138 19.077 4.94581C19.3255 4.86024 19.5884 4.82449 19.8508 4.84061C20.1131 4.85673 20.3697 4.92439 20.6058 5.03974C20.8421 5.15483 21.0534 5.31536 21.2276 5.51216C21.4019 5.70896 21.5356 5.93817 21.6211 6.18668C21.7067 6.43519 21.7425 6.69813 21.7263 6.96047C21.7102 7.22281 21.6425 7.47939 21.5272 7.71556L21.49 7.79183C21.3488 8.08972 21.3 8.4231 21.35 8.74897C21.4 9.07484 21.5465 9.37826 21.7705 9.62011L21.7966 9.69575C22.0127 9.93413 22.2939 10.1041 22.6054 10.1848C22.9169 10.2654 23.2452 10.2532 23.5499 10.1497L23.7106 10.0943C24.2121 9.92162 24.7617 9.95524 25.2385 10.1878C25.7152 10.4203 26.0801 10.8327 26.2528 11.3342C26.4255 11.8357 26.3919 12.3853 26.1593 12.8621C25.9268 13.3388 25.5144 13.7037 25.0129 13.8764L24.9278 13.9057C24.6239 14.0117 24.3577 14.2042 24.1619 14.4595C23.9661 14.7149 23.8492 15.0219 23.8256 15.3428V15.3428Z" fill="#FF0000" stroke="black" stroke-width="2" stroke-linecap="round" stroke-linejoin="round"/>
</g>
<path id="Vector_2" d="M16.9301 18.0896C18.4967 17.5502 19.3294 15.8429 18.79 14.2763C18.2505 12.7097 16.5433 11.8771 14.9767 12.4165C13.4101 12.9559 12.5774 14.6632 13.1168 16.2297C13.6563 17.7963 15.3635 18.629 16.9301 18.0896Z" fill="#D9D9D9" stroke="black" stroke-width="2" stroke-linecap="round" stroke-linejoin="round"/>
</g>
<g id="Gear1" clip-path="url(#clip1_357_80)">
<g id="root-custom">
<path id="GearRoot" d="M68.3997 16.3444C68.3548 16.6711 68.4089 17.0036 68.5548 17.2992C68.7008 17.5948 68.932 17.84 69.2185 18.003L69.2927 18.0441C69.5227 18.1714 69.7253 18.3428 69.889 18.5484C70.0526 18.7541 70.1742 18.99 70.2466 19.2426C70.3191 19.4953 70.341 19.7597 70.3112 20.0208C70.2814 20.282 70.2003 20.5347 70.0728 20.7645C69.9455 20.9944 69.7741 21.197 69.5685 21.3607C69.3628 21.5244 69.1269 21.6459 68.8743 21.7184C68.6216 21.7908 68.3572 21.8127 68.0961 21.7829C67.8349 21.7531 67.5822 21.6721 67.3524 21.5445L67.2782 21.5034C66.9881 21.3467 66.6577 21.2806 66.3297 21.3135C66.0017 21.3463 65.691 21.4767 65.4378 21.6878C65.1884 21.8912 65.0039 22.1631 64.9071 22.4699C64.8102 22.7768 64.8052 23.1053 64.8927 23.415L64.9396 23.5784C65.0858 24.0883 65.0234 24.6354 64.7663 25.0993C64.5091 25.5632 64.0782 25.906 63.5683 26.0522C63.0584 26.1984 62.5113 26.1361 62.0474 25.8789C61.5835 25.6217 61.2407 25.1908 61.0945 24.6809L61.0697 24.5944C60.971 24.2784 60.7796 23.9993 60.5202 23.7936C60.2608 23.5878 59.9455 23.4648 59.6153 23.4406C59.2887 23.3958 58.9562 23.4498 58.6605 23.5958C58.3649 23.7418 58.1198 23.9729 57.9568 24.2595L57.9157 24.3337C57.7884 24.5637 57.617 24.7663 57.4113 24.9299C57.2057 25.0936 56.9698 25.2151 56.7172 25.2876C56.4645 25.36 56.2001 25.382 55.9389 25.3521C55.6778 25.3223 55.4251 25.2413 55.1953 25.1138C54.9653 24.9865 54.7627 24.8151 54.5991 24.6094C54.4354 24.4038 54.3139 24.1679 54.2414 23.9153C54.169 23.6626 54.147 23.3982 54.1769 23.137C54.2067 22.8759 54.2877 22.6232 54.4152 22.3934L54.4564 22.3192C54.613 22.0291 54.6792 21.6987 54.6463 21.3707C54.6134 21.0426 54.483 20.732 54.2719 20.4787C54.0686 20.2293 53.7967 20.0449 53.4898 19.948C53.183 19.8512 52.8545 19.8462 52.5448 19.9337L52.3814 19.9805C51.8715 20.1267 51.3244 20.0644 50.8605 19.8072C50.3966 19.5501 50.0538 19.1192 49.9076 18.6093C49.7614 18.0994 49.8237 17.5523 50.0809 17.0884C50.338 16.6245 50.7689 16.2817 51.2788 16.1355L51.3653 16.1107C51.6814 16.012 51.9604 15.8205 52.1662 15.5611C52.372 15.3018 52.4949 14.9865 52.5192 14.6563C52.564 14.3297 52.5099 13.9971 52.364 13.7015C52.218 13.4059 51.9868 13.1608 51.7003 12.9978L51.6261 12.9566C51.3961 12.8293 51.1935 12.658 51.0298 12.4523C50.8662 12.2467 50.7446 12.0108 50.6722 11.7581C50.5997 11.5055 50.5778 11.241 50.6076 10.9799C50.6375 10.7188 50.7185 10.4661 50.846 10.2363C50.9733 10.0063 51.1447 9.8037 51.3503 9.64003C51.556 9.47635 51.7919 9.35482 52.0445 9.28237C52.2972 9.20993 52.5616 9.18799 52.8227 9.21782C53.0839 9.24764 53.3366 9.32865 53.5664 9.4562L53.6406 9.49733C53.9307 9.65398 54.2611 9.72013 54.5891 9.68725C54.9171 9.65438 55.2278 9.52399 55.4811 9.31289L55.558 9.29084C55.8073 9.08746 55.9918 8.81561 56.0886 8.50873C56.1855 8.20186 56.1905 7.87337 56.103 7.5637L56.0561 7.40028C55.9099 6.8904 55.9723 6.34332 56.2294 5.87939C56.4866 5.41546 56.9175 5.07269 57.4274 4.92649C57.9373 4.78028 58.4844 4.84261 58.9483 5.09977C59.4122 5.35693 59.755 5.78785 59.9012 6.29773L59.926 6.38425C60.0159 6.69321 60.1942 6.96914 60.439 7.17807C60.6837 7.38699 60.9842 7.51979 61.3035 7.56012C61.6301 7.60494 61.9627 7.55089 62.2583 7.40493C62.5539 7.25897 62.799 7.02781 62.962 6.74124L63.0031 6.66703C63.1304 6.43708 63.3018 6.23447 63.5075 6.0708C63.7131 5.90713 63.949 5.78559 64.2016 5.71315C64.4543 5.6407 64.7188 5.61876 64.9799 5.64859C65.241 5.67842 65.4937 5.75942 65.7235 5.88697C65.9535 6.01427 66.1561 6.18564 66.3197 6.39129C66.4834 6.59693 66.6049 6.83283 66.6774 7.08548C66.7498 7.33812 66.7718 7.60258 66.742 7.86371C66.7121 8.12484 66.6311 8.37754 66.5036 8.60734L66.4624 8.68156C66.3058 8.97165 66.2396 9.30202 66.2725 9.63006C66.3054 9.9581 66.4358 10.2688 66.6469 10.522L66.6689 10.5989C66.8723 10.8483 67.1442 11.0327 67.451 11.1296C67.7579 11.2264 68.0864 11.2314 68.3961 11.144L68.5595 11.0971C69.0694 10.9509 69.6165 11.0132 70.0804 11.2704C70.5443 11.5275 70.8871 11.9585 71.0333 12.4684C71.1795 12.9782 71.1172 13.5253 70.86 13.9892C70.6028 14.4532 70.1719 14.7959 69.662 14.9422L69.5755 14.967C69.2666 15.0569 68.9906 15.2352 68.7817 15.4799C68.5728 15.7247 68.44 16.0252 68.3997 16.3444V16.3444Z" fill="#FF0000" stroke="black" stroke-width="2" stroke-linecap="round" stroke-linejoin="round"/>
</g>
<path id="Vector_3" d="M61.3701 18.7265C62.9628 18.2699 63.8837 16.6085 63.427 15.0158C62.9703 13.4232 61.309 12.5023 59.7163 12.959C58.1236 13.4157 57.2027 15.077 57.6594 16.6697C58.1161 18.2623 59.7775 19.1832 61.3701 18.7265Z" fill="#D9D9D9" stroke="black" stroke-width="2" stroke-linecap="round" stroke-linejoin="round"/>
</g>
</g>
<defs>
<clipPath id="clip0_357_80">
<rect width="24" height="24" fill="white" transform="translate(0.700195 7.81366) rotate(-19)"/>
</clipPath>
<clipPath id="clip1_357_80">
<rect width="24" height="24" fill="white" transform="translate(45.7002 7.6153) rotate(-16)"/>
</clipPath>
</defs>
</svg>
