<svg width="16" height="16" viewBox="0 0 16 16" fill="none" xmlns="http://www.w3.org/2000/svg">
<path d="M0.634033 4.18V4.66L8.00003 8.805L14.612 5.105V6.612L8.00003 10.347L1.01103 6.372L0.634033 6.578V9.456L8.00003 13.602L14.612 9.901V11.375L8.00003 15.109L1.01103 11.135L0.634033 11.34V11.854L8.00003 16L15.366 11.854V8.977L15.023 8.771L8.00003 12.745L1.42203 8.977V7.503L8.00003 11.204L15.366 7.058V4.214L15.023 4.009L8.00003 7.983L1.76403 4.454L8.00003 0.925L13.173 3.837L13.619 3.564V3.187L8.00003 0L0.634033 4.18Z" fill="#EF3E2B"/>
</svg>
