<svg width="16" height="16" viewBox="0 0 16 16" fill="none" xmlns="http://www.w3.org/2000/svg">
<path d="M6.12202 3.36388C3.74802 3.36388 1.82202 2.74688 1.82202 1.93188V9.55989C1.82202 10.3439 3.71302 10.9799 6.06002 10.9919H6.12002C8.49302 10.9919 10.42 10.3749 10.42 9.55989V1.93188C10.42 2.72788 8.49502 3.36388 6.12202 3.36388Z" fill="url(#paint0_linear)"/>
<path d="M10.4201 1.932C10.4201 2.732 8.49507 3.364 6.12007 3.364C3.74507 3.364 1.82007 2.747 1.82007 1.932C1.82007 1.117 3.74807 0.5 6.12207 0.5C8.49607 0.5 10.4221 1.117 10.4221 1.932" fill="#E8E8E8"/>
<path d="M9.42104 1.81498C9.42104 2.32098 7.93904 2.72798 6.12104 2.72798C4.30304 2.72798 2.82104 2.32098 2.82104 1.81498C2.82104 1.30898 4.30505 0.906982 6.12205 0.906982C7.93904 0.906982 9.42204 1.31498 9.42204 1.81498" fill="#50E6FF"/>
<path d="M6.12216 2.0429C5.23941 2.02316 4.35913 2.14366 3.51416 2.3999C4.36021 2.64911 5.24064 2.76152 6.12216 2.7329C7.00552 2.75571 7.88661 2.63308 8.73016 2.3699C7.88276 2.12771 7.00312 2.01741 6.12216 2.0429Z" fill="#198AB3"/>
<path d="M10.4201 7.87194C8.04612 7.87194 6.12012 7.25394 6.12012 6.43994V14.0679C6.12012 14.8519 8.01112 15.4879 10.3571 15.4999H10.4181C12.7911 15.4999 14.7181 14.8829 14.7181 14.0679V6.43994C14.7171 7.23594 12.7931 7.87194 10.4201 7.87194Z" fill="url(#paint1_linear)"/>
<path d="M14.7172 6.44006C14.7172 7.24006 12.7932 7.87206 10.4172 7.87206C8.04119 7.87206 6.11719 7.25406 6.11719 6.44006C6.11719 5.62606 8.04119 5.00806 10.4172 5.00806C12.7932 5.00806 14.7172 5.62506 14.7172 6.44006Z" fill="#E8E8E8"/>
<path d="M13.7182 6.32204C13.7182 6.82804 12.2362 7.23604 10.4182 7.23604C8.60016 7.23604 7.11816 6.82804 7.11816 6.32204C7.11816 5.81604 8.60016 5.41504 10.4182 5.41504C12.2362 5.41504 13.7182 5.82204 13.7182 6.32204Z" fill="#50E6FF"/>
<path d="M10.4203 6.55112C9.53763 6.52885 8.65704 6.64665 7.81128 6.90012C8.65777 7.14885 9.53845 7.26126 10.4203 7.23312C11.3033 7.25699 12.1843 7.13606 13.0283 6.87512C12.1808 6.63346 11.3011 6.52417 10.4203 6.55112Z" fill="#198AB3"/>
<defs>
<linearGradient id="paint0_linear" x1="1.82402" y1="6.46189" x2="10.42" y2="6.46189" gradientUnits="userSpaceOnUse">
<stop stop-color="#005BA1"/>
<stop offset="0.07" stop-color="#0060A9"/>
<stop offset="0.36" stop-color="#0071C8"/>
<stop offset="0.52" stop-color="#0078D4"/>
<stop offset="0.64" stop-color="#0074CD"/>
<stop offset="0.82" stop-color="#006ABB"/>
<stop offset="1" stop-color="#005BA1"/>
</linearGradient>
<linearGradient id="paint1_linear" x1="58.7571" y1="3984.05" x2="132.657" y2="3984.05" gradientUnits="userSpaceOnUse">
<stop stop-color="#005BA1"/>
<stop offset="0.07" stop-color="#0060A9"/>
<stop offset="0.36" stop-color="#0071C8"/>
<stop offset="0.52" stop-color="#0078D4"/>
<stop offset="0.64" stop-color="#0074CD"/>
<stop offset="0.82" stop-color="#006ABB"/>
<stop offset="1" stop-color="#005BA1"/>
</linearGradient>
</defs>
</svg>
