<svg class="svg-icon" style="width: 1em; height: 1em;vertical-align: middle;fill: currentColor;overflow: hidden;" viewBox="0 0 1024 1024" version="1.1" xmlns="http://www.w3.org/2000/svg"><path d="M473.728 353.792l-30.976-153.344a64 64 0 1 1 63.36-9.792l30.08 149.248c23.424 0.768 45.248 7.808 63.872 19.52l132.032-142.272a96 96 0 1 1 46.784 43.648l-134.784 145.28c7.744 14.08 12.928 29.696 14.912 46.336l146.368 20.288a64 64 0 1 1-8.768 63.36l-145.984-20.16a128.256 128.256 0 0 1-31.68 45.824l102.976 161.28a64 64 0 1 1-51.392 38.4L562.368 592.256a128.32 128.32 0 0 1-83.712-7.936l-138.688 149.376a96 96 0 1 1-49.28-40.96l138.176-148.864a127.424 127.424 0 0 1-23.04-98.368L254.592 357.312a64 64 0 1 1 36.608-52.736l141.44 82.432c11.264-13.76 25.216-25.088 41.088-33.216z m-88.768-52.672a32 32 0 0 1-64 0A96 96 0 1 0 270.08 385.92a32 32 0 0 1 30.208 56.448 160 160 0 1 1 84.608-141.12z m197.248 421.696a32 32 0 1 1 58.24 26.496 96 96 0 1 0 87.424-56.32 32 32 0 1 1 0-64 160 160 0 1 1-145.664 93.824z"  /></svg>